<svg width="906" height="362" viewBox="0 0 906 362" fill="none" xmlns="http://www.w3.org/2000/svg">
<rect x="20" y="20" width="262" height="322" rx="24" fill="#F2F5FD"/>
<path fill-rule="evenodd" clip-rule="evenodd" d="M151 51.8334C157.457 51.8333 163.85 53.1051 169.815 55.5759C175.781 58.0467 181.201 61.6683 185.766 66.2339C190.332 70.7994 193.953 76.2195 196.424 82.1847C198.895 88.1499 200.167 94.5433 200.167 101C200.167 128.154 178.154 150.167 151 150.167C123.846 150.167 101.833 128.154 101.833 101C101.833 73.8461 123.846 51.8334 151 51.8334ZM155.917 105.917H146.083C133.911 105.917 123.461 113.289 118.954 123.812C126.085 133.812 137.781 140.333 151 140.333C164.219 140.333 175.915 133.812 183.047 123.812C178.539 113.289 168.089 105.917 155.917 105.917ZM151 66.5834C142.854 66.5834 136.25 73.1872 136.25 81.3334C136.25 89.4795 142.854 96.0834 151 96.0834C159.146 96.0834 165.75 89.4795 165.75 81.3334C165.75 73.1872 159.146 66.5834 151 66.5834Z" fill="#79D1E5"/>
<rect x="96" y="167" width="110" height="35.7284" rx="6.79012" fill="#3A2F7E"/>
<path d="M121.303 180.963H122.734V186.125C122.734 186.691 122.6 187.189 122.333 187.618C122.068 188.048 121.695 188.383 121.214 188.625C120.733 188.864 120.171 188.984 119.528 188.984C118.883 188.984 118.319 188.864 117.838 188.625C117.357 188.383 116.984 188.048 116.72 187.618C116.455 187.189 116.322 186.691 116.322 186.125V180.963H117.753V186.005C117.753 186.335 117.825 186.628 117.97 186.885C118.116 187.142 118.322 187.344 118.587 187.491C118.852 187.635 119.166 187.707 119.528 187.707C119.891 187.707 120.205 187.635 120.47 187.491C120.737 187.344 120.943 187.142 121.087 186.885C121.231 186.628 121.303 186.335 121.303 186.005V180.963ZM124.228 191.086V182.938H125.602V183.918H125.683C125.755 183.774 125.856 183.621 125.987 183.459C126.119 183.295 126.296 183.154 126.52 183.039C126.744 182.92 127.029 182.861 127.376 182.861C127.834 182.861 128.247 182.978 128.615 183.212C128.985 183.444 129.278 183.787 129.494 184.242C129.713 184.695 129.822 185.251 129.822 185.909C129.822 186.56 129.716 187.113 129.502 187.568C129.289 188.023 128.998 188.37 128.63 188.61C128.262 188.849 127.846 188.968 127.38 188.968C127.041 188.968 126.759 188.912 126.535 188.799C126.312 188.686 126.131 188.549 125.995 188.39C125.861 188.228 125.757 188.075 125.683 187.931H125.625V191.086H124.228ZM125.598 185.901C125.598 186.285 125.652 186.62 125.76 186.908C125.87 187.196 126.029 187.421 126.234 187.583C126.443 187.743 126.695 187.823 126.991 187.823C127.299 187.823 127.558 187.74 127.766 187.576C127.974 187.408 128.131 187.181 128.237 186.893C128.345 186.602 128.399 186.272 128.399 185.901C128.399 185.533 128.346 185.207 128.241 184.921C128.135 184.636 127.978 184.412 127.77 184.25C127.562 184.088 127.302 184.007 126.991 184.007C126.692 184.007 126.439 184.085 126.231 184.242C126.022 184.399 125.864 184.619 125.756 184.902C125.651 185.185 125.598 185.518 125.598 185.901ZM132.415 180.963V188.864H131.018V180.963H132.415ZM136.436 188.98C135.857 188.98 135.356 188.853 134.931 188.598C134.507 188.343 134.178 187.987 133.944 187.529C133.712 187.072 133.596 186.537 133.596 185.924C133.596 185.312 133.712 184.776 133.944 184.316C134.178 183.855 134.507 183.498 134.931 183.243C135.356 182.988 135.857 182.861 136.436 182.861C137.015 182.861 137.516 182.988 137.941 183.243C138.365 183.498 138.693 183.855 138.924 184.316C139.158 184.776 139.275 185.312 139.275 185.924C139.275 186.537 139.158 187.072 138.924 187.529C138.693 187.987 138.365 188.343 137.941 188.598C137.516 188.853 137.015 188.98 136.436 188.98ZM136.444 187.861C136.757 187.861 137.02 187.775 137.231 187.603C137.442 187.428 137.599 187.194 137.701 186.901C137.807 186.607 137.86 186.281 137.86 185.921C137.86 185.558 137.807 185.23 137.701 184.937C137.599 184.641 137.442 184.406 137.231 184.231C137.02 184.056 136.757 183.968 136.444 183.968C136.122 183.968 135.855 184.056 135.641 184.231C135.43 184.406 135.272 184.641 135.167 184.937C135.064 185.23 135.012 185.558 135.012 185.921C135.012 186.281 135.064 186.607 135.167 186.901C135.272 187.194 135.43 187.428 135.641 187.603C135.855 187.775 136.122 187.861 136.444 187.861ZM142.166 188.984C141.791 188.984 141.452 188.917 141.151 188.783C140.853 188.647 140.616 188.446 140.442 188.181C140.269 187.916 140.183 187.59 140.183 187.201C140.183 186.867 140.245 186.591 140.368 186.372C140.492 186.153 140.66 185.978 140.874 185.847C141.087 185.716 141.328 185.617 141.595 185.55C141.865 185.481 142.144 185.431 142.432 185.4C142.78 185.364 143.061 185.332 143.277 185.303C143.493 185.272 143.65 185.226 143.748 185.164C143.848 185.1 143.898 185.001 143.898 184.867V184.844C143.898 184.554 143.812 184.329 143.64 184.169C143.468 184.01 143.219 183.93 142.895 183.93C142.553 183.93 142.282 184.004 142.081 184.154C141.883 184.303 141.749 184.479 141.68 184.682L140.376 184.497C140.479 184.137 140.649 183.836 140.885 183.594C141.122 183.35 141.411 183.167 141.753 183.046C142.095 182.923 142.473 182.861 142.888 182.861C143.173 182.861 143.457 182.895 143.74 182.961C144.023 183.028 144.282 183.139 144.516 183.293C144.75 183.445 144.937 183.652 145.079 183.914C145.223 184.177 145.295 184.505 145.295 184.898V188.864H143.952V188.05H143.906C143.821 188.215 143.702 188.369 143.547 188.513C143.396 188.655 143.204 188.769 142.972 188.857C142.744 188.941 142.475 188.984 142.166 188.984ZM142.529 187.958C142.809 187.958 143.052 187.902 143.258 187.792C143.464 187.679 143.622 187.529 143.732 187.344C143.846 187.159 143.902 186.957 143.902 186.738V186.04C143.858 186.076 143.784 186.11 143.678 186.14C143.576 186.171 143.46 186.198 143.331 186.222C143.203 186.245 143.075 186.265 142.949 186.283C142.823 186.301 142.714 186.317 142.621 186.33C142.413 186.358 142.227 186.404 142.062 186.468C141.897 186.533 141.767 186.623 141.672 186.738C141.577 186.852 141.53 186.998 141.53 187.178C141.53 187.436 141.623 187.63 141.811 187.761C141.999 187.892 142.238 187.958 142.529 187.958ZM148.898 188.968C148.433 188.968 148.016 188.849 147.648 188.61C147.281 188.37 146.99 188.023 146.776 187.568C146.563 187.113 146.456 186.56 146.456 185.909C146.456 185.251 146.564 184.695 146.78 184.242C146.999 183.787 147.293 183.444 147.664 183.212C148.034 182.978 148.447 182.861 148.902 182.861C149.249 182.861 149.535 182.92 149.759 183.039C149.982 183.154 150.16 183.295 150.291 183.459C150.422 183.621 150.524 183.774 150.596 183.918H150.654V180.963H152.054V188.864H150.681V187.931H150.596C150.524 188.075 150.42 188.228 150.283 188.39C150.147 188.549 149.967 188.686 149.743 188.799C149.519 188.912 149.238 188.968 148.898 188.968ZM149.288 187.823C149.584 187.823 149.836 187.743 150.044 187.583C150.253 187.421 150.411 187.196 150.519 186.908C150.627 186.62 150.681 186.285 150.681 185.901C150.681 185.518 150.627 185.185 150.519 184.902C150.413 184.619 150.256 184.399 150.048 184.242C149.842 184.085 149.589 184.007 149.288 184.007C148.977 184.007 148.717 184.088 148.509 184.25C148.3 184.412 148.143 184.636 148.038 184.921C147.933 185.207 147.88 185.533 147.88 185.901C147.88 186.272 147.933 186.602 148.038 186.893C148.146 187.181 148.304 187.408 148.513 187.576C148.723 187.74 148.982 187.823 149.288 187.823ZM156.299 188.864V180.963H159.262C159.869 180.963 160.378 181.076 160.79 181.303C161.204 181.529 161.516 181.84 161.727 182.236C161.941 182.63 162.047 183.077 162.047 183.579C162.047 184.085 161.941 184.536 161.727 184.929C161.514 185.323 161.199 185.633 160.782 185.859C160.365 186.083 159.852 186.195 159.243 186.195H157.279V185.018H159.05C159.405 185.018 159.695 184.956 159.922 184.833C160.148 184.709 160.315 184.539 160.423 184.323C160.534 184.107 160.589 183.859 160.589 183.579C160.589 183.298 160.534 183.052 160.423 182.838C160.315 182.625 160.147 182.459 159.918 182.34C159.691 182.219 159.4 182.159 159.042 182.159H157.73V188.864H156.299ZM164.626 185.392V188.864H163.229V180.963H164.595V183.945H164.664C164.803 183.611 165.018 183.347 165.308 183.154C165.602 182.959 165.975 182.861 166.427 182.861C166.839 182.861 167.198 182.947 167.504 183.12C167.81 183.292 168.046 183.544 168.214 183.876C168.383 184.208 168.468 184.613 168.468 185.091V188.864H167.072V185.307C167.072 184.908 166.969 184.599 166.763 184.377C166.56 184.154 166.274 184.042 165.906 184.042C165.66 184.042 165.438 184.096 165.243 184.204C165.05 184.309 164.898 184.462 164.788 184.663C164.68 184.863 164.626 185.107 164.626 185.392ZM172.477 188.98C171.898 188.98 171.396 188.853 170.972 188.598C170.548 188.343 170.218 187.987 169.984 187.529C169.753 187.072 169.637 186.537 169.637 185.924C169.637 185.312 169.753 184.776 169.984 184.316C170.218 183.855 170.548 183.498 170.972 183.243C171.396 182.988 171.898 182.861 172.477 182.861C173.055 182.861 173.557 182.988 173.981 183.243C174.406 183.498 174.734 183.855 174.965 184.316C175.199 184.776 175.316 185.312 175.316 185.924C175.316 186.537 175.199 187.072 174.965 187.529C174.734 187.987 174.406 188.343 173.981 188.598C173.557 188.853 173.055 188.98 172.477 188.98ZM172.484 187.861C172.798 187.861 173.061 187.775 173.271 187.603C173.482 187.428 173.639 187.194 173.742 186.901C173.848 186.607 173.9 186.281 173.9 185.921C173.9 185.558 173.848 185.23 173.742 184.937C173.639 184.641 173.482 184.406 173.271 184.231C173.061 184.056 172.798 183.968 172.484 183.968C172.163 183.968 171.895 184.056 171.682 184.231C171.471 184.406 171.313 184.641 171.207 184.937C171.104 185.23 171.053 185.558 171.053 185.921C171.053 186.281 171.104 186.607 171.207 186.901C171.313 187.194 171.471 187.428 171.682 187.603C171.895 187.775 172.163 187.861 172.484 187.861ZM179.461 182.938V184.019H176.054V182.938H179.461ZM176.895 181.519H178.292V187.082C178.292 187.27 178.32 187.414 178.377 187.514C178.436 187.612 178.513 187.679 178.608 187.715C178.703 187.751 178.809 187.769 178.924 187.769C179.012 187.769 179.092 187.762 179.164 187.749C179.238 187.736 179.295 187.725 179.333 187.715L179.569 188.806C179.494 188.832 179.387 188.86 179.248 188.891C179.112 188.922 178.945 188.94 178.747 188.945C178.397 188.956 178.082 188.903 177.802 188.787C177.521 188.669 177.299 188.486 177.134 188.239C176.972 187.992 176.892 187.684 176.895 187.313V181.519ZM183.15 188.98C182.571 188.98 182.07 188.853 181.645 188.598C181.221 188.343 180.892 187.987 180.658 187.529C180.426 187.072 180.31 186.537 180.31 185.924C180.31 185.312 180.426 184.776 180.658 184.316C180.892 183.855 181.221 183.498 181.645 183.243C182.07 182.988 182.571 182.861 183.15 182.861C183.729 182.861 184.23 182.988 184.655 183.243C185.079 183.498 185.407 183.855 185.638 184.316C185.872 184.776 185.989 185.312 185.989 185.924C185.989 186.537 185.872 187.072 185.638 187.529C185.407 187.987 185.079 188.343 184.655 188.598C184.23 188.853 183.729 188.98 183.15 188.98ZM183.158 187.861C183.471 187.861 183.734 187.775 183.945 187.603C184.156 187.428 184.312 187.194 184.415 186.901C184.521 186.607 184.574 186.281 184.574 185.921C184.574 185.558 184.521 185.23 184.415 184.937C184.312 184.641 184.156 184.406 183.945 184.231C183.734 184.056 183.471 183.968 183.158 183.968C182.836 183.968 182.569 184.056 182.355 184.231C182.144 184.406 181.986 184.641 181.881 184.937C181.778 185.23 181.726 185.558 181.726 185.921C181.726 186.281 181.778 186.607 181.881 186.901C181.986 187.194 182.144 187.428 182.355 187.603C182.569 187.775 182.836 187.861 183.158 187.861Z" fill="white"/>
<rect x="112" y="226" width="88.6667" height="5" rx="2.5" fill="#E0E5F2"/>
<path fill-rule="evenodd" clip-rule="evenodd" d="M109.123 224.305C109.215 224.25 109.325 224.232 109.43 224.256C109.535 224.28 109.627 224.344 109.686 224.434L110.099 225.063C110.152 225.146 110.175 225.244 110.163 225.342C110.152 225.439 110.106 225.529 110.034 225.596L110.033 225.598L110.027 225.603L110.003 225.625L109.909 225.715C109.391 226.218 108.888 226.737 108.401 227.272C107.486 228.278 106.399 229.596 105.667 230.874C105.463 231.231 104.964 231.308 104.668 231L101.966 228.192C101.927 228.152 101.897 228.104 101.877 228.052C101.857 228 101.848 227.944 101.85 227.888C101.852 227.833 101.865 227.778 101.889 227.727C101.912 227.677 101.946 227.631 101.987 227.594L102.804 226.857C102.876 226.792 102.968 226.755 103.064 226.75C103.161 226.746 103.256 226.775 103.333 226.833L104.712 227.867C106.866 225.743 108.087 224.928 109.123 224.305Z" fill="#79D1E5"/>
<rect x="112" y="243" width="88.6667" height="5" rx="2.5" fill="#E0E5F2"/>
<path fill-rule="evenodd" clip-rule="evenodd" d="M109.123 241.305C109.215 241.25 109.325 241.232 109.43 241.256C109.535 241.28 109.627 241.344 109.686 241.434L110.099 242.063C110.152 242.146 110.175 242.244 110.163 242.342C110.152 242.439 110.106 242.529 110.034 242.596L110.033 242.598L110.027 242.603L110.003 242.625L109.909 242.715C109.391 243.218 108.888 243.737 108.401 244.272C107.486 245.278 106.399 246.596 105.667 247.874C105.463 248.231 104.964 248.308 104.668 248L101.966 245.192C101.927 245.152 101.897 245.104 101.877 245.052C101.857 245 101.848 244.944 101.85 244.888C101.852 244.833 101.865 244.778 101.889 244.727C101.912 244.677 101.946 244.631 101.987 244.594L102.804 243.857C102.876 243.792 102.968 243.755 103.064 243.75C103.161 243.746 103.256 243.775 103.333 243.833L104.712 244.867C106.866 242.743 108.087 241.928 109.123 241.305Z" fill="#79D1E5"/>
<rect x="322" y="20" width="262" height="322" rx="24" fill="#F2F5FD"/>
<path fill-rule="evenodd" clip-rule="evenodd" d="M453 51.8334C459.457 51.8333 465.85 53.1051 471.815 55.5759C477.781 58.0467 483.201 61.6683 487.766 66.2339C492.332 70.7994 495.953 76.2195 498.424 82.1847C500.895 88.1499 502.167 94.5433 502.167 101C502.167 128.154 480.154 150.167 453 150.167C425.846 150.167 403.833 128.154 403.833 101C403.833 73.8461 425.846 51.8334 453 51.8334ZM457.917 105.917H448.083C435.911 105.917 425.461 113.289 420.954 123.812C428.085 133.812 439.781 140.333 453 140.333C466.219 140.333 477.915 133.812 485.047 123.812C480.539 113.289 470.089 105.917 457.917 105.917ZM453 66.5834C444.854 66.5834 438.25 73.1872 438.25 81.3334C438.25 89.4795 444.854 96.0834 453 96.0834C461.146 96.0834 467.75 89.4795 467.75 81.3334C467.75 73.1872 461.146 66.5834 453 66.5834Z" fill="#79D1E5"/>
<rect x="398" y="167" width="110" height="35.7284" rx="6.79012" fill="#3A2F7E"/>
<path d="M423.303 180.963H424.734V186.125C424.734 186.691 424.6 187.189 424.333 187.618C424.068 188.048 423.695 188.383 423.214 188.625C422.733 188.864 422.171 188.984 421.528 188.984C420.883 188.984 420.319 188.864 419.838 188.625C419.357 188.383 418.984 188.048 418.72 187.618C418.455 187.189 418.322 186.691 418.322 186.125V180.963H419.753V186.005C419.753 186.335 419.825 186.628 419.97 186.885C420.116 187.142 420.322 187.344 420.587 187.491C420.852 187.635 421.166 187.707 421.528 187.707C421.891 187.707 422.205 187.635 422.47 187.491C422.737 187.344 422.943 187.142 423.087 186.885C423.231 186.628 423.303 186.335 423.303 186.005V180.963ZM426.228 191.086V182.938H427.602V183.918H427.683C427.755 183.774 427.856 183.621 427.987 183.459C428.119 183.295 428.296 183.154 428.52 183.039C428.744 182.92 429.029 182.861 429.376 182.861C429.834 182.861 430.247 182.978 430.615 183.212C430.985 183.444 431.278 183.787 431.494 184.242C431.713 184.695 431.822 185.251 431.822 185.909C431.822 186.56 431.716 187.113 431.502 187.568C431.289 188.023 430.998 188.37 430.63 188.61C430.262 188.849 429.846 188.968 429.38 188.968C429.041 188.968 428.759 188.912 428.535 188.799C428.312 188.686 428.131 188.549 427.995 188.39C427.861 188.228 427.757 188.075 427.683 187.931H427.625V191.086H426.228ZM427.598 185.901C427.598 186.285 427.652 186.62 427.76 186.908C427.87 187.196 428.029 187.421 428.234 187.583C428.443 187.743 428.695 187.823 428.991 187.823C429.299 187.823 429.558 187.74 429.766 187.576C429.974 187.408 430.131 187.181 430.237 186.893C430.345 186.602 430.399 186.272 430.399 185.901C430.399 185.533 430.346 185.207 430.241 184.921C430.135 184.636 429.978 184.412 429.77 184.25C429.562 184.088 429.302 184.007 428.991 184.007C428.692 184.007 428.439 184.085 428.231 184.242C428.022 184.399 427.864 184.619 427.756 184.902C427.651 185.185 427.598 185.518 427.598 185.901ZM434.415 180.963V188.864H433.018V180.963H434.415ZM438.436 188.98C437.857 188.98 437.356 188.853 436.931 188.598C436.507 188.343 436.178 187.987 435.944 187.529C435.712 187.072 435.596 186.537 435.596 185.924C435.596 185.312 435.712 184.776 435.944 184.316C436.178 183.855 436.507 183.498 436.931 183.243C437.356 182.988 437.857 182.861 438.436 182.861C439.015 182.861 439.516 182.988 439.941 183.243C440.365 183.498 440.693 183.855 440.924 184.316C441.158 184.776 441.275 185.312 441.275 185.924C441.275 186.537 441.158 187.072 440.924 187.529C440.693 187.987 440.365 188.343 439.941 188.598C439.516 188.853 439.015 188.98 438.436 188.98ZM438.444 187.861C438.757 187.861 439.02 187.775 439.231 187.603C439.442 187.428 439.599 187.194 439.701 186.901C439.807 186.607 439.86 186.281 439.86 185.921C439.86 185.558 439.807 185.23 439.701 184.937C439.599 184.641 439.442 184.406 439.231 184.231C439.02 184.056 438.757 183.968 438.444 183.968C438.122 183.968 437.855 184.056 437.641 184.231C437.43 184.406 437.272 184.641 437.167 184.937C437.064 185.23 437.012 185.558 437.012 185.921C437.012 186.281 437.064 186.607 437.167 186.901C437.272 187.194 437.43 187.428 437.641 187.603C437.855 187.775 438.122 187.861 438.444 187.861ZM444.166 188.984C443.791 188.984 443.452 188.917 443.151 188.783C442.853 188.647 442.616 188.446 442.442 188.181C442.269 187.916 442.183 187.59 442.183 187.201C442.183 186.867 442.245 186.591 442.368 186.372C442.492 186.153 442.66 185.978 442.874 185.847C443.087 185.716 443.328 185.617 443.595 185.55C443.865 185.481 444.144 185.431 444.432 185.4C444.78 185.364 445.061 185.332 445.277 185.303C445.493 185.272 445.65 185.226 445.748 185.164C445.848 185.1 445.898 185.001 445.898 184.867V184.844C445.898 184.554 445.812 184.329 445.64 184.169C445.468 184.01 445.219 183.93 444.895 183.93C444.553 183.93 444.282 184.004 444.081 184.154C443.883 184.303 443.749 184.479 443.68 184.682L442.376 184.497C442.479 184.137 442.649 183.836 442.885 183.594C443.122 183.35 443.411 183.167 443.753 183.046C444.095 182.923 444.473 182.861 444.888 182.861C445.173 182.861 445.457 182.895 445.74 182.961C446.023 183.028 446.282 183.139 446.516 183.293C446.75 183.445 446.937 183.652 447.079 183.914C447.223 184.177 447.295 184.505 447.295 184.898V188.864H445.952V188.05H445.906C445.821 188.215 445.702 188.369 445.547 188.513C445.396 188.655 445.204 188.769 444.972 188.857C444.744 188.941 444.475 188.984 444.166 188.984ZM444.529 187.958C444.809 187.958 445.052 187.902 445.258 187.792C445.464 187.679 445.622 187.529 445.732 187.344C445.846 187.159 445.902 186.957 445.902 186.738V186.04C445.858 186.076 445.784 186.11 445.678 186.14C445.576 186.171 445.46 186.198 445.331 186.222C445.203 186.245 445.075 186.265 444.949 186.283C444.823 186.301 444.714 186.317 444.621 186.33C444.413 186.358 444.227 186.404 444.062 186.468C443.897 186.533 443.767 186.623 443.672 186.738C443.577 186.852 443.53 186.998 443.53 187.178C443.53 187.436 443.623 187.63 443.811 187.761C443.999 187.892 444.238 187.958 444.529 187.958ZM450.898 188.968C450.433 188.968 450.016 188.849 449.648 188.61C449.281 188.37 448.99 188.023 448.776 187.568C448.563 187.113 448.456 186.56 448.456 185.909C448.456 185.251 448.564 184.695 448.78 184.242C448.999 183.787 449.293 183.444 449.664 183.212C450.034 182.978 450.447 182.861 450.902 182.861C451.249 182.861 451.535 182.92 451.759 183.039C451.982 183.154 452.16 183.295 452.291 183.459C452.422 183.621 452.524 183.774 452.596 183.918H452.654V180.963H454.054V188.864H452.681V187.931H452.596C452.524 188.075 452.42 188.228 452.283 188.39C452.147 188.549 451.967 188.686 451.743 188.799C451.519 188.912 451.238 188.968 450.898 188.968ZM451.288 187.823C451.584 187.823 451.836 187.743 452.044 187.583C452.253 187.421 452.411 187.196 452.519 186.908C452.627 186.62 452.681 186.285 452.681 185.901C452.681 185.518 452.627 185.185 452.519 184.902C452.413 184.619 452.256 184.399 452.048 184.242C451.842 184.085 451.589 184.007 451.288 184.007C450.977 184.007 450.717 184.088 450.509 184.25C450.3 184.412 450.143 184.636 450.038 184.921C449.933 185.207 449.88 185.533 449.88 185.901C449.88 186.272 449.933 186.602 450.038 186.893C450.146 187.181 450.304 187.408 450.513 187.576C450.723 187.74 450.982 187.823 451.288 187.823ZM458.299 188.864V180.963H461.262C461.869 180.963 462.378 181.076 462.79 181.303C463.204 181.529 463.516 181.84 463.727 182.236C463.941 182.63 464.047 183.077 464.047 183.579C464.047 184.085 463.941 184.536 463.727 184.929C463.514 185.323 463.199 185.633 462.782 185.859C462.365 186.083 461.852 186.195 461.243 186.195H459.279V185.018H461.05C461.405 185.018 461.695 184.956 461.922 184.833C462.148 184.709 462.315 184.539 462.423 184.323C462.534 184.107 462.589 183.859 462.589 183.579C462.589 183.298 462.534 183.052 462.423 182.838C462.315 182.625 462.147 182.459 461.918 182.34C461.691 182.219 461.4 182.159 461.042 182.159H459.73V188.864H458.299ZM466.626 185.392V188.864H465.229V180.963H466.595V183.945H466.664C466.803 183.611 467.018 183.347 467.308 183.154C467.602 182.959 467.975 182.861 468.427 182.861C468.839 182.861 469.198 182.947 469.504 183.12C469.81 183.292 470.046 183.544 470.214 183.876C470.383 184.208 470.468 184.613 470.468 185.091V188.864H469.072V185.307C469.072 184.908 468.969 184.599 468.763 184.377C468.56 184.154 468.274 184.042 467.906 184.042C467.66 184.042 467.438 184.096 467.243 184.204C467.05 184.309 466.898 184.462 466.788 184.663C466.68 184.863 466.626 185.107 466.626 185.392ZM474.477 188.98C473.898 188.98 473.396 188.853 472.972 188.598C472.548 188.343 472.218 187.987 471.984 187.529C471.753 187.072 471.637 186.537 471.637 185.924C471.637 185.312 471.753 184.776 471.984 184.316C472.218 183.855 472.548 183.498 472.972 183.243C473.396 182.988 473.898 182.861 474.477 182.861C475.055 182.861 475.557 182.988 475.981 183.243C476.406 183.498 476.734 183.855 476.965 184.316C477.199 184.776 477.316 185.312 477.316 185.924C477.316 186.537 477.199 187.072 476.965 187.529C476.734 187.987 476.406 188.343 475.981 188.598C475.557 188.853 475.055 188.98 474.477 188.98ZM474.484 187.861C474.798 187.861 475.061 187.775 475.271 187.603C475.482 187.428 475.639 187.194 475.742 186.901C475.848 186.607 475.9 186.281 475.9 185.921C475.9 185.558 475.848 185.23 475.742 184.937C475.639 184.641 475.482 184.406 475.271 184.231C475.061 184.056 474.798 183.968 474.484 183.968C474.163 183.968 473.895 184.056 473.682 184.231C473.471 184.406 473.313 184.641 473.207 184.937C473.104 185.23 473.053 185.558 473.053 185.921C473.053 186.281 473.104 186.607 473.207 186.901C473.313 187.194 473.471 187.428 473.682 187.603C473.895 187.775 474.163 187.861 474.484 187.861ZM481.461 182.938V184.019H478.054V182.938H481.461ZM478.895 181.519H480.292V187.082C480.292 187.27 480.32 187.414 480.377 187.514C480.436 187.612 480.513 187.679 480.608 187.715C480.703 187.751 480.809 187.769 480.924 187.769C481.012 187.769 481.092 187.762 481.164 187.749C481.238 187.736 481.295 187.725 481.333 187.715L481.569 188.806C481.494 188.832 481.387 188.86 481.248 188.891C481.112 188.922 480.945 188.94 480.747 188.945C480.397 188.956 480.082 188.903 479.802 188.787C479.521 188.669 479.299 188.486 479.134 188.239C478.972 187.992 478.892 187.684 478.895 187.313V181.519ZM485.15 188.98C484.571 188.98 484.07 188.853 483.645 188.598C483.221 188.343 482.892 187.987 482.658 187.529C482.426 187.072 482.31 186.537 482.31 185.924C482.31 185.312 482.426 184.776 482.658 184.316C482.892 183.855 483.221 183.498 483.645 183.243C484.07 182.988 484.571 182.861 485.15 182.861C485.729 182.861 486.23 182.988 486.655 183.243C487.079 183.498 487.407 183.855 487.638 184.316C487.872 184.776 487.989 185.312 487.989 185.924C487.989 186.537 487.872 187.072 487.638 187.529C487.407 187.987 487.079 188.343 486.655 188.598C486.23 188.853 485.729 188.98 485.15 188.98ZM485.158 187.861C485.471 187.861 485.734 187.775 485.945 187.603C486.156 187.428 486.312 187.194 486.415 186.901C486.521 186.607 486.574 186.281 486.574 185.921C486.574 185.558 486.521 185.23 486.415 184.937C486.312 184.641 486.156 184.406 485.945 184.231C485.734 184.056 485.471 183.968 485.158 183.968C484.836 183.968 484.569 184.056 484.355 184.231C484.144 184.406 483.986 184.641 483.881 184.937C483.778 185.23 483.726 185.558 483.726 185.921C483.726 186.281 483.778 186.607 483.881 186.901C483.986 187.194 484.144 187.428 484.355 187.603C484.569 187.775 484.836 187.861 485.158 187.861Z" fill="white"/>
<rect x="414" y="226" width="88.6667" height="5" rx="2.5" fill="#E0E5F2"/>
<path fill-rule="evenodd" clip-rule="evenodd" d="M411.123 224.305C411.215 224.25 411.325 224.232 411.43 224.256C411.535 224.28 411.627 224.344 411.686 224.434L412.099 225.063C412.152 225.146 412.175 225.244 412.163 225.342C412.152 225.439 412.106 225.529 412.034 225.596L412.033 225.598L412.027 225.603L412.003 225.625L411.909 225.715C411.391 226.218 410.888 226.737 410.401 227.272C409.486 228.278 408.399 229.596 407.667 230.874C407.463 231.231 406.964 231.308 406.668 231L403.966 228.192C403.927 228.152 403.897 228.104 403.877 228.052C403.857 228 403.848 227.944 403.85 227.888C403.852 227.833 403.865 227.778 403.889 227.727C403.912 227.677 403.946 227.631 403.987 227.594L404.804 226.857C404.876 226.792 404.968 226.755 405.064 226.75C405.161 226.746 405.256 226.775 405.333 226.833L406.712 227.867C408.866 225.743 410.087 224.928 411.123 224.305Z" fill="#79D1E5"/>
<rect x="414" y="243" width="88.6667" height="5" rx="2.5" fill="#E0E5F2"/>
<path fill-rule="evenodd" clip-rule="evenodd" d="M411.123 241.305C411.215 241.25 411.325 241.232 411.43 241.256C411.535 241.28 411.627 241.344 411.686 241.434L412.099 242.063C412.152 242.146 412.175 242.244 412.163 242.342C412.152 242.439 412.106 242.529 412.034 242.596L412.033 242.598L412.027 242.603L412.003 242.625L411.909 242.715C411.391 243.218 410.888 243.737 410.401 244.272C409.486 245.278 408.399 246.596 407.667 247.874C407.463 248.231 406.964 248.308 406.668 248L403.966 245.192C403.927 245.152 403.897 245.104 403.877 245.052C403.857 245 403.848 244.944 403.85 244.888C403.852 244.833 403.865 244.778 403.889 244.727C403.912 244.677 403.946 244.631 403.987 244.594L404.804 243.857C404.876 243.792 404.968 243.755 405.064 243.75C405.161 243.746 405.256 243.775 405.333 243.833L406.712 244.867C408.866 242.743 410.087 241.928 411.123 241.305Z" fill="#79D1E5"/>
<rect x="414" y="260" width="88.6667" height="5" rx="2.5" fill="#E0E5F2"/>
<path fill-rule="evenodd" clip-rule="evenodd" d="M411.123 258.305C411.215 258.25 411.325 258.232 411.43 258.256C411.535 258.28 411.627 258.344 411.686 258.434L412.099 259.063C412.152 259.146 412.175 259.244 412.163 259.342C412.152 259.439 412.106 259.529 412.034 259.596L412.033 259.598L412.027 259.603L412.003 259.625L411.909 259.715C411.391 260.218 410.888 260.737 410.401 261.272C409.486 262.278 408.399 263.596 407.667 264.874C407.463 265.231 406.964 265.308 406.668 265L403.966 262.192C403.927 262.152 403.897 262.104 403.877 262.052C403.857 262 403.848 261.944 403.85 261.888C403.852 261.833 403.865 261.778 403.889 261.727C403.912 261.677 403.946 261.631 403.987 261.594L404.804 260.857C404.876 260.792 404.968 260.755 405.064 260.75C405.161 260.746 405.256 260.775 405.333 260.833L406.712 261.867C408.866 259.743 410.087 258.928 411.123 258.305Z" fill="#79D1E5"/>
<rect x="624" y="20" width="262" height="322" rx="24" fill="#F2F5FD"/>
<path fill-rule="evenodd" clip-rule="evenodd" d="M755 51.8334C761.457 51.8333 767.85 53.1051 773.815 55.5759C779.781 58.0467 785.201 61.6683 789.766 66.2339C794.332 70.7994 797.953 76.2195 800.424 82.1847C802.895 88.1499 804.167 94.5433 804.167 101C804.167 128.154 782.154 150.167 755 150.167C727.846 150.167 705.833 128.154 705.833 101C705.833 73.8461 727.846 51.8334 755 51.8334ZM759.917 105.917H750.083C737.911 105.917 727.461 113.289 722.954 123.812C730.085 133.812 741.781 140.333 755 140.333C768.219 140.333 779.915 133.812 787.047 123.812C782.539 113.289 772.089 105.917 759.917 105.917ZM755 66.5834C746.854 66.5834 740.25 73.1872 740.25 81.3334C740.25 89.4795 746.854 96.0834 755 96.0834C763.146 96.0834 769.75 89.4795 769.75 81.3334C769.75 73.1872 763.146 66.5834 755 66.5834Z" fill="#79D1E5"/>
<rect x="700" y="167" width="110" height="35.7284" rx="6.79012" fill="#C8C8C8"/>
<path d="M725.303 180.963H726.734V186.125C726.734 186.691 726.6 187.189 726.333 187.618C726.068 188.048 725.695 188.383 725.214 188.625C724.733 188.864 724.171 188.984 723.528 188.984C722.883 188.984 722.319 188.864 721.838 188.625C721.357 188.383 720.984 188.048 720.72 187.618C720.455 187.189 720.322 186.691 720.322 186.125V180.963H721.753V186.005C721.753 186.335 721.825 186.628 721.97 186.885C722.116 187.142 722.322 187.344 722.587 187.491C722.852 187.635 723.166 187.707 723.528 187.707C723.891 187.707 724.205 187.635 724.47 187.491C724.737 187.344 724.943 187.142 725.087 186.885C725.231 186.628 725.303 186.335 725.303 186.005V180.963ZM728.228 191.086V182.938H729.602V183.918H729.683C729.755 183.774 729.856 183.621 729.987 183.459C730.119 183.295 730.296 183.154 730.52 183.039C730.744 182.92 731.029 182.861 731.376 182.861C731.834 182.861 732.247 182.978 732.615 183.212C732.985 183.444 733.278 183.787 733.494 184.242C733.713 184.695 733.822 185.251 733.822 185.909C733.822 186.56 733.716 187.113 733.502 187.568C733.289 188.023 732.998 188.37 732.63 188.61C732.262 188.849 731.846 188.968 731.38 188.968C731.041 188.968 730.759 188.912 730.535 188.799C730.312 188.686 730.131 188.549 729.995 188.39C729.861 188.228 729.757 188.075 729.683 187.931H729.625V191.086H728.228ZM729.598 185.901C729.598 186.285 729.652 186.62 729.76 186.908C729.87 187.196 730.029 187.421 730.234 187.583C730.443 187.743 730.695 187.823 730.991 187.823C731.299 187.823 731.558 187.74 731.766 187.576C731.974 187.408 732.131 187.181 732.237 186.893C732.345 186.602 732.399 186.272 732.399 185.901C732.399 185.533 732.346 185.207 732.241 184.921C732.135 184.636 731.978 184.412 731.77 184.25C731.562 184.088 731.302 184.007 730.991 184.007C730.692 184.007 730.439 184.085 730.231 184.242C730.022 184.399 729.864 184.619 729.756 184.902C729.651 185.185 729.598 185.518 729.598 185.901ZM736.415 180.963V188.864H735.018V180.963H736.415ZM740.436 188.98C739.857 188.98 739.356 188.853 738.931 188.598C738.507 188.343 738.178 187.987 737.944 187.529C737.712 187.072 737.596 186.537 737.596 185.924C737.596 185.312 737.712 184.776 737.944 184.316C738.178 183.855 738.507 183.498 738.931 183.243C739.356 182.988 739.857 182.861 740.436 182.861C741.015 182.861 741.516 182.988 741.941 183.243C742.365 183.498 742.693 183.855 742.924 184.316C743.158 184.776 743.275 185.312 743.275 185.924C743.275 186.537 743.158 187.072 742.924 187.529C742.693 187.987 742.365 188.343 741.941 188.598C741.516 188.853 741.015 188.98 740.436 188.98ZM740.444 187.861C740.757 187.861 741.02 187.775 741.231 187.603C741.442 187.428 741.599 187.194 741.701 186.901C741.807 186.607 741.86 186.281 741.86 185.921C741.86 185.558 741.807 185.23 741.701 184.937C741.599 184.641 741.442 184.406 741.231 184.231C741.02 184.056 740.757 183.968 740.444 183.968C740.122 183.968 739.855 184.056 739.641 184.231C739.43 184.406 739.272 184.641 739.167 184.937C739.064 185.23 739.012 185.558 739.012 185.921C739.012 186.281 739.064 186.607 739.167 186.901C739.272 187.194 739.43 187.428 739.641 187.603C739.855 187.775 740.122 187.861 740.444 187.861ZM746.166 188.984C745.791 188.984 745.452 188.917 745.151 188.783C744.853 188.647 744.616 188.446 744.442 188.181C744.269 187.916 744.183 187.59 744.183 187.201C744.183 186.867 744.245 186.591 744.368 186.372C744.492 186.153 744.66 185.978 744.874 185.847C745.087 185.716 745.328 185.617 745.595 185.55C745.865 185.481 746.144 185.431 746.432 185.4C746.78 185.364 747.061 185.332 747.277 185.303C747.493 185.272 747.65 185.226 747.748 185.164C747.848 185.1 747.898 185.001 747.898 184.867V184.844C747.898 184.554 747.812 184.329 747.64 184.169C747.468 184.01 747.219 183.93 746.895 183.93C746.553 183.93 746.282 184.004 746.081 184.154C745.883 184.303 745.749 184.479 745.68 184.682L744.376 184.497C744.479 184.137 744.649 183.836 744.885 183.594C745.122 183.35 745.411 183.167 745.753 183.046C746.095 182.923 746.473 182.861 746.888 182.861C747.173 182.861 747.457 182.895 747.74 182.961C748.023 183.028 748.282 183.139 748.516 183.293C748.75 183.445 748.937 183.652 749.079 183.914C749.223 184.177 749.295 184.505 749.295 184.898V188.864H747.952V188.05H747.906C747.821 188.215 747.702 188.369 747.547 188.513C747.396 188.655 747.204 188.769 746.972 188.857C746.744 188.941 746.475 188.984 746.166 188.984ZM746.529 187.958C746.809 187.958 747.052 187.902 747.258 187.792C747.464 187.679 747.622 187.529 747.732 187.344C747.846 187.159 747.902 186.957 747.902 186.738V186.04C747.858 186.076 747.784 186.11 747.678 186.14C747.576 186.171 747.46 186.198 747.331 186.222C747.203 186.245 747.075 186.265 746.949 186.283C746.823 186.301 746.714 186.317 746.621 186.33C746.413 186.358 746.227 186.404 746.062 186.468C745.897 186.533 745.767 186.623 745.672 186.738C745.577 186.852 745.53 186.998 745.53 187.178C745.53 187.436 745.623 187.63 745.811 187.761C745.999 187.892 746.238 187.958 746.529 187.958ZM752.898 188.968C752.433 188.968 752.016 188.849 751.648 188.61C751.281 188.37 750.99 188.023 750.776 187.568C750.563 187.113 750.456 186.56 750.456 185.909C750.456 185.251 750.564 184.695 750.78 184.242C750.999 183.787 751.293 183.444 751.664 183.212C752.034 182.978 752.447 182.861 752.902 182.861C753.249 182.861 753.535 182.92 753.759 183.039C753.982 183.154 754.16 183.295 754.291 183.459C754.422 183.621 754.524 183.774 754.596 183.918H754.654V180.963H756.054V188.864H754.681V187.931H754.596C754.524 188.075 754.42 188.228 754.283 188.39C754.147 188.549 753.967 188.686 753.743 188.799C753.519 188.912 753.238 188.968 752.898 188.968ZM753.288 187.823C753.584 187.823 753.836 187.743 754.044 187.583C754.253 187.421 754.411 187.196 754.519 186.908C754.627 186.62 754.681 186.285 754.681 185.901C754.681 185.518 754.627 185.185 754.519 184.902C754.413 184.619 754.256 184.399 754.048 184.242C753.842 184.085 753.589 184.007 753.288 184.007C752.977 184.007 752.717 184.088 752.509 184.25C752.3 184.412 752.143 184.636 752.038 184.921C751.933 185.207 751.88 185.533 751.88 185.901C751.88 186.272 751.933 186.602 752.038 186.893C752.146 187.181 752.304 187.408 752.513 187.576C752.723 187.74 752.982 187.823 753.288 187.823ZM760.299 188.864V180.963H763.262C763.869 180.963 764.378 181.076 764.79 181.303C765.204 181.529 765.516 181.84 765.727 182.236C765.941 182.63 766.047 183.077 766.047 183.579C766.047 184.085 765.941 184.536 765.727 184.929C765.514 185.323 765.199 185.633 764.782 185.859C764.365 186.083 763.852 186.195 763.243 186.195H761.279V185.018H763.05C763.405 185.018 763.695 184.956 763.922 184.833C764.148 184.709 764.315 184.539 764.423 184.323C764.534 184.107 764.589 183.859 764.589 183.579C764.589 183.298 764.534 183.052 764.423 182.838C764.315 182.625 764.147 182.459 763.918 182.34C763.691 182.219 763.4 182.159 763.042 182.159H761.73V188.864H760.299ZM768.626 185.392V188.864H767.229V180.963H768.595V183.945H768.664C768.803 183.611 769.018 183.347 769.308 183.154C769.602 182.959 769.975 182.861 770.427 182.861C770.839 182.861 771.198 182.947 771.504 183.12C771.81 183.292 772.046 183.544 772.214 183.876C772.383 184.208 772.468 184.613 772.468 185.091V188.864H771.072V185.307C771.072 184.908 770.969 184.599 770.763 184.377C770.56 184.154 770.274 184.042 769.906 184.042C769.66 184.042 769.438 184.096 769.243 184.204C769.05 184.309 768.898 184.462 768.788 184.663C768.68 184.863 768.626 185.107 768.626 185.392ZM776.477 188.98C775.898 188.98 775.396 188.853 774.972 188.598C774.548 188.343 774.218 187.987 773.984 187.529C773.753 187.072 773.637 186.537 773.637 185.924C773.637 185.312 773.753 184.776 773.984 184.316C774.218 183.855 774.548 183.498 774.972 183.243C775.396 182.988 775.898 182.861 776.477 182.861C777.055 182.861 777.557 182.988 777.981 183.243C778.406 183.498 778.734 183.855 778.965 184.316C779.199 184.776 779.316 185.312 779.316 185.924C779.316 186.537 779.199 187.072 778.965 187.529C778.734 187.987 778.406 188.343 777.981 188.598C777.557 188.853 777.055 188.98 776.477 188.98ZM776.484 187.861C776.798 187.861 777.061 187.775 777.271 187.603C777.482 187.428 777.639 187.194 777.742 186.901C777.848 186.607 777.9 186.281 777.9 185.921C777.9 185.558 777.848 185.23 777.742 184.937C777.639 184.641 777.482 184.406 777.271 184.231C777.061 184.056 776.798 183.968 776.484 183.968C776.163 183.968 775.895 184.056 775.682 184.231C775.471 184.406 775.313 184.641 775.207 184.937C775.104 185.23 775.053 185.558 775.053 185.921C775.053 186.281 775.104 186.607 775.207 186.901C775.313 187.194 775.471 187.428 775.682 187.603C775.895 187.775 776.163 187.861 776.484 187.861ZM783.461 182.938V184.019H780.054V182.938H783.461ZM780.895 181.519H782.292V187.082C782.292 187.27 782.32 187.414 782.377 187.514C782.436 187.612 782.513 187.679 782.608 187.715C782.703 187.751 782.809 187.769 782.924 187.769C783.012 187.769 783.092 187.762 783.164 187.749C783.238 187.736 783.295 187.725 783.333 187.715L783.569 188.806C783.494 188.832 783.387 188.86 783.248 188.891C783.112 188.922 782.945 188.94 782.747 188.945C782.397 188.956 782.082 188.903 781.802 188.787C781.521 188.669 781.299 188.486 781.134 188.239C780.972 187.992 780.892 187.684 780.895 187.313V181.519ZM787.15 188.98C786.571 188.98 786.07 188.853 785.645 188.598C785.221 188.343 784.892 187.987 784.658 187.529C784.426 187.072 784.31 186.537 784.31 185.924C784.31 185.312 784.426 184.776 784.658 184.316C784.892 183.855 785.221 183.498 785.645 183.243C786.07 182.988 786.571 182.861 787.15 182.861C787.729 182.861 788.23 182.988 788.655 183.243C789.079 183.498 789.407 183.855 789.638 184.316C789.872 184.776 789.989 185.312 789.989 185.924C789.989 186.537 789.872 187.072 789.638 187.529C789.407 187.987 789.079 188.343 788.655 188.598C788.23 188.853 787.729 188.98 787.15 188.98ZM787.158 187.861C787.471 187.861 787.734 187.775 787.945 187.603C788.156 187.428 788.312 187.194 788.415 186.901C788.521 186.607 788.574 186.281 788.574 185.921C788.574 185.558 788.521 185.23 788.415 184.937C788.312 184.641 788.156 184.406 787.945 184.231C787.734 184.056 787.471 183.968 787.158 183.968C786.836 183.968 786.569 184.056 786.355 184.231C786.144 184.406 785.986 184.641 785.881 184.937C785.778 185.23 785.726 185.558 785.726 185.921C785.726 186.281 785.778 186.607 785.881 186.901C785.986 187.194 786.144 187.428 786.355 187.603C786.569 187.775 786.836 187.861 787.158 187.861Z" fill="#808080"/>
<rect x="716" y="226" width="88.6667" height="5" rx="2.5" fill="#E0E5F2"/>
<path fill-rule="evenodd" clip-rule="evenodd" d="M713.123 224.305C713.215 224.25 713.325 224.232 713.43 224.256C713.535 224.28 713.627 224.344 713.686 224.434L714.099 225.063C714.152 225.146 714.175 225.244 714.163 225.342C714.152 225.439 714.106 225.529 714.034 225.596L714.033 225.598L714.027 225.603L714.003 225.625L713.909 225.715C713.391 226.218 712.888 226.737 712.401 227.272C711.486 228.278 710.399 229.596 709.667 230.874C709.463 231.231 708.964 231.308 708.668 231L705.966 228.192C705.927 228.152 705.897 228.104 705.877 228.052C705.857 228 705.848 227.944 705.85 227.888C705.852 227.833 705.865 227.778 705.889 227.727C705.912 227.677 705.946 227.631 705.987 227.594L706.804 226.857C706.876 226.792 706.968 226.755 707.064 226.75C707.161 226.746 707.256 226.775 707.333 226.833L708.712 227.867C710.866 225.743 712.087 224.928 713.123 224.305Z" fill="#79D1E5"/>
<rect x="716" y="243" width="88.6667" height="5" rx="2.5" fill="#E0E5F2"/>
<path fill-rule="evenodd" clip-rule="evenodd" d="M713.123 241.305C713.215 241.25 713.325 241.232 713.43 241.256C713.535 241.28 713.627 241.344 713.686 241.434L714.099 242.063C714.152 242.146 714.175 242.244 714.163 242.342C714.152 242.439 714.106 242.529 714.034 242.596L714.033 242.598L714.027 242.603L714.003 242.625L713.909 242.715C713.391 243.218 712.888 243.737 712.401 244.272C711.486 245.278 710.399 246.596 709.667 247.874C709.463 248.231 708.964 248.308 708.668 248L705.966 245.192C705.927 245.152 705.897 245.104 705.877 245.052C705.857 245 705.848 244.944 705.85 244.888C705.852 244.833 705.865 244.778 705.889 244.727C705.912 244.677 705.946 244.631 705.987 244.594L706.804 243.857C706.876 243.792 706.968 243.755 707.064 243.75C707.161 243.746 707.256 243.775 707.333 243.833L708.712 244.867C710.866 242.743 712.087 241.928 713.123 241.305Z" fill="#79D1E5"/>
<rect x="716" y="260" width="88.6667" height="5" rx="2.5" fill="#E0E5F2"/>
<path fill-rule="evenodd" clip-rule="evenodd" d="M713.123 258.305C713.215 258.25 713.325 258.232 713.43 258.256C713.535 258.28 713.627 258.344 713.686 258.434L714.099 259.063C714.152 259.146 714.175 259.244 714.163 259.342C714.152 259.439 714.106 259.529 714.034 259.596L714.033 259.598L714.027 259.603L714.003 259.625L713.909 259.715C713.391 260.218 712.888 260.737 712.401 261.272C711.486 262.278 710.399 263.596 709.667 264.874C709.463 265.231 708.964 265.308 708.668 265L705.966 262.192C705.927 262.152 705.897 262.104 705.877 262.052C705.857 262 705.848 261.944 705.85 261.888C705.852 261.833 705.865 261.778 705.889 261.727C705.912 261.677 705.946 261.631 705.987 261.594L706.804 260.857C706.876 260.792 706.968 260.755 707.064 260.75C707.161 260.746 707.256 260.775 707.333 260.833L708.712 261.867C710.866 259.743 712.087 258.928 713.123 258.305Z" fill="#79D1E5"/>
<rect x="675" y="290.707" width="160" height="29.0218" rx="5.22317" fill="#2E911A"/>
<path fill-rule="evenodd" clip-rule="evenodd" d="M702.291 301.751C702.435 301.895 702.516 302.09 702.516 302.294C702.516 302.498 702.435 302.694 702.291 302.838L696.037 309.091C695.965 309.163 695.879 309.22 695.785 309.259C695.69 309.298 695.589 309.317 695.487 309.316C695.385 309.315 695.284 309.294 695.19 309.254C695.097 309.214 695.012 309.155 694.941 309.082L692.476 306.534C692.336 306.387 692.259 306.191 692.263 305.988C692.267 305.784 692.351 305.591 692.497 305.45C692.643 305.308 692.839 305.23 693.043 305.233C693.246 305.236 693.44 305.319 693.582 305.465L695.503 307.45L701.203 301.751C701.348 301.607 701.543 301.526 701.747 301.526C701.951 301.526 702.146 301.607 702.291 301.751Z" fill="white"/>
<path d="M709.611 308.217V302.14H711.89C712.357 302.14 712.749 302.227 713.065 302.401C713.384 302.575 713.624 302.814 713.787 303.119C713.951 303.422 714.033 303.766 714.033 304.152C714.033 304.541 713.951 304.888 713.787 305.19C713.622 305.493 713.38 305.731 713.06 305.906C712.739 306.078 712.344 306.164 711.875 306.164H710.365V305.259H711.727C712 305.259 712.224 305.211 712.398 305.116C712.572 305.021 712.7 304.891 712.784 304.724C712.869 304.558 712.911 304.367 712.911 304.152C712.911 303.936 712.869 303.746 712.784 303.582C712.7 303.418 712.571 303.29 712.395 303.199C712.221 303.106 711.996 303.06 711.721 303.06H710.712V308.217H709.611ZM714.942 308.217V303.659H715.983V304.419H716.031C716.114 304.156 716.257 303.953 716.458 303.81C716.662 303.666 716.895 303.594 717.156 303.594C717.215 303.594 717.281 303.597 717.355 303.603C717.43 303.607 717.492 303.613 717.542 303.623V304.612C717.496 304.596 717.424 304.582 717.325 304.57C717.228 304.556 717.134 304.549 717.043 304.549C716.847 304.549 716.671 304.592 716.515 304.677C716.36 304.76 716.239 304.876 716.15 305.024C716.061 305.173 716.016 305.344 716.016 305.538V308.217H714.942ZM720.056 308.306C719.611 308.306 719.225 308.209 718.899 308.013C718.572 307.817 718.319 307.543 718.139 307.191C717.961 306.838 717.872 306.427 717.872 305.956C717.872 305.485 717.961 305.073 718.139 304.718C718.319 304.364 718.572 304.089 718.899 303.893C719.225 303.698 719.611 303.6 720.056 303.6C720.501 303.6 720.887 303.698 721.213 303.893C721.54 304.089 721.792 304.364 721.97 304.718C722.15 305.073 722.24 305.485 722.24 305.956C722.24 306.427 722.15 306.838 721.97 307.191C721.792 307.543 721.54 307.817 721.213 308.013C720.887 308.209 720.501 308.306 720.056 308.306ZM720.062 307.446C720.303 307.446 720.505 307.38 720.667 307.247C720.83 307.112 720.95 306.932 721.029 306.707C721.11 306.481 721.151 306.23 721.151 305.953C721.151 305.674 721.11 305.422 721.029 305.196C720.95 304.969 720.83 304.788 720.667 304.653C720.505 304.519 720.303 304.451 720.062 304.451C719.815 304.451 719.609 304.519 719.445 304.653C719.282 304.788 719.161 304.969 719.08 305.196C719 305.422 718.961 305.674 718.961 305.953C718.961 306.23 719 306.481 719.08 306.707C719.161 306.932 719.282 307.112 719.445 307.247C719.609 307.38 719.815 307.446 720.062 307.446ZM725.461 303.659V304.49H722.766V303.659H725.461ZM723.44 308.217V303.229C723.44 302.922 723.503 302.667 723.63 302.463C723.758 302.259 723.931 302.107 724.146 302.006C724.362 301.905 724.601 301.855 724.864 301.855C725.05 301.855 725.216 301.869 725.36 301.899C725.504 301.929 725.611 301.956 725.68 301.979L725.467 302.81C725.421 302.796 725.364 302.783 725.295 302.769C725.225 302.753 725.148 302.745 725.063 302.745C724.863 302.745 724.722 302.793 724.639 302.89C724.558 302.985 724.517 303.122 724.517 303.3V308.217H723.44ZM726.302 308.217V303.659H727.377V308.217H726.302ZM726.842 303.012C726.672 303.012 726.526 302.956 726.403 302.843C726.28 302.728 726.219 302.591 726.219 302.43C726.219 302.268 726.28 302.131 726.403 302.018C726.526 301.903 726.672 301.846 726.842 301.846C727.014 301.846 727.161 301.903 727.282 302.018C727.404 302.131 727.466 302.268 727.466 302.43C727.466 302.591 727.404 302.728 727.282 302.843C727.161 302.956 727.014 303.012 726.842 303.012ZM729.556 302.14V308.217H728.481V302.14H729.556ZM732.678 308.306C732.221 308.306 731.827 308.211 731.494 308.022C731.164 307.83 730.91 307.559 730.732 307.208C730.553 306.856 730.464 306.442 730.464 305.965C730.464 305.496 730.553 305.084 730.732 304.73C730.912 304.374 731.163 304.097 731.485 303.899C731.808 303.7 732.187 303.6 732.622 303.6C732.903 303.6 733.168 303.645 733.417 303.736C733.669 303.825 733.89 303.964 734.082 304.152C734.276 304.34 734.428 304.579 734.539 304.87C734.65 305.159 734.705 305.503 734.705 305.903V306.232H730.969V305.508H733.676C733.674 305.302 733.629 305.119 733.542 304.959C733.455 304.797 733.333 304.669 733.177 304.576C733.023 304.483 732.843 304.437 732.637 304.437C732.417 304.437 732.224 304.49 732.058 304.597C731.892 304.702 731.762 304.84 731.669 305.012C731.578 305.182 731.532 305.369 731.53 305.573V306.205C731.53 306.47 731.578 306.698 731.675 306.888C731.772 307.076 731.908 307.22 732.082 307.321C732.256 307.42 732.46 307.47 732.693 307.47C732.849 307.47 732.991 307.448 733.118 307.404C733.244 307.359 733.354 307.292 733.447 307.205C733.54 307.118 733.61 307.011 733.658 306.882L734.661 306.995C734.597 307.26 734.477 307.491 734.299 307.689C734.123 307.885 733.897 308.037 733.622 308.146C733.347 308.253 733.033 308.306 732.678 308.306ZM741.038 303.81C741.01 303.551 740.893 303.349 740.687 303.205C740.484 303.061 740.219 302.988 739.892 302.988C739.663 302.988 739.466 303.023 739.302 303.092C739.137 303.161 739.012 303.255 738.925 303.374C738.838 303.493 738.793 303.628 738.791 303.781C738.791 303.907 738.82 304.017 738.877 304.11C738.937 304.203 739.017 304.282 739.118 304.348C739.218 304.411 739.33 304.464 739.453 304.508C739.576 304.551 739.699 304.588 739.824 304.618L740.394 304.76C740.623 304.813 740.844 304.886 741.055 304.977C741.269 305.068 741.46 305.182 741.628 305.321C741.798 305.459 741.933 305.627 742.032 305.822C742.131 306.018 742.18 306.248 742.18 306.511C742.18 306.867 742.089 307.181 741.907 307.452C741.725 307.721 741.462 307.932 741.118 308.084C740.776 308.234 740.361 308.309 739.874 308.309C739.401 308.309 738.991 308.236 738.643 308.09C738.296 307.943 738.025 307.73 737.83 307.449C737.636 307.168 737.531 306.826 737.515 306.422H738.598C738.614 306.634 738.679 306.81 738.794 306.95C738.909 307.091 739.058 307.196 739.242 307.265C739.428 307.334 739.636 307.369 739.865 307.369C740.105 307.369 740.315 307.333 740.495 307.262C740.677 307.189 740.819 307.088 740.922 306.959C741.025 306.829 741.077 306.676 741.079 306.502C741.077 306.344 741.031 306.213 740.94 306.11C740.849 306.005 740.721 305.918 740.557 305.849C740.395 305.778 740.205 305.715 739.987 305.659L739.296 305.481C738.795 305.353 738.399 305.158 738.109 304.897C737.82 304.633 737.675 304.284 737.675 303.849C737.675 303.491 737.772 303.177 737.966 302.908C738.162 302.639 738.428 302.43 738.764 302.282C739.101 302.132 739.482 302.056 739.907 302.056C740.338 302.056 740.716 302.132 741.041 302.282C741.367 302.43 741.623 302.637 741.809 302.902C741.995 303.165 742.091 303.468 742.097 303.81H741.038ZM746.02 306.3V303.659H747.094V308.217H746.052V307.407H746.005C745.902 307.662 745.733 307.871 745.497 308.033C745.264 308.196 744.976 308.277 744.634 308.277C744.335 308.277 744.071 308.21 743.841 308.078C743.614 307.943 743.436 307.749 743.307 307.493C743.179 307.236 743.114 306.925 743.114 306.561V303.659H744.189V306.395C744.189 306.684 744.268 306.914 744.426 307.084C744.584 307.254 744.792 307.339 745.049 307.339C745.208 307.339 745.361 307.3 745.509 307.223C745.658 307.146 745.779 307.031 745.874 306.879C745.971 306.725 746.02 306.532 746.02 306.3ZM750.187 308.306C749.732 308.306 749.341 308.207 749.015 308.007C748.69 307.807 748.44 307.531 748.264 307.179C748.09 306.825 748.003 306.417 748.003 305.956C748.003 305.493 748.092 305.084 748.27 304.73C748.448 304.374 748.699 304.097 749.024 303.899C749.35 303.7 749.736 303.6 750.181 303.6C750.551 303.6 750.879 303.668 751.163 303.804C751.45 303.939 751.679 304.13 751.849 304.377C752.019 304.623 752.116 304.909 752.14 305.238H751.113C751.071 305.018 750.973 304.835 750.816 304.689C750.662 304.54 750.455 304.466 750.196 304.466C749.976 304.466 749.784 304.526 749.617 304.644C749.451 304.761 749.322 304.929 749.229 305.149C749.138 305.368 749.092 305.632 749.092 305.938C749.092 306.249 749.138 306.516 749.229 306.739C749.32 306.961 749.447 307.132 749.611 307.253C749.778 307.372 749.972 307.431 750.196 307.431C750.354 307.431 750.496 307.401 750.62 307.342C750.747 307.281 750.853 307.193 750.938 307.078C751.023 306.963 751.081 306.824 751.113 306.659H752.14C752.114 306.982 752.019 307.268 751.855 307.517C751.691 307.764 751.467 307.958 751.184 308.099C750.901 308.237 750.569 308.306 750.187 308.306ZM755.01 308.306C754.555 308.306 754.165 308.207 753.838 308.007C753.514 307.807 753.263 307.531 753.087 307.179C752.913 306.825 752.826 306.417 752.826 305.956C752.826 305.493 752.915 305.084 753.093 304.73C753.271 304.374 753.523 304.097 753.847 303.899C754.173 303.7 754.559 303.6 755.004 303.6C755.374 303.6 755.702 303.668 755.987 303.804C756.274 303.939 756.502 304.13 756.672 304.377C756.842 304.623 756.939 304.909 756.963 305.238H755.936C755.895 305.018 755.796 304.835 755.64 304.689C755.485 304.54 755.278 304.466 755.019 304.466C754.8 304.466 754.607 304.526 754.441 304.644C754.274 304.761 754.145 304.929 754.052 305.149C753.961 305.368 753.915 305.632 753.915 305.938C753.915 306.249 753.961 306.516 754.052 306.739C754.143 306.961 754.27 307.132 754.435 307.253C754.601 307.372 754.796 307.431 755.019 307.431C755.178 307.431 755.319 307.401 755.444 307.342C755.57 307.281 755.676 307.193 755.761 307.078C755.846 306.963 755.905 306.824 755.936 306.659H756.963C756.937 306.982 756.842 307.268 756.678 307.517C756.514 307.764 756.29 307.958 756.008 308.099C755.725 308.237 755.392 308.306 755.01 308.306ZM759.863 308.306C759.406 308.306 759.012 308.211 758.679 308.022C758.349 307.83 758.095 307.559 757.917 307.208C757.738 306.856 757.649 306.442 757.649 305.965C757.649 305.496 757.738 305.084 757.917 304.73C758.097 304.374 758.348 304.097 758.67 303.899C758.993 303.7 759.372 303.6 759.807 303.6C760.088 303.6 760.353 303.645 760.602 303.736C760.854 303.825 761.075 303.964 761.267 304.152C761.461 304.34 761.613 304.579 761.724 304.87C761.835 305.159 761.89 305.503 761.89 305.903V306.232H758.154V305.508H760.86C760.859 305.302 760.814 305.119 760.727 304.959C760.64 304.797 760.518 304.669 760.362 304.576C760.208 304.483 760.028 304.437 759.822 304.437C759.602 304.437 759.409 304.49 759.243 304.597C759.077 304.702 758.947 304.84 758.854 305.012C758.763 305.182 758.717 305.369 758.715 305.573V306.205C758.715 306.47 758.763 306.698 758.86 306.888C758.957 307.076 759.093 307.22 759.267 307.321C759.441 307.42 759.645 307.47 759.878 307.47C760.034 307.47 760.176 307.448 760.303 307.404C760.429 307.359 760.539 307.292 760.632 307.205C760.725 307.118 760.795 307.011 760.843 306.882L761.846 306.995C761.782 307.26 761.662 307.491 761.484 307.689C761.308 307.885 761.082 308.037 760.807 308.146C760.532 308.253 760.217 308.306 759.863 308.306ZM766.402 304.864L765.423 304.971C765.395 304.872 765.346 304.779 765.277 304.692C765.21 304.605 765.119 304.534 765.004 304.481C764.889 304.428 764.749 304.401 764.583 304.401C764.359 304.401 764.171 304.449 764.019 304.546C763.869 304.643 763.794 304.769 763.796 304.923C763.794 305.056 763.843 305.164 763.942 305.247C764.043 305.33 764.209 305.398 764.44 305.452L765.218 305.618C765.649 305.711 765.97 305.858 766.179 306.06C766.391 306.262 766.498 306.526 766.5 306.852C766.498 307.139 766.414 307.392 766.248 307.612C766.083 307.83 765.855 308 765.562 308.122C765.269 308.245 764.933 308.306 764.553 308.306C763.995 308.306 763.546 308.19 763.206 307.956C762.865 307.721 762.663 307.393 762.597 306.974L763.645 306.873C763.692 307.079 763.793 307.234 763.948 307.339C764.102 307.444 764.303 307.496 764.55 307.496C764.805 307.496 765.01 307.444 765.164 307.339C765.321 307.234 765.399 307.105 765.399 306.95C765.399 306.82 765.348 306.712 765.248 306.627C765.149 306.542 764.994 306.476 764.785 306.431L764.007 306.268C763.57 306.177 763.246 306.023 763.037 305.808C762.827 305.59 762.723 305.315 762.725 304.983C762.723 304.702 762.799 304.458 762.953 304.253C763.11 304.045 763.326 303.885 763.603 303.772C763.882 303.657 764.204 303.6 764.568 303.6C765.102 303.6 765.523 303.713 765.829 303.941C766.138 304.168 766.329 304.476 766.402 304.864ZM770.989 304.864L770.009 304.971C769.982 304.872 769.933 304.779 769.864 304.692C769.797 304.605 769.706 304.534 769.591 304.481C769.476 304.428 769.336 304.401 769.169 304.401C768.946 304.401 768.758 304.449 768.605 304.546C768.455 304.643 768.381 304.769 768.383 304.923C768.381 305.056 768.429 305.164 768.528 305.247C768.629 305.33 768.795 305.398 769.027 305.452L769.804 305.618C770.236 305.711 770.556 305.858 770.766 306.06C770.978 306.262 771.085 306.526 771.086 306.852C771.085 307.139 771 307.392 770.834 307.612C770.67 307.83 770.441 308 770.149 308.122C769.856 308.245 769.52 308.306 769.14 308.306C768.582 308.306 768.133 308.19 767.792 307.956C767.452 307.721 767.249 307.393 767.184 306.974L768.232 306.873C768.279 307.079 768.38 307.234 768.534 307.339C768.689 307.444 768.889 307.496 769.137 307.496C769.392 307.496 769.597 307.444 769.751 307.339C769.907 307.234 769.985 307.105 769.985 306.95C769.985 306.82 769.935 306.712 769.834 306.627C769.735 306.542 769.581 306.476 769.371 306.431L768.594 306.268C768.156 306.177 767.833 306.023 767.623 305.808C767.413 305.59 767.31 305.315 767.312 304.983C767.31 304.702 767.386 304.458 767.54 304.253C767.696 304.045 767.913 303.885 768.19 303.772C768.469 303.657 768.79 303.6 769.155 303.6C769.689 303.6 770.109 303.713 770.416 303.941C770.724 304.168 770.915 304.476 770.989 304.864ZM774.281 303.659V304.49H771.587V303.659H774.281ZM772.26 308.217V303.229C772.26 302.922 772.324 302.667 772.45 302.463C772.579 302.259 772.751 302.107 772.967 302.006C773.182 301.905 773.422 301.855 773.685 301.855C773.871 301.855 774.036 301.869 774.18 301.899C774.325 301.929 774.432 301.956 774.501 301.979L774.287 302.81C774.242 302.796 774.184 302.783 774.115 302.769C774.046 302.753 773.969 302.745 773.884 302.745C773.684 302.745 773.542 302.793 773.459 302.89C773.378 302.985 773.337 303.122 773.337 303.3V308.217H772.26ZM778.028 306.3V303.659H779.102V308.217H778.061V307.407H778.013C777.91 307.662 777.741 307.871 777.506 308.033C777.272 308.196 776.984 308.277 776.642 308.277C776.343 308.277 776.079 308.21 775.85 308.078C775.622 307.943 775.444 307.749 775.315 307.493C775.187 307.236 775.123 306.925 775.123 306.561V303.659H776.197V306.395C776.197 306.684 776.276 306.914 776.434 307.084C776.593 307.254 776.8 307.339 777.058 307.339C777.216 307.339 777.369 307.3 777.518 307.223C777.666 307.146 777.788 307.031 777.883 306.879C777.979 306.725 778.028 306.532 778.028 306.3ZM781.281 302.14V308.217H780.207V302.14H781.281ZM783.46 302.14V308.217H782.386V302.14H783.46ZM791.888 304.19H790.778C790.746 304.008 790.688 303.847 790.603 303.706C790.518 303.564 790.412 303.443 790.285 303.344C790.159 303.246 790.014 303.171 789.852 303.122C789.692 303.07 789.519 303.045 789.333 303.045C789.002 303.045 788.71 303.128 788.454 303.294C788.199 303.458 787.999 303.7 787.855 304.018C787.71 304.335 787.638 304.721 787.638 305.178C787.638 305.643 787.71 306.035 787.855 306.354C788.001 306.67 788.201 306.91 788.454 307.072C788.71 307.232 789.001 307.312 789.33 307.312C789.512 307.312 789.682 307.289 789.84 307.241C790 307.192 790.144 307.119 790.271 307.024C790.399 306.929 790.507 306.813 790.594 306.674C790.683 306.536 790.744 306.377 790.778 306.199L791.888 306.205C791.846 306.494 791.756 306.765 791.618 307.018C791.481 307.272 791.302 307.495 791.081 307.689C790.859 307.881 790.6 308.031 790.303 308.14C790.006 308.247 789.677 308.301 789.315 308.301C788.781 308.301 788.304 308.177 787.884 307.93C787.465 307.682 787.135 307.325 786.893 306.858C786.652 306.391 786.531 305.831 786.531 305.178C786.531 304.524 786.653 303.964 786.896 303.499C787.14 303.032 787.471 302.675 787.89 302.427C788.31 302.18 788.785 302.056 789.315 302.056C789.653 302.056 789.968 302.104 790.259 302.199C790.549 302.294 790.809 302.433 791.036 302.617C791.264 302.799 791.451 303.023 791.597 303.288C791.745 303.551 791.842 303.852 791.888 304.19ZM792.849 308.217V303.659H793.89V304.419H793.938C794.021 304.156 794.163 303.953 794.365 303.81C794.569 303.666 794.801 303.594 795.063 303.594C795.122 303.594 795.188 303.597 795.261 303.603C795.337 303.607 795.399 303.613 795.448 303.623V304.612C795.403 304.596 795.331 304.582 795.232 304.57C795.135 304.556 795.041 304.549 794.95 304.549C794.754 304.549 794.578 304.592 794.422 304.677C794.267 304.76 794.146 304.876 794.057 305.024C793.968 305.173 793.923 305.344 793.923 305.538V308.217H792.849ZM797.992 308.306C797.535 308.306 797.141 308.211 796.808 308.022C796.478 307.83 796.224 307.559 796.046 307.208C795.868 306.856 795.779 306.442 795.779 305.965C795.779 305.496 795.868 305.084 796.046 304.73C796.226 304.374 796.477 304.097 796.799 303.899C797.122 303.7 797.501 303.6 797.936 303.6C798.217 303.6 798.482 303.645 798.731 303.736C798.983 303.825 799.204 303.964 799.396 304.152C799.59 304.34 799.742 304.579 799.853 304.87C799.964 305.159 800.019 305.503 800.019 305.903V306.232H796.283V305.508H798.99C798.988 305.302 798.943 305.119 798.856 304.959C798.769 304.797 798.647 304.669 798.491 304.576C798.337 304.483 798.157 304.437 797.951 304.437C797.731 304.437 797.538 304.49 797.372 304.597C797.206 304.702 797.076 304.84 796.983 305.012C796.892 305.182 796.846 305.369 796.844 305.573V306.205C796.844 306.47 796.892 306.698 796.989 306.888C797.086 307.076 797.222 307.22 797.396 307.321C797.57 307.42 797.774 307.47 798.007 307.47C798.164 307.47 798.305 307.448 798.432 307.404C798.558 307.359 798.668 307.292 798.761 307.205C798.854 307.118 798.924 307.011 798.972 306.882L799.975 306.995C799.912 307.26 799.791 307.491 799.613 307.689C799.437 307.885 799.211 308.037 798.936 308.146C798.661 308.253 798.347 308.306 797.992 308.306ZM802.24 308.309C801.951 308.309 801.691 308.258 801.46 308.155C801.23 308.05 801.048 307.896 800.913 307.692C800.781 307.488 800.715 307.237 800.715 306.938C800.715 306.681 800.762 306.468 800.857 306.3C800.952 306.132 801.082 305.998 801.246 305.897C801.41 305.796 801.595 305.72 801.801 305.668C802.009 305.615 802.223 305.576 802.445 305.552C802.712 305.525 802.929 305.5 803.095 305.478C803.261 305.454 803.382 305.419 803.457 305.371C803.534 305.322 803.573 305.246 803.573 305.143V305.125C803.573 304.901 803.506 304.728 803.374 304.606C803.241 304.483 803.05 304.422 802.801 304.422C802.538 304.422 802.329 304.479 802.175 304.594C802.022 304.709 801.92 304.844 801.866 305L800.863 304.858C800.942 304.581 801.073 304.349 801.255 304.164C801.437 303.976 801.659 303.835 801.922 303.742C802.186 303.647 802.476 303.6 802.795 303.6C803.015 303.6 803.233 303.625 803.451 303.677C803.668 303.728 803.867 303.813 804.047 303.932C804.227 304.049 804.372 304.208 804.481 304.41C804.591 304.612 804.647 304.864 804.647 305.167V308.217H803.614V307.591H803.578C803.513 307.718 803.421 307.837 803.302 307.947C803.186 308.056 803.038 308.144 802.86 308.211C802.684 308.277 802.477 308.309 802.24 308.309ZM802.519 307.52C802.735 307.52 802.922 307.477 803.08 307.392C803.238 307.305 803.36 307.191 803.445 307.048C803.532 306.906 803.576 306.75 803.576 306.582V306.045C803.542 306.073 803.484 306.098 803.403 306.122C803.324 306.146 803.235 306.167 803.136 306.185C803.037 306.202 802.939 306.218 802.842 306.232C802.746 306.246 802.661 306.258 802.59 306.268C802.43 306.289 802.287 306.325 802.16 306.374C802.033 306.424 801.933 306.493 801.86 306.582C801.787 306.669 801.75 306.782 801.75 306.921C801.75 307.118 801.823 307.268 801.967 307.369C802.111 307.47 802.295 307.52 802.519 307.52ZM808.003 303.659V304.49H805.383V303.659H808.003ZM806.03 302.567H807.104V306.846C807.104 306.991 807.126 307.102 807.169 307.179C807.215 307.254 807.274 307.305 807.347 307.333C807.421 307.361 807.502 307.375 807.591 307.375C807.658 307.375 807.719 307.37 807.775 307.36C807.832 307.35 807.876 307.341 807.905 307.333L808.086 308.173C808.029 308.193 807.947 308.214 807.84 308.238C807.735 308.262 807.607 308.276 807.454 308.28C807.185 308.288 806.943 308.247 806.727 308.158C806.512 308.067 806.34 307.927 806.214 307.737C806.089 307.547 806.028 307.309 806.03 307.024V302.567ZM810.871 308.306C810.414 308.306 810.019 308.211 809.687 308.022C809.356 307.83 809.102 307.559 808.924 307.208C808.746 306.856 808.657 306.442 808.657 305.965C808.657 305.496 808.746 305.084 808.924 304.73C809.104 304.374 809.355 304.097 809.678 303.899C810 303.7 810.379 303.6 810.814 303.6C811.095 303.6 811.361 303.645 811.61 303.736C811.861 303.825 812.083 303.964 812.275 304.152C812.468 304.34 812.621 304.579 812.732 304.87C812.842 305.159 812.898 305.503 812.898 305.903V306.232H809.161V305.508H811.868C811.866 305.302 811.822 305.119 811.734 304.959C811.647 304.797 811.526 304.669 811.369 304.576C811.215 304.483 811.035 304.437 810.829 304.437C810.61 304.437 810.417 304.49 810.251 304.597C810.084 304.702 809.955 304.84 809.862 305.012C809.771 305.182 809.724 305.369 809.722 305.573V306.205C809.722 306.47 809.771 306.698 809.868 306.888C809.965 307.076 810.1 307.22 810.274 307.321C810.448 307.42 810.652 307.47 810.886 307.47C811.042 307.47 811.183 307.448 811.31 307.404C811.437 307.359 811.547 307.292 811.64 307.205C811.733 307.118 811.803 307.011 811.85 306.882L812.853 306.995C812.79 307.26 812.669 307.491 812.491 307.689C812.315 307.885 812.09 308.037 811.815 308.146C811.54 308.253 811.225 308.306 810.871 308.306ZM815.498 308.298C815.14 308.298 814.82 308.206 814.537 308.022C814.254 307.838 814.03 307.57 813.866 307.22C813.702 306.87 813.62 306.445 813.62 305.944C813.62 305.438 813.703 305.01 813.869 304.662C814.037 304.312 814.264 304.048 814.549 303.87C814.834 303.69 815.151 303.6 815.501 303.6C815.768 303.6 815.988 303.645 816.16 303.736C816.332 303.825 816.469 303.933 816.57 304.06C816.671 304.184 816.749 304.302 816.804 304.413H816.849V302.14H817.926V308.217H816.869V307.499H816.804C816.749 307.61 816.669 307.728 816.564 307.852C816.459 307.975 816.32 308.08 816.148 308.167C815.976 308.254 815.759 308.298 815.498 308.298ZM815.798 307.416C816.026 307.416 816.219 307.355 816.38 307.232C816.54 307.107 816.662 306.934 816.745 306.713C816.828 306.491 816.869 306.233 816.869 305.938C816.869 305.643 816.828 305.387 816.745 305.17C816.664 304.952 816.543 304.783 816.383 304.662C816.224 304.541 816.03 304.481 815.798 304.481C815.559 304.481 815.359 304.543 815.199 304.668C815.038 304.793 814.918 304.965 814.836 305.184C814.755 305.404 814.715 305.655 814.715 305.938C814.715 306.223 814.755 306.477 814.836 306.701C814.92 306.922 815.041 307.098 815.202 307.226C815.364 307.353 815.563 307.416 815.798 307.416Z" fill="white"/>
</svg>
