<svg width="302" height="362" viewBox="0 0 302 362" fill="none" xmlns="http://www.w3.org/2000/svg">
<g transform="translate(-302, 0)">
<rect x="322" y="20" width="262" height="322" rx="24" fill="#F2F5FD"/>
<path fill-rule="evenodd" clip-rule="evenodd" d="M453 51.8334C459.457 51.8333 465.85 53.1051 471.815 55.5759C477.781 58.0467 483.201 61.6683 487.766 66.2339C492.332 70.7994 495.953 76.2195 498.424 82.1847C500.895 88.1499 502.167 94.5433 502.167 101C502.167 128.154 480.154 150.167 453 150.167C425.846 150.167 403.833 128.154 403.833 101C403.833 73.8461 425.846 51.8334 453 51.8334ZM457.917 105.917H448.083C435.911 105.917 425.461 113.289 420.954 123.812C428.085 133.812 439.781 140.333 453 140.333C466.219 140.333 477.915 133.812 485.047 123.812C480.539 113.289 470.089 105.917 457.917 105.917ZM453 66.5834C444.854 66.5834 438.25 73.1872 438.25 81.3334C438.25 89.4795 444.854 96.0834 453 96.0834C461.146 96.0834 467.75 89.4795 467.75 81.3334C467.75 73.1872 461.146 66.5834 453 66.5834Z" fill="#79D1E5"/>
<rect x="398" y="167" width="110" height="35.7284" rx="6.79012" fill="#3A2F7E"/>
<path d="M423.303 180.963H424.734V186.125C424.734 186.691 424.6 187.189 424.333 187.618C424.068 188.048 423.695 188.383 423.214 188.625C422.733 188.864 422.171 188.984 421.528 188.984C420.883 188.984 420.319 188.864 419.838 188.625C419.357 188.383 418.984 188.048 418.72 187.618C418.455 187.189 418.322 186.691 418.322 186.125V180.963H419.753V186.005C419.753 186.335 419.825 186.628 419.97 186.885C420.116 187.142 420.322 187.344 420.587 187.491C420.852 187.635 421.166 187.707 421.528 187.707C421.891 187.707 422.205 187.635 422.47 187.491C422.737 187.344 422.943 187.142 423.087 186.885C423.231 186.628 423.303 186.335 423.303 186.005V180.963ZM426.228 191.086V182.938H427.602V183.918H427.683C427.755 183.774 427.856 183.621 427.987 183.459C428.119 183.295 428.296 183.154 428.52 183.039C428.744 182.92 429.029 182.861 429.376 182.861C429.834 182.861 430.247 182.978 430.615 183.212C430.985 183.444 431.278 183.787 431.494 184.242C431.713 184.695 431.822 185.251 431.822 185.909C431.822 186.56 431.716 187.113 431.502 187.568C431.289 188.023 430.998 188.37 430.63 188.61C430.262 188.849 429.846 188.968 429.38 188.968C429.041 188.968 428.759 188.912 428.535 188.799C428.312 188.686 428.131 188.549 427.995 188.39C427.861 188.228 427.757 188.075 427.683 187.931H427.625V191.086H426.228ZM427.598 185.901C427.598 186.285 427.652 186.62 427.76 186.908C427.87 187.196 428.029 187.421 428.234 187.583C428.443 187.743 428.695 187.823 428.991 187.823C429.299 187.823 429.558 187.74 429.766 187.576C429.974 187.408 430.131 187.181 430.237 186.893C430.345 186.602 430.399 186.272 430.399 185.901C430.399 185.533 430.346 185.207 430.241 184.921C430.135 184.636 429.978 184.412 429.77 184.25C429.562 184.088 429.302 184.007 428.991 184.007C428.692 184.007 428.439 184.085 428.231 184.242C428.022 184.399 427.864 184.619 427.756 184.902C427.651 185.185 427.598 185.518 427.598 185.901ZM434.415 180.963V188.864H433.018V180.963H434.415ZM438.436 188.98C437.857 188.98 437.356 188.853 436.931 188.598C436.507 188.343 436.178 187.987 435.944 187.529C435.712 187.072 435.596 186.537 435.596 185.924C435.596 185.312 435.712 184.776 435.944 184.316C436.178 183.855 436.507 183.498 436.931 183.243C437.356 182.988 437.857 182.861 438.436 182.861C439.015 182.861 439.516 182.988 439.941 183.243C440.365 183.498 440.693 183.855 440.924 184.316C441.158 184.776 441.275 185.312 441.275 185.924C441.275 186.537 441.158 187.072 440.924 187.529C440.693 187.987 440.365 188.343 439.941 188.598C439.516 188.853 439.015 188.98 438.436 188.98ZM438.444 187.861C438.757 187.861 439.02 187.775 439.231 187.603C439.442 187.428 439.599 187.194 439.701 186.901C439.807 186.607 439.86 186.281 439.86 185.921C439.86 185.558 439.807 185.23 439.701 184.937C439.599 184.641 439.442 184.406 439.231 184.231C439.02 184.056 438.757 183.968 438.444 183.968C438.122 183.968 437.855 184.056 437.641 184.231C437.43 184.406 437.272 184.641 437.167 184.937C437.064 185.23 437.012 185.558 437.012 185.921C437.012 186.281 437.064 186.607 437.167 186.901C437.272 187.194 437.43 187.428 437.641 187.603C437.855 187.775 438.122 187.861 438.444 187.861ZM444.166 188.984C443.791 188.984 443.452 188.917 443.151 188.783C442.853 188.647 442.616 188.446 442.442 188.181C442.269 187.916 442.183 187.59 442.183 187.201C442.183 186.867 442.245 186.591 442.368 186.372C442.492 186.153 442.66 185.978 442.874 185.847C443.087 185.716 443.328 185.617 443.595 185.55C443.865 185.481 444.144 185.431 444.432 185.4C444.78 185.364 445.061 185.332 445.277 185.303C445.493 185.272 445.65 185.226 445.748 185.164C445.848 185.1 445.898 185.001 445.898 184.867V184.844C445.898 184.554 445.812 184.329 445.64 184.169C445.468 184.01 445.219 183.93 444.895 183.93C444.553 183.93 444.282 184.004 444.081 184.154C443.883 184.303 443.749 184.479 443.68 184.682L442.376 184.497C442.479 184.137 442.649 183.836 442.885 183.594C443.122 183.35 443.411 183.167 443.753 183.046C444.095 182.923 444.473 182.861 444.888 182.861C445.173 182.861 445.457 182.895 445.74 182.961C446.023 183.028 446.282 183.139 446.516 183.293C446.75 183.445 446.937 183.652 447.079 183.914C447.223 184.177 447.295 184.505 447.295 184.898V188.864H445.952V188.05H445.906C445.821 188.215 445.702 188.369 445.547 188.513C445.396 188.655 445.204 188.769 444.972 188.857C444.744 188.941 444.475 188.984 444.166 188.984ZM444.529 187.958C444.809 187.958 445.052 187.902 445.258 187.792C445.464 187.679 445.622 187.529 445.732 187.344C445.846 187.159 445.902 186.957 445.902 186.738V186.04C445.858 186.076 445.784 186.11 445.678 186.14C445.576 186.171 445.46 186.198 445.331 186.222C445.203 186.245 445.075 186.265 444.949 186.283C444.823 186.301 444.714 186.317 444.621 186.33C444.413 186.358 444.227 186.404 444.062 186.468C443.897 186.533 443.767 186.623 443.672 186.738C443.577 186.852 443.53 186.998 443.53 187.178C443.53 187.436 443.623 187.63 443.811 187.761C443.999 187.892 444.238 187.958 444.529 187.958ZM450.898 188.968C450.433 188.968 450.016 188.849 449.648 188.61C449.281 188.37 448.99 188.023 448.776 187.568C448.563 187.113 448.456 186.56 448.456 185.909C448.456 185.251 448.564 184.695 448.78 184.242C448.999 183.787 449.293 183.444 449.664 183.212C450.034 182.978 450.447 182.861 450.902 182.861C451.249 182.861 451.535 182.92 451.759 183.039C451.982 183.154 452.16 183.295 452.291 183.459C452.422 183.621 452.524 183.774 452.596 183.918H452.654V180.963H454.054V188.864H452.681V187.931H452.596C452.524 188.075 452.42 188.228 452.283 188.39C452.147 188.549 451.967 188.686 451.743 188.799C451.519 188.912 451.238 188.968 450.898 188.968ZM451.288 187.823C451.584 187.823 451.836 187.743 452.044 187.583C452.253 187.421 452.411 187.196 452.519 186.908C452.627 186.62 452.681 186.285 452.681 185.901C452.681 185.518 452.627 185.185 452.519 184.902C452.413 184.619 452.256 184.399 452.048 184.242C451.842 184.085 451.589 184.007 451.288 184.007C450.977 184.007 450.717 184.088 450.509 184.25C450.3 184.412 450.143 184.636 450.038 184.921C449.933 185.207 449.88 185.533 449.88 185.901C449.88 186.272 449.933 186.602 450.038 186.893C450.146 187.181 450.304 187.408 450.513 187.576C450.723 187.74 450.982 187.823 451.288 187.823ZM458.299 188.864V180.963H461.262C461.869 180.963 462.378 181.076 462.79 181.303C463.204 181.529 463.516 181.84 463.727 182.236C463.941 182.63 464.047 183.077 464.047 183.579C464.047 184.085 463.941 184.536 463.727 184.929C463.514 185.323 463.199 185.633 462.782 185.859C462.365 186.083 461.852 186.195 461.243 186.195H459.279V185.018H461.05C461.405 185.018 461.695 184.956 461.922 184.833C462.148 184.709 462.315 184.539 462.423 184.323C462.534 184.107 462.589 183.859 462.589 183.579C462.589 183.298 462.534 183.052 462.423 182.838C462.315 182.625 462.147 182.459 461.918 182.34C461.691 182.219 461.4 182.159 461.042 182.159H459.73V188.864H458.299ZM466.626 185.392V188.864H465.229V180.963H466.595V183.945H466.664C466.803 183.611 467.018 183.347 467.308 183.154C467.602 182.959 467.975 182.861 468.427 182.861C468.839 182.861 469.198 182.947 469.504 183.12C469.81 183.292 470.046 183.544 470.214 183.876C470.383 184.208 470.468 184.613 470.468 185.091V188.864H469.072V185.307C469.072 184.908 468.969 184.599 468.763 184.377C468.56 184.154 468.274 184.042 467.906 184.042C467.66 184.042 467.438 184.096 467.243 184.204C467.05 184.309 466.898 184.462 466.788 184.663C466.68 184.863 466.626 185.107 466.626 185.392ZM474.477 188.98C473.898 188.98 473.396 188.853 472.972 188.598C472.548 188.343 472.218 187.987 471.984 187.529C471.753 187.072 471.637 186.537 471.637 185.924C471.637 185.312 471.753 184.776 471.984 184.316C472.218 183.855 472.548 183.498 472.972 183.243C473.396 182.988 473.898 182.861 474.477 182.861C475.055 182.861 475.557 182.988 475.981 183.243C476.406 183.498 476.734 183.855 476.965 184.316C477.199 184.776 477.316 185.312 477.316 185.924C477.316 186.537 477.199 187.072 476.965 187.529C476.734 187.987 476.406 188.343 475.981 188.598C475.557 188.853 475.055 188.98 474.477 188.98ZM474.484 187.861C474.798 187.861 475.061 187.775 475.271 187.603C475.482 187.428 475.639 187.194 475.742 186.901C475.848 186.607 475.9 186.281 475.9 185.921C475.9 185.558 475.848 185.23 475.742 184.937C475.639 184.641 475.482 184.406 475.271 184.231C475.061 184.056 474.798 183.968 474.484 183.968C474.163 183.968 473.895 184.056 473.682 184.231C473.471 184.406 473.313 184.641 473.207 184.937C473.104 185.23 473.053 185.558 473.053 185.921C473.053 186.281 473.104 186.607 473.207 186.901C473.313 187.194 473.471 187.428 473.682 187.603C473.895 187.775 474.163 187.861 474.484 187.861ZM481.461 182.938V184.019H478.054V182.938H481.461ZM478.895 181.519H480.292V187.082C480.292 187.27 480.32 187.414 480.377 187.514C480.436 187.612 480.513 187.679 480.608 187.715C480.703 187.751 480.809 187.769 480.924 187.769C481.012 187.769 481.092 187.762 481.164 187.749C481.238 187.736 481.295 187.725 481.333 187.715L481.569 188.806C481.494 188.832 481.387 188.86 481.248 188.891C481.112 188.922 480.945 188.94 480.747 188.945C480.397 188.956 480.082 188.903 479.802 188.787C479.521 188.669 479.299 188.486 479.134 188.239C478.972 187.992 478.892 187.684 478.895 187.313V181.519ZM485.15 188.98C484.571 188.98 484.07 188.853 483.645 188.598C483.221 188.343 482.892 187.987 482.658 187.529C482.426 187.072 482.31 186.537 482.31 185.924C482.31 185.312 482.426 184.776 482.658 184.316C482.892 183.855 483.221 183.498 483.645 183.243C484.07 182.988 484.571 182.861 485.15 182.861C485.729 182.861 486.23 182.988 486.655 183.243C487.079 183.498 487.407 183.855 487.638 184.316C487.872 184.776 487.989 185.312 487.989 185.924C487.989 186.537 487.872 187.072 487.638 187.529C487.407 187.987 487.079 188.343 486.655 188.598C486.23 188.853 485.729 188.98 485.15 188.98ZM485.158 187.861C485.471 187.861 485.734 187.775 485.945 187.603C486.156 187.428 486.312 187.194 486.415 186.901C486.521 186.607 486.574 186.281 486.574 185.921C486.574 185.558 486.521 185.23 486.415 184.937C486.312 184.641 486.156 184.406 485.945 184.231C485.734 184.056 485.471 183.968 485.158 183.968C484.836 183.968 484.569 184.056 484.355 184.231C484.144 184.406 483.986 184.641 483.881 184.937C483.778 185.23 483.726 185.558 483.726 185.921C483.726 186.281 483.778 186.607 483.881 186.901C483.986 187.194 484.144 187.428 484.355 187.603C484.569 187.775 484.836 187.861 485.158 187.861Z" fill="white"/>
<rect x="414" y="226" width="88.6667" height="5" rx="2.5" fill="#E0E5F2"/>
<path fill-rule="evenodd" clip-rule="evenodd" d="M411.123 224.305C411.215 224.25 411.325 224.232 411.43 224.256C411.535 224.28 411.627 224.344 411.686 224.434L412.099 225.063C412.152 225.146 412.175 225.244 412.163 225.342C412.152 225.439 412.106 225.529 412.034 225.596L412.033 225.598L412.027 225.603L412.003 225.625L411.909 225.715C411.391 226.218 410.888 226.737 410.401 227.272C409.486 228.278 408.399 229.596 407.667 230.874C407.463 231.231 406.964 231.308 406.668 231L403.966 228.192C403.927 228.152 403.897 228.104 403.877 228.052C403.857 228 403.848 227.944 403.85 227.888C403.852 227.833 403.865 227.778 403.889 227.727C403.912 227.677 403.946 227.631 403.987 227.594L404.804 226.857C404.876 226.792 404.968 226.755 405.064 226.75C405.161 226.746 405.256 226.775 405.333 226.833L406.712 227.867C408.866 225.743 410.087 224.928 411.123 224.305Z" fill="#79D1E5"/>
<rect x="414" y="243" width="88.6667" height="5" rx="2.5" fill="#E0E5F2"/>
<path fill-rule="evenodd" clip-rule="evenodd" d="M411.123 241.305C411.215 241.25 411.325 241.232 411.43 241.256C411.535 241.28 411.627 241.344 411.686 241.434L412.099 242.063C412.152 242.146 412.175 242.244 412.163 242.342C412.152 242.439 412.106 242.529 412.034 242.596L412.033 242.598L412.027 242.603L412.003 242.625L411.909 242.715C411.391 243.218 410.888 243.737 410.401 244.272C409.486 245.278 408.399 246.596 407.667 247.874C407.463 248.231 406.964 248.308 406.668 248L403.966 245.192C403.927 245.152 403.897 245.104 403.877 245.052C403.857 245 403.848 244.944 403.85 244.888C403.852 244.833 403.865 244.778 403.889 244.727C403.912 244.677 403.946 244.631 403.987 244.594L404.804 243.857C404.876 243.792 404.968 243.755 405.064 243.75C405.161 243.746 405.256 243.775 405.333 243.833L406.712 244.867C408.866 242.743 410.087 241.928 411.123 241.305Z" fill="#79D1E5"/>
<rect x="414" y="260" width="88.6667" height="5" rx="2.5" fill="#E0E5F2"/>
<path fill-rule="evenodd" clip-rule="evenodd" d="M411.123 258.305C411.215 258.25 411.325 258.232 411.43 258.256C411.535 258.28 411.627 258.344 411.686 258.434L412.099 259.063C412.152 259.146 412.175 259.244 412.163 259.342C412.152 259.439 412.106 259.529 412.034 259.596L412.033 259.598L412.027 259.603L412.003 259.625L411.909 259.715C411.391 260.218 410.888 260.737 410.401 261.272C409.486 262.278 408.399 263.596 407.667 264.874C407.463 265.231 406.964 265.308 406.668 265L403.966 262.192C403.927 262.152 403.897 262.104 403.877 262.052C403.857 262 403.848 261.944 403.85 261.888C403.852 261.833 403.865 261.778 403.889 261.727C403.912 261.677 403.946 261.631 403.987 261.594L404.804 260.857C404.876 260.792 404.968 260.755 405.064 260.75C405.161 260.746 405.256 260.775 405.333 260.833L406.712 261.867C408.866 259.743 410.087 258.928 411.123 258.305Z" fill="#79D1E5"/>
</g>
</svg>
