<svg width="302" height="362" viewBox="0 0 302 362" fill="none" xmlns="http://www.w3.org/2000/svg">
<rect x="20" y="20" width="262" height="322" rx="24" fill="#F2F5FD"/>
<path fill-rule="evenodd" clip-rule="evenodd" d="M151 51.8334C157.457 51.8333 163.85 53.1051 169.815 55.5759C175.781 58.0467 181.201 61.6683 185.766 66.2339C190.332 70.7994 193.953 76.2195 196.424 82.1847C198.895 88.1499 200.167 94.5433 200.167 101C200.167 128.154 178.154 150.167 151 150.167C123.846 150.167 101.833 128.154 101.833 101C101.833 73.8461 123.846 51.8334 151 51.8334ZM155.917 105.917H146.083C133.911 105.917 123.461 113.289 118.954 123.812C126.085 133.812 137.781 140.333 151 140.333C164.219 140.333 175.915 133.812 183.047 123.812C178.539 113.289 168.089 105.917 155.917 105.917ZM151 66.5834C142.854 66.5834 136.25 73.1872 136.25 81.3334C136.25 89.4795 142.854 96.0834 151 96.0834C159.146 96.0834 165.75 89.4795 165.75 81.3334C165.75 73.1872 159.146 66.5834 151 66.5834Z" fill="#79D1E5"/>
<rect x="96" y="167" width="110" height="35.7284" rx="6.79012" fill="#3A2F7E"/>
<path d="M121.303 180.963H122.734V186.125C122.734 186.691 122.6 187.189 122.333 187.618C122.068 188.048 121.695 188.383 121.214 188.625C120.733 188.864 120.171 188.984 119.528 188.984C118.883 188.984 118.319 188.864 117.838 188.625C117.357 188.383 116.984 188.048 116.72 187.618C116.455 187.189 116.322 186.691 116.322 186.125V180.963H117.753V186.005C117.753 186.335 117.825 186.628 117.97 186.885C118.116 187.142 118.322 187.344 118.587 187.491C118.852 187.635 119.166 187.707 119.528 187.707C119.891 187.707 120.205 187.635 120.47 187.491C120.737 187.344 120.943 187.142 121.087 186.885C121.231 186.628 121.303 186.335 121.303 186.005V180.963ZM124.228 191.086V182.938H125.602V183.918H125.683C125.755 183.774 125.856 183.621 125.987 183.459C126.119 183.295 126.296 183.154 126.52 183.039C126.744 182.92 127.029 182.861 127.376 182.861C127.834 182.861 128.247 182.978 128.615 183.212C128.985 183.444 129.278 183.787 129.494 184.242C129.713 184.695 129.822 185.251 129.822 185.909C129.822 186.56 129.716 187.113 129.502 187.568C129.289 188.023 128.998 188.37 128.63 188.61C128.262 188.849 127.846 188.968 127.38 188.968C127.041 188.968 126.759 188.912 126.535 188.799C126.312 188.686 126.131 188.549 125.995 188.39C125.861 188.228 125.757 188.075 125.683 187.931H125.625V191.086H124.228ZM125.598 185.901C125.598 186.285 125.652 186.62 125.76 186.908C125.87 187.196 126.029 187.421 126.234 187.583C126.443 187.743 126.695 187.823 126.991 187.823C127.299 187.823 127.558 187.74 127.766 187.576C127.974 187.408 128.131 187.181 128.237 186.893C128.345 186.602 128.399 186.272 128.399 185.901C128.399 185.533 128.346 185.207 128.241 184.921C128.135 184.636 127.978 184.412 127.77 184.25C127.562 184.088 127.302 184.007 126.991 184.007C126.692 184.007 126.439 184.085 126.231 184.242C126.022 184.399 125.864 184.619 125.756 184.902C125.651 185.185 125.598 185.518 125.598 185.901ZM132.415 180.963V188.864H131.018V180.963H132.415ZM136.436 188.98C135.857 188.98 135.356 188.853 134.931 188.598C134.507 188.343 134.178 187.987 133.944 187.529C133.712 187.072 133.596 186.537 133.596 185.924C133.596 185.312 133.712 184.776 133.944 184.316C134.178 183.855 134.507 183.498 134.931 183.243C135.356 182.988 135.857 182.861 136.436 182.861C137.015 182.861 137.516 182.988 137.941 183.243C138.365 183.498 138.693 183.855 138.924 184.316C139.158 184.776 139.275 185.312 139.275 185.924C139.275 186.537 139.158 187.072 138.924 187.529C138.693 187.987 138.365 188.343 137.941 188.598C137.516 188.853 137.015 188.98 136.436 188.98ZM136.444 187.861C136.757 187.861 137.02 187.775 137.231 187.603C137.442 187.428 137.599 187.194 137.701 186.901C137.807 186.607 137.86 186.281 137.86 185.921C137.86 185.558 137.807 185.23 137.701 184.937C137.599 184.641 137.442 184.406 137.231 184.231C137.02 184.056 136.757 183.968 136.444 183.968C136.122 183.968 135.855 184.056 135.641 184.231C135.43 184.406 135.272 184.641 135.167 184.937C135.064 185.23 135.012 185.558 135.012 185.921C135.012 186.281 135.064 186.607 135.167 186.901C135.272 187.194 135.43 187.428 135.641 187.603C135.855 187.775 136.122 187.861 136.444 187.861ZM142.166 188.984C141.791 188.984 141.452 188.917 141.151 188.783C140.853 188.647 140.616 188.446 140.442 188.181C140.269 187.916 140.183 187.59 140.183 187.201C140.183 186.867 140.245 186.591 140.368 186.372C140.492 186.153 140.66 185.978 140.874 185.847C141.087 185.716 141.328 185.617 141.595 185.55C141.865 185.481 142.144 185.431 142.432 185.4C142.78 185.364 143.061 185.332 143.277 185.303C143.493 185.272 143.65 185.226 143.748 185.164C143.848 185.1 143.898 185.001 143.898 184.867V184.844C143.898 184.554 143.812 184.329 143.64 184.169C143.468 184.01 143.219 183.93 142.895 183.93C142.553 183.93 142.282 184.004 142.081 184.154C141.883 184.303 141.749 184.479 141.68 184.682L140.376 184.497C140.479 184.137 140.649 183.836 140.885 183.594C141.122 183.35 141.411 183.167 141.753 183.046C142.095 182.923 142.473 182.861 142.888 182.861C143.173 182.861 143.457 182.895 143.74 182.961C144.023 183.028 144.282 183.139 144.516 183.293C144.75 183.445 144.937 183.652 145.079 183.914C145.223 184.177 145.295 184.505 145.295 184.898V188.864H143.952V188.05H143.906C143.821 188.215 143.702 188.369 143.547 188.513C143.396 188.655 143.204 188.769 142.972 188.857C142.744 188.941 142.475 188.984 142.166 188.984ZM142.529 187.958C142.809 187.958 143.052 187.902 143.258 187.792C143.464 187.679 143.622 187.529 143.732 187.344C143.846 187.159 143.902 186.957 143.902 186.738V186.04C143.858 186.076 143.784 186.11 143.678 186.14C143.576 186.171 143.46 186.198 143.331 186.222C143.203 186.245 143.075 186.265 142.949 186.283C142.823 186.301 142.714 186.317 142.621 186.33C142.413 186.358 142.227 186.404 142.062 186.468C141.897 186.533 141.767 186.623 141.672 186.738C141.577 186.852 141.53 186.998 141.53 187.178C141.53 187.436 141.623 187.63 141.811 187.761C141.999 187.892 142.238 187.958 142.529 187.958ZM148.898 188.968C148.433 188.968 148.016 188.849 147.648 188.61C147.281 188.37 146.99 188.023 146.776 187.568C146.563 187.113 146.456 186.56 146.456 185.909C146.456 185.251 146.564 184.695 146.78 184.242C146.999 183.787 147.293 183.444 147.664 183.212C148.034 182.978 148.447 182.861 148.902 182.861C149.249 182.861 149.535 182.92 149.759 183.039C149.982 183.154 150.16 183.295 150.291 183.459C150.422 183.621 150.524 183.774 150.596 183.918H150.654V180.963H152.054V188.864H150.681V187.931H150.596C150.524 188.075 150.42 188.228 150.283 188.39C150.147 188.549 149.967 188.686 149.743 188.799C149.519 188.912 149.238 188.968 148.898 188.968ZM149.288 187.823C149.584 187.823 149.836 187.743 150.044 187.583C150.253 187.421 150.411 187.196 150.519 186.908C150.627 186.62 150.681 186.285 150.681 185.901C150.681 185.518 150.627 185.185 150.519 184.902C150.413 184.619 150.256 184.399 150.048 184.242C149.842 184.085 149.589 184.007 149.288 184.007C148.977 184.007 148.717 184.088 148.509 184.25C148.3 184.412 148.143 184.636 148.038 184.921C147.933 185.207 147.88 185.533 147.88 185.901C147.88 186.272 147.933 186.602 148.038 186.893C148.146 187.181 148.304 187.408 148.513 187.576C148.723 187.74 148.982 187.823 149.288 187.823ZM156.299 188.864V180.963H159.262C159.869 180.963 160.378 181.076 160.79 181.303C161.204 181.529 161.516 181.84 161.727 182.236C161.941 182.63 162.047 183.077 162.047 183.579C162.047 184.085 161.941 184.536 161.727 184.929C161.514 185.323 161.199 185.633 160.782 185.859C160.365 186.083 159.852 186.195 159.243 186.195H157.279V185.018H159.05C159.405 185.018 159.695 184.956 159.922 184.833C160.148 184.709 160.315 184.539 160.423 184.323C160.534 184.107 160.589 183.859 160.589 183.579C160.589 183.298 160.534 183.052 160.423 182.838C160.315 182.625 160.147 182.459 159.918 182.34C159.691 182.219 159.4 182.159 159.042 182.159H157.73V188.864H156.299ZM164.626 185.392V188.864H163.229V180.963H164.595V183.945H164.664C164.803 183.611 165.018 183.347 165.308 183.154C165.602 182.959 165.975 182.861 166.427 182.861C166.839 182.861 167.198 182.947 167.504 183.12C167.81 183.292 168.046 183.544 168.214 183.876C168.383 184.208 168.468 184.613 168.468 185.091V188.864H167.072V185.307C167.072 184.908 166.969 184.599 166.763 184.377C166.56 184.154 166.274 184.042 165.906 184.042C165.66 184.042 165.438 184.096 165.243 184.204C165.05 184.309 164.898 184.462 164.788 184.663C164.68 184.863 164.626 185.107 164.626 185.392ZM172.477 188.98C171.898 188.98 171.396 188.853 170.972 188.598C170.548 188.343 170.218 187.987 169.984 187.529C169.753 187.072 169.637 186.537 169.637 185.924C169.637 185.312 169.753 184.776 169.984 184.316C170.218 183.855 170.548 183.498 170.972 183.243C171.396 182.988 171.898 182.861 172.477 182.861C173.055 182.861 173.557 182.988 173.981 183.243C174.406 183.498 174.734 183.855 174.965 184.316C175.199 184.776 175.316 185.312 175.316 185.924C175.316 186.537 175.199 187.072 174.965 187.529C174.734 187.987 174.406 188.343 173.981 188.598C173.557 188.853 173.055 188.98 172.477 188.98ZM172.484 187.861C172.798 187.861 173.061 187.775 173.271 187.603C173.482 187.428 173.639 187.194 173.742 186.901C173.848 186.607 173.9 186.281 173.9 185.921C173.9 185.558 173.848 185.23 173.742 184.937C173.639 184.641 173.482 184.406 173.271 184.231C173.061 184.056 172.798 183.968 172.484 183.968C172.163 183.968 171.895 184.056 171.682 184.231C171.471 184.406 171.313 184.641 171.207 184.937C171.104 185.23 171.053 185.558 171.053 185.921C171.053 186.281 171.104 186.607 171.207 186.901C171.313 187.194 171.471 187.428 171.682 187.603C171.895 187.775 172.163 187.861 172.484 187.861ZM179.461 182.938V184.019H176.054V182.938H179.461ZM176.895 181.519H178.292V187.082C178.292 187.27 178.32 187.414 178.377 187.514C178.436 187.612 178.513 187.679 178.608 187.715C178.703 187.751 178.809 187.769 178.924 187.769C179.012 187.769 179.092 187.762 179.164 187.749C179.238 187.736 179.295 187.725 179.333 187.715L179.569 188.806C179.494 188.832 179.387 188.86 179.248 188.891C179.112 188.922 178.945 188.94 178.747 188.945C178.397 188.956 178.082 188.903 177.802 188.787C177.521 188.669 177.299 188.486 177.134 188.239C176.972 187.992 176.892 187.684 176.895 187.313V181.519ZM183.15 188.98C182.571 188.98 182.07 188.853 181.645 188.598C181.221 188.343 180.892 187.987 180.658 187.529C180.426 187.072 180.31 186.537 180.31 185.924C180.31 185.312 180.426 184.776 180.658 184.316C180.892 183.855 181.221 183.498 181.645 183.243C182.07 182.988 182.571 182.861 183.15 182.861C183.729 182.861 184.23 182.988 184.655 183.243C185.079 183.498 185.407 183.855 185.638 184.316C185.872 184.776 185.989 185.312 185.989 185.924C185.989 186.537 185.872 187.072 185.638 187.529C185.407 187.987 185.079 188.343 184.655 188.598C184.23 188.853 183.729 188.98 183.15 188.98ZM183.158 187.861C183.471 187.861 183.734 187.775 183.945 187.603C184.156 187.428 184.312 187.194 184.415 186.901C184.521 186.607 184.574 186.281 184.574 185.921C184.574 185.558 184.521 185.23 184.415 184.937C184.312 184.641 184.156 184.406 183.945 184.231C183.734 184.056 183.471 183.968 183.158 183.968C182.836 183.968 182.569 184.056 182.355 184.231C182.144 184.406 181.986 184.641 181.881 184.937C181.778 185.23 181.726 185.558 181.726 185.921C181.726 186.281 181.778 186.607 181.881 186.901C181.986 187.194 182.144 187.428 182.355 187.603C182.569 187.775 182.836 187.861 183.158 187.861Z" fill="white"/>
<rect x="112" y="226" width="88.6667" height="5" rx="2.5" fill="#E0E5F2"/>
<path fill-rule="evenodd" clip-rule="evenodd" d="M109.123 224.305C109.215 224.25 109.325 224.232 109.43 224.256C109.535 224.28 109.627 224.344 109.686 224.434L110.099 225.063C110.152 225.146 110.175 225.244 110.163 225.342C110.152 225.439 110.106 225.529 110.034 225.596L110.033 225.598L110.027 225.603L110.003 225.625L109.909 225.715C109.391 226.218 108.888 226.737 108.401 227.272C107.486 228.278 106.399 229.596 105.667 230.874C105.463 231.231 104.964 231.308 104.668 231L101.966 228.192C101.927 228.152 101.897 228.104 101.877 228.052C101.857 228 101.848 227.944 101.85 227.888C101.852 227.833 101.865 227.778 101.889 227.727C101.912 227.677 101.946 227.631 101.987 227.594L102.804 226.857C102.876 226.792 102.968 226.755 103.064 226.75C103.161 226.746 103.256 226.775 103.333 226.833L104.712 227.867C106.866 225.743 108.087 224.928 109.123 224.305Z" fill="#79D1E5"/>
<rect x="112" y="243" width="88.6667" height="5" rx="2.5" fill="#E0E5F2"/>
<path fill-rule="evenodd" clip-rule="evenodd" d="M109.123 241.305C109.215 241.25 109.325 241.232 109.43 241.256C109.535 241.28 109.627 241.344 109.686 241.434L110.099 242.063C110.152 242.146 110.175 242.244 110.163 242.342C110.152 242.439 110.106 242.529 110.034 242.596L110.033 242.598L110.027 242.603L110.003 242.625L109.909 242.715C109.391 243.218 108.888 243.737 108.401 244.272C107.486 245.278 106.399 246.596 105.667 247.874C105.463 248.231 104.964 248.308 104.668 248L101.966 245.192C101.927 245.152 101.897 245.104 101.877 245.052C101.857 245 101.848 244.944 101.85 244.888C101.852 244.833 101.865 244.778 101.889 244.727C101.912 244.677 101.946 244.631 101.987 244.594L102.804 243.857C102.876 243.792 102.968 243.755 103.064 243.75C103.161 243.746 103.256 243.775 103.333 243.833L104.712 244.867C106.866 242.743 108.087 241.928 109.123 241.305Z" fill="#79D1E5"/>
</svg>


