<svg width="250" height="62" viewBox="0 0 250 62" fill="none" xmlns="http://www.w3.org/2000/svg">
<rect x="27" width="196" height="52" rx="10" fill="#3A2F7E"/>
<path d="M85.8061 32H83.5561L87.6527 20.3636H90.255L94.3572 32H92.1072L88.9993 22.75H88.9084L85.8061 32ZM85.88 27.4375H92.0163V29.1307H85.88V27.4375ZM95.799 35.2727V23.2727H97.8217V24.7159H97.9411C98.0471 24.5038 98.1967 24.2784 98.3899 24.0398C98.5831 23.7973 98.8445 23.5909 99.174 23.4205C99.5036 23.2462 99.924 23.1591 100.435 23.1591C101.11 23.1591 101.718 23.3314 102.259 23.6761C102.805 24.017 103.237 24.5227 103.555 25.1932C103.877 25.8598 104.038 26.678 104.038 27.6477C104.038 28.6061 103.88 29.4205 103.566 30.0909C103.252 30.7614 102.824 31.2727 102.282 31.625C101.74 31.9773 101.127 32.1534 100.441 32.1534C99.9411 32.1534 99.5263 32.0701 99.1967 31.9034C98.8672 31.7367 98.602 31.536 98.4013 31.3011C98.2043 31.0625 98.0509 30.8371 97.9411 30.625H97.8558V35.2727H95.799ZM97.8161 27.6364C97.8161 28.2008 97.8956 28.6951 98.0547 29.1193C98.2176 29.5436 98.4505 29.875 98.7536 30.1136C99.0604 30.3485 99.4316 30.4659 99.8672 30.4659C100.322 30.4659 100.702 30.3447 101.009 30.1023C101.316 29.8561 101.547 29.5208 101.702 29.0966C101.862 28.6686 101.941 28.1818 101.941 27.6364C101.941 27.0947 101.863 26.6136 101.708 26.1932C101.553 25.7727 101.322 25.4432 101.015 25.2045C100.708 24.9659 100.326 24.8466 99.8672 24.8466C99.4278 24.8466 99.0547 24.9621 98.7479 25.1932C98.4411 25.4242 98.2081 25.7481 98.049 26.1648C97.8937 26.5814 97.8161 27.072 97.8161 27.6364ZM105.799 35.2727V23.2727H107.822V24.7159H107.941C108.047 24.5038 108.197 24.2784 108.39 24.0398C108.583 23.7973 108.844 23.5909 109.174 23.4205C109.504 23.2462 109.924 23.1591 110.435 23.1591C111.11 23.1591 111.718 23.3314 112.259 23.6761C112.805 24.017 113.237 24.5227 113.555 25.1932C113.877 25.8598 114.038 26.678 114.038 27.6477C114.038 28.6061 113.88 29.4205 113.566 30.0909C113.252 30.7614 112.824 31.2727 112.282 31.625C111.74 31.9773 111.127 32.1534 110.441 32.1534C109.941 32.1534 109.526 32.0701 109.197 31.9034C108.867 31.7367 108.602 31.536 108.401 31.3011C108.204 31.0625 108.051 30.8371 107.941 30.625H107.856V35.2727H105.799ZM107.816 27.6364C107.816 28.2008 107.896 28.6951 108.055 29.1193C108.218 29.5436 108.451 29.875 108.754 30.1136C109.06 30.3485 109.432 30.4659 109.867 30.4659C110.322 30.4659 110.702 30.3447 111.009 30.1023C111.316 29.8561 111.547 29.5208 111.702 29.0966C111.862 28.6686 111.941 28.1818 111.941 27.6364C111.941 27.0947 111.863 26.6136 111.708 26.1932C111.553 25.7727 111.322 25.4432 111.015 25.2045C110.708 24.9659 110.326 24.8466 109.867 24.8466C109.428 24.8466 109.055 24.9621 108.748 25.1932C108.441 25.4242 108.208 25.7481 108.049 26.1648C107.894 26.5814 107.816 27.072 107.816 27.6364ZM117.856 20.3636V32H115.799V20.3636H117.856ZM121.249 35.2727C120.969 35.2727 120.71 35.25 120.471 35.2045C120.236 35.1629 120.049 35.1136 119.908 35.0568L120.386 33.4545C120.685 33.5417 120.952 33.5833 121.187 33.5795C121.422 33.5758 121.628 33.5019 121.806 33.358C121.988 33.2178 122.141 32.983 122.266 32.6534L122.442 32.1818L119.278 23.2727H121.46L123.471 29.8636H123.562L125.579 23.2727H127.766L124.272 33.0568C124.109 33.5189 123.893 33.9148 123.624 34.2443C123.355 34.5777 123.026 34.8314 122.636 35.0057C122.249 35.1837 121.787 35.2727 121.249 35.2727ZM142.812 20.3636V32H140.937L135.454 24.0739H135.357V32H133.249V20.3636H135.136L140.613 28.2955H140.715V20.3636H142.812ZM148.825 32.1705C147.972 32.1705 147.234 31.983 146.609 31.608C145.984 31.233 145.499 30.7083 145.154 30.0341C144.813 29.3598 144.643 28.572 144.643 27.6705C144.643 26.7689 144.813 25.9792 145.154 25.3011C145.499 24.6231 145.984 24.0966 146.609 23.7216C147.234 23.3466 147.972 23.1591 148.825 23.1591C149.677 23.1591 150.415 23.3466 151.04 23.7216C151.665 24.0966 152.148 24.6231 152.489 25.3011C152.834 25.9792 153.006 26.7689 153.006 27.6705C153.006 28.572 152.834 29.3598 152.489 30.0341C152.148 30.7083 151.665 31.233 151.04 31.608C150.415 31.983 149.677 32.1705 148.825 32.1705ZM148.836 30.5227C149.298 30.5227 149.684 30.3958 149.995 30.142C150.306 29.8845 150.537 29.5398 150.688 29.108C150.844 28.6761 150.921 28.1951 150.921 27.6648C150.921 27.1307 150.844 26.6477 150.688 26.2159C150.537 25.7803 150.306 25.4337 149.995 25.1761C149.684 24.9186 149.298 24.7898 148.836 24.7898C148.362 24.7898 147.969 24.9186 147.654 25.1761C147.344 25.4337 147.111 25.7803 146.955 26.2159C146.804 26.6477 146.728 27.1307 146.728 27.6648C146.728 28.1951 146.804 28.6761 146.955 29.108C147.111 29.5398 147.344 29.8845 147.654 30.142C147.969 30.3958 148.362 30.5227 148.836 30.5227ZM156.303 32L153.837 23.2727H155.934L157.468 29.4091H157.548L159.116 23.2727H161.19L162.758 29.375H162.843L164.354 23.2727H166.457L163.985 32H161.843L160.207 26.1023H160.087L158.451 32H156.303Z" fill="white"/>
<circle cx="186.5" cy="47" r="15" fill="#FBDF57" fill-opacity="0.1"/>
</svg>
