<svg width="250" height="62" viewBox="0 0 250 62" fill="none" xmlns="http://www.w3.org/2000/svg">
<rect x="13" width="224" height="52" rx="10" fill="#3A2F7E"/>
<path d="M71.8061 32H69.5561L73.6527 20.3636H76.255L80.3572 32H78.1072L74.9993 22.75H74.9084L71.8061 32ZM71.88 27.4375H78.0163V29.1307H71.88V27.4375ZM81.799 35.2727V23.2727H83.8217V24.7159H83.9411C84.0471 24.5038 84.1967 24.2784 84.3899 24.0398C84.5831 23.7973 84.8445 23.5909 85.174 23.4205C85.5036 23.2462 85.924 23.1591 86.4354 23.1591C87.1096 23.1591 87.7176 23.3314 88.2592 23.6761C88.8047 24.017 89.2365 24.5227 89.5547 25.1932C89.8767 25.8598 90.0376 26.678 90.0376 27.6477C90.0376 28.6061 89.8804 29.4205 89.5661 30.0909C89.2517 30.7614 88.8236 31.2727 88.282 31.625C87.7403 31.9773 87.1267 32.1534 86.4411 32.1534C85.9411 32.1534 85.5263 32.0701 85.1967 31.9034C84.8672 31.7367 84.602 31.536 84.4013 31.3011C84.2043 31.0625 84.0509 30.8371 83.9411 30.625H83.8558V35.2727H81.799ZM83.8161 27.6364C83.8161 28.2008 83.8956 28.6951 84.0547 29.1193C84.2176 29.5436 84.4505 29.875 84.7536 30.1136C85.0604 30.3485 85.4316 30.4659 85.8672 30.4659C86.3217 30.4659 86.7024 30.3447 87.0092 30.1023C87.3161 29.8561 87.5471 29.5208 87.7024 29.0966C87.8615 28.6686 87.9411 28.1818 87.9411 27.6364C87.9411 27.0947 87.8634 26.6136 87.7081 26.1932C87.5528 25.7727 87.3217 25.4432 87.0149 25.2045C86.7081 24.9659 86.3255 24.8466 85.8672 24.8466C85.4278 24.8466 85.0547 24.9621 84.7479 25.1932C84.4411 25.4242 84.2081 25.7481 84.049 26.1648C83.8937 26.5814 83.8161 27.072 83.8161 27.6364ZM91.799 35.2727V23.2727H93.8217V24.7159H93.9411C94.0471 24.5038 94.1967 24.2784 94.3899 24.0398C94.5831 23.7973 94.8445 23.5909 95.174 23.4205C95.5036 23.2462 95.924 23.1591 96.4354 23.1591C97.1096 23.1591 97.7176 23.3314 98.2592 23.6761C98.8047 24.017 99.2365 24.5227 99.5547 25.1932C99.8767 25.8598 100.038 26.678 100.038 27.6477C100.038 28.6061 99.8804 29.4205 99.5661 30.0909C99.2517 30.7614 98.8236 31.2727 98.282 31.625C97.7403 31.9773 97.1267 32.1534 96.4411 32.1534C95.9411 32.1534 95.5263 32.0701 95.1967 31.9034C94.8672 31.7367 94.602 31.536 94.4013 31.3011C94.2043 31.0625 94.0509 30.8371 93.9411 30.625H93.8558V35.2727H91.799ZM93.8161 27.6364C93.8161 28.2008 93.8956 28.6951 94.0547 29.1193C94.2176 29.5436 94.4505 29.875 94.7536 30.1136C95.0604 30.3485 95.4316 30.4659 95.8672 30.4659C96.3217 30.4659 96.7024 30.3447 97.0092 30.1023C97.3161 29.8561 97.5471 29.5208 97.7024 29.0966C97.8615 28.6686 97.9411 28.1818 97.9411 27.6364C97.9411 27.0947 97.8634 26.6136 97.7081 26.1932C97.5528 25.7727 97.3217 25.4432 97.0149 25.2045C96.7081 24.9659 96.3255 24.8466 95.8672 24.8466C95.4278 24.8466 95.0547 24.9621 94.7479 25.1932C94.4411 25.4242 94.2081 25.7481 94.049 26.1648C93.8937 26.5814 93.8161 27.072 93.8161 27.6364ZM103.856 20.3636V32H101.799V20.3636H103.856ZM107.249 35.2727C106.969 35.2727 106.71 35.25 106.471 35.2045C106.236 35.1629 106.049 35.1136 105.908 35.0568L106.386 33.4545C106.685 33.5417 106.952 33.5833 107.187 33.5795C107.422 33.5758 107.628 33.5019 107.806 33.358C107.988 33.2178 108.141 32.983 108.266 32.6534L108.442 32.1818L105.278 23.2727H107.46L109.471 29.8636H109.562L111.579 23.2727H113.766L110.272 33.0568C110.109 33.5189 109.893 33.9148 109.624 34.2443C109.355 34.5777 109.026 34.8314 108.636 35.0057C108.249 35.1837 107.787 35.2727 107.249 35.2727ZM128.812 20.3636V32H126.937L121.454 24.0739H121.357V32H119.249V20.3636H121.136L126.613 28.2955H126.715V20.3636H128.812ZM134.825 32.1705C133.972 32.1705 133.234 31.983 132.609 31.608C131.984 31.233 131.499 30.7083 131.154 30.0341C130.813 29.3598 130.643 28.572 130.643 27.6705C130.643 26.7689 130.813 25.9792 131.154 25.3011C131.499 24.6231 131.984 24.0966 132.609 23.7216C133.234 23.3466 133.972 23.1591 134.825 23.1591C135.677 23.1591 136.415 23.3466 137.04 23.7216C137.665 24.0966 138.148 24.6231 138.489 25.3011C138.834 25.9792 139.006 26.7689 139.006 27.6705C139.006 28.572 138.834 29.3598 138.489 30.0341C138.148 30.7083 137.665 31.233 137.04 31.608C136.415 31.983 135.677 32.1705 134.825 32.1705ZM134.836 30.5227C135.298 30.5227 135.684 30.3958 135.995 30.142C136.306 29.8845 136.537 29.5398 136.688 29.108C136.844 28.6761 136.921 28.1951 136.921 27.6648C136.921 27.1307 136.844 26.6477 136.688 26.2159C136.537 25.7803 136.306 25.4337 135.995 25.1761C135.684 24.9186 135.298 24.7898 134.836 24.7898C134.362 24.7898 133.969 24.9186 133.654 25.1761C133.344 25.4337 133.111 25.7803 132.955 26.2159C132.804 26.6477 132.728 27.1307 132.728 27.6648C132.728 28.1951 132.804 28.6761 132.955 29.108C133.111 29.5398 133.344 29.8845 133.654 30.142C133.969 30.3958 134.362 30.5227 134.836 30.5227ZM142.303 32L139.837 23.2727H141.934L143.468 29.4091H143.548L145.116 23.2727H147.19L148.758 29.375H148.843L150.354 23.2727H152.457L149.985 32H147.843L146.207 26.1023H146.087L144.451 32H142.303Z" fill="white"/>
<path d="M171 17.6667C171.221 17.6667 171.433 17.7545 171.589 17.9108C171.746 18.067 171.833 18.279 171.833 18.5V21C171.833 21.221 171.746 21.433 171.589 21.5893C171.433 21.7456 171.221 21.8334 171 21.8334C170.779 21.8334 170.567 21.7456 170.411 21.5893C170.254 21.433 170.167 21.221 170.167 21V18.5C170.167 18.279 170.254 18.067 170.411 17.9108C170.567 17.7545 170.779 17.6667 171 17.6667ZM171 30.1667C171.221 30.1667 171.433 30.2545 171.589 30.4108C171.746 30.567 171.833 30.779 171.833 31V33.5C171.833 33.721 171.746 33.933 171.589 34.0893C171.433 34.2456 171.221 34.3334 171 34.3334C170.779 34.3334 170.567 34.2456 170.411 34.0893C170.254 33.933 170.167 33.721 170.167 33.5V31C170.167 30.779 170.254 30.567 170.411 30.4108C170.567 30.2545 170.779 30.1667 171 30.1667ZM178.217 21.8334C178.327 22.0248 178.357 22.2522 178.3 22.4657C178.243 22.6792 178.103 22.8612 177.912 22.9717L175.747 24.2217C175.652 24.2773 175.547 24.3135 175.438 24.3284C175.329 24.3433 175.218 24.3365 175.112 24.3084C175.006 24.2803 174.906 24.2315 174.819 24.1648C174.732 24.098 174.658 24.0146 174.603 23.9195C174.549 23.8243 174.513 23.7192 174.499 23.6102C174.485 23.5012 174.492 23.3905 174.521 23.2844C174.55 23.1784 174.599 23.0791 174.667 22.9922C174.734 22.9054 174.818 22.8327 174.913 22.7784L177.078 21.5284C177.27 21.4179 177.497 21.3879 177.711 21.4451C177.924 21.5023 178.106 21.642 178.217 21.8334ZM167.392 28.0834C167.446 28.1782 167.482 28.2828 167.496 28.3914C167.51 28.4999 167.503 28.6102 167.475 28.7159C167.446 28.8216 167.397 28.9207 167.33 29.0075C167.264 29.0942 167.181 29.167 167.086 29.2217L164.921 30.4717C164.826 30.5273 164.721 30.5635 164.612 30.5784C164.503 30.5933 164.393 30.5865 164.286 30.5584C164.18 30.5303 164.08 30.4815 163.993 30.4148C163.906 30.348 163.833 30.2646 163.778 30.1695C163.723 30.0743 163.687 29.9692 163.673 29.8602C163.659 29.7512 163.666 29.6405 163.695 29.5344C163.724 29.4284 163.773 29.3291 163.841 29.2422C163.908 29.1554 163.992 29.0827 164.087 29.0284L166.252 27.7784C166.444 27.6679 166.671 27.6379 166.885 27.6951C167.098 27.7523 167.281 27.892 167.392 28.0834ZM178.217 30.1667C178.106 30.3581 177.924 30.4977 177.711 30.5549C177.497 30.6121 177.27 30.5822 177.078 30.4717L174.913 29.2217C174.723 29.1104 174.585 28.9285 174.529 28.7158C174.473 28.503 174.503 28.2767 174.613 28.0861C174.723 27.8955 174.904 27.7562 175.116 27.6986C175.329 27.6409 175.555 27.6696 175.747 27.7784L177.912 29.0284C178.103 29.1389 178.243 29.3209 178.3 29.5344C178.357 29.7478 178.327 29.9753 178.217 30.1667ZM167.392 23.9167C167.337 24.0116 167.264 24.0947 167.177 24.1614C167.09 24.2281 166.991 24.277 166.885 24.3053C166.779 24.3337 166.669 24.3409 166.561 24.3265C166.452 24.3121 166.347 24.2765 166.252 24.2217L164.087 22.9717C163.992 22.9174 163.908 22.8447 163.841 22.7578C163.773 22.671 163.724 22.5717 163.695 22.4656C163.666 22.3595 163.659 22.2488 163.673 22.1398C163.687 22.0309 163.723 21.9258 163.778 21.8306C163.833 21.7354 163.906 21.652 163.993 21.5853C164.08 21.5185 164.18 21.4697 164.286 21.4416C164.393 21.4135 164.503 21.4067 164.612 21.4216C164.721 21.4365 164.826 21.4728 164.921 21.5284L167.086 22.7784C167.181 22.833 167.264 22.9058 167.33 22.9926C167.397 23.0794 167.446 23.1785 167.475 23.2842C167.503 23.3899 167.51 23.5001 167.496 23.6087C167.482 23.7172 167.446 23.8219 167.392 23.9167Z" fill="white"/>
</svg>
