<svg width="250" height="62" viewBox="0 0 250 62" fill="none" xmlns="http://www.w3.org/2000/svg">
<rect x="96" width="58" height="56" rx="10" fill="#2E911A"/>
<path fill-rule="evenodd" clip-rule="evenodd" d="M134.56 21.24C134.841 21.5213 134.999 21.9025 134.999 22.3C134.999 22.6975 134.841 23.0788 134.56 23.36L122.366 35.554C122.225 35.6946 122.058 35.8059 121.874 35.8812C121.69 35.9565 121.492 35.9945 121.293 35.9928C121.094 35.9911 120.898 35.9499 120.715 35.8714C120.532 35.793 120.367 35.679 120.228 35.536L115.422 30.568C115.148 30.2816 114.999 29.8984 115.006 29.5021C115.014 29.1057 115.178 28.7285 115.463 28.4529C115.748 28.1772 116.13 28.0256 116.527 28.031C116.923 28.0365 117.301 28.1986 117.578 28.482L121.324 32.354L132.44 21.24C132.721 20.9591 133.103 20.8013 133.5 20.8013C133.898 20.8013 134.279 20.9591 134.56 21.24Z" fill="white"/>
</svg>
