<svg width="327" height="48" viewBox="0 0 327 48" fill="none" xmlns="http://www.w3.org/2000/svg">
<path d="M12 0.5H50.2002C56.5514 0.500109 61.7002 5.64879 61.7002 12V36C61.7002 42.3512 56.5514 47.4999 50.2002 47.5H12C5.64873 47.5 0.5 42.3513 0.5 36V12C0.5 5.64873 5.64873 0.5 12 0.5Z" fill="white"/>
<path d="M12 0.5H50.2002C56.5514 0.500109 61.7002 5.64879 61.7002 12V36C61.7002 42.3512 56.5514 47.4999 50.2002 47.5H12C5.64873 47.5 0.5 42.3513 0.5 36V12C0.5 5.64873 5.64873 0.5 12 0.5Z" stroke="#9EA1A8"/>
<path d="M78.2 0.5H116.4C122.751 0.500109 127.9 5.64879 127.9 12V36C127.9 42.3512 122.751 47.4999 116.4 47.5H78.2C71.8487 47.5 66.7 42.3513 66.7 36V12C66.7 5.64873 71.8487 0.5 78.2 0.5Z" fill="white"/>
<path d="M78.2 0.5H116.4C122.751 0.500109 127.9 5.64879 127.9 12V36C127.9 42.3512 122.751 47.4999 116.4 47.5H78.2C71.8487 47.5 66.7 42.3513 66.7 36V12C66.7 5.64873 71.8487 0.5 78.2 0.5Z" stroke="#9EA1A8"/>
<path d="M144.4 0.5H182.6C188.951 0.500109 194.1 5.64879 194.1 12V36C194.1 42.3512 188.951 47.4999 182.6 47.5H144.4C138.049 47.5 132.9 42.3513 132.9 36V12C132.9 5.64873 138.049 0.5 144.4 0.5Z" fill="white"/>
<path d="M144.4 0.5H182.6C188.951 0.500109 194.1 5.64879 194.1 12V36C194.1 42.3512 188.951 47.4999 182.6 47.5H144.4C138.049 47.5 132.9 42.3513 132.9 36V12C132.9 5.64873 138.049 0.5 144.4 0.5Z" stroke="#9EA1A8"/>
<path d="M210.6 0.5H248.8C255.151 0.500107 260.3 5.64879 260.3 12V36C260.3 42.3512 255.151 47.4999 248.8 47.5H210.6C204.249 47.5 199.1 42.3513 199.1 36V12C199.1 5.64873 204.249 0.5 210.6 0.5Z" fill="white"/>
<path d="M210.6 0.5H248.8C255.151 0.500107 260.3 5.64879 260.3 12V36C260.3 42.3512 255.151 47.4999 248.8 47.5H210.6C204.249 47.5 199.1 42.3513 199.1 36V12C199.1 5.64873 204.249 0.5 210.6 0.5Z" stroke="#9EA1A8"/>
<path d="M276.8 0.5H315C321.351 0.500107 326.5 5.64879 326.5 12V36C326.5 42.3512 321.351 47.4999 315 47.5H276.8C270.449 47.5 265.3 42.3513 265.3 36V12C265.3 5.64873 270.449 0.5 276.8 0.5Z" fill="white"/>
<path d="M276.8 0.5H315C321.351 0.500107 326.5 5.64879 326.5 12V36C326.5 42.3512 321.351 47.4999 315 47.5H276.8C270.449 47.5 265.3 42.3513 265.3 36V12C265.3 5.64873 270.449 0.5 276.8 0.5Z" stroke="#9EA1A8"/>
</svg>
