<svg width="281" height="60" viewBox="0 0 281 60" fill="none" xmlns="http://www.w3.org/2000/svg">
<path d="M16.104 22.16L10.488 38H5.63996L-4.29675e-05 22.16H4.34396L7.24796 31.736L8.11196 34.856L8.95196 31.784L11.904 22.16H16.104ZM22.176 38.24C20.848 38.24 19.696 37.992 18.72 37.496C17.76 37 17.016 36.288 16.488 35.36C15.96 34.432 15.696 33.312 15.696 32C15.696 30.688 15.96 29.568 16.488 28.64C17.016 27.712 17.752 27 18.696 26.504C19.656 26.008 20.752 25.76 21.984 25.76C23.248 25.76 24.32 26.008 25.2 26.504C26.096 26.984 26.776 27.656 27.24 28.52C27.704 29.368 27.936 30.344 27.936 31.448C27.936 31.736 27.928 32.024 27.912 32.312C27.896 32.6 27.872 32.84 27.84 33.032H18.336V30.848H26.04L24.096 31.592C24.096 30.632 23.92 29.896 23.568 29.384C23.232 28.872 22.704 28.616 21.984 28.616C21.472 28.616 21.032 28.736 20.664 28.976C20.312 29.216 20.04 29.592 19.848 30.104C19.672 30.616 19.584 31.272 19.584 32.072C19.584 32.856 19.688 33.496 19.896 33.992C20.104 34.472 20.4 34.824 20.784 35.048C21.168 35.256 21.632 35.36 22.176 35.36C22.784 35.36 23.264 35.24 23.616 35C23.984 34.76 24.256 34.424 24.432 33.992L27.696 35.072C27.472 35.76 27.08 36.344 26.52 36.824C25.976 37.288 25.32 37.64 24.552 37.88C23.8 38.12 23.008 38.24 22.176 38.24ZM30.2184 38V26H33.8184L33.9864 28.592C34.2904 27.696 34.7384 27 35.3304 26.504C35.9384 26.008 36.7064 25.76 37.6344 25.76C37.9384 25.76 38.1944 25.784 38.4024 25.832C38.6264 25.88 38.8024 25.944 38.9304 26.024L38.5224 29.384C38.3624 29.32 38.1544 29.272 37.8984 29.24C37.6584 29.192 37.3624 29.168 37.0104 29.168C36.5304 29.168 36.0824 29.272 35.6664 29.48C35.2504 29.688 34.9144 30 34.6584 30.416C34.4184 30.816 34.2984 31.328 34.2984 31.952V38H30.2184ZM42.5709 24.608C41.7389 24.608 41.1309 24.456 40.7469 24.152C40.3789 23.832 40.1949 23.336 40.1949 22.664C40.1949 21.976 40.3789 21.48 40.7469 21.176C41.1309 20.856 41.7389 20.696 42.5709 20.696C43.3869 20.696 43.9869 20.856 44.3709 21.176C44.7549 21.48 44.9469 21.976 44.9469 22.664C44.9469 23.336 44.7549 23.832 44.3709 24.152C43.9869 24.456 43.3869 24.608 42.5709 24.608ZM44.6109 26V38H40.5309V26H44.6109ZM53.1073 20.576C53.7633 20.576 54.3393 20.648 54.8353 20.792C55.3313 20.92 55.6993 21.072 55.9393 21.248L55.5313 23.792C55.3553 23.68 55.1553 23.592 54.9313 23.528C54.7073 23.464 54.4273 23.432 54.0913 23.432C53.5313 23.432 53.0673 23.56 52.6993 23.816C52.3473 24.072 52.1713 24.52 52.1713 25.16V26.72L52.4113 27.392V38H48.3313V24.896C48.3313 24.128 48.4513 23.472 48.6913 22.928C48.9473 22.384 49.2993 21.936 49.7473 21.584C50.1953 21.232 50.7073 20.976 51.2833 20.816C51.8593 20.656 52.4673 20.576 53.1073 20.576ZM55.8193 26V28.904H46.4113V26H55.8193ZM69.5482 26L65.1802 38C64.7322 39.264 64.2442 40.272 63.7162 41.024C63.1882 41.776 62.5642 42.32 61.8442 42.656C61.1242 42.992 60.2602 43.16 59.2522 43.16C58.5802 43.16 57.9642 43.088 57.4042 42.944C56.8442 42.8 56.3562 42.6 55.9402 42.344L56.7562 39.584C57.0442 39.792 57.3482 39.936 57.6682 40.016C57.9882 40.112 58.3962 40.16 58.8922 40.16C59.3562 40.16 59.7322 40.08 60.0202 39.92C60.3242 39.76 60.5642 39.456 60.7402 39.008L61.0522 38.264L59.6602 35L56.0602 26H60.5482L62.3962 32.84L62.9722 35.384L63.6442 32.744L65.4922 26H69.5482ZM89.142 26L84.774 38C84.326 39.264 83.838 40.272 83.31 41.024C82.782 41.776 82.158 42.32 81.438 42.656C80.718 42.992 79.854 43.16 78.846 43.16C78.174 43.16 77.558 43.088 76.998 42.944C76.438 42.8 75.95 42.6 75.534 42.344L76.35 39.584C76.638 39.792 76.942 39.936 77.262 40.016C77.582 40.112 77.99 40.16 78.486 40.16C78.95 40.16 79.326 40.08 79.614 39.92C79.918 39.76 80.158 39.456 80.334 39.008L80.646 38.264L79.254 35L75.654 26H80.142L81.99 32.84L82.566 35.384L83.238 32.744L85.086 26H89.142ZM96.0945 25.76C97.3585 25.76 98.4625 26.008 99.4065 26.504C100.366 26.984 101.11 27.696 101.638 28.64C102.182 29.568 102.454 30.688 102.454 32C102.454 33.312 102.182 34.44 101.638 35.384C101.11 36.312 100.366 37.024 99.4065 37.52C98.4625 38 97.3585 38.24 96.0945 38.24C94.8625 38.24 93.7665 38 92.8065 37.52C91.8465 37.024 91.0945 36.312 90.5505 35.384C90.0225 34.44 89.7585 33.312 89.7585 32C89.7585 30.688 90.0225 29.568 90.5505 28.64C91.0945 27.696 91.8465 26.984 92.8065 26.504C93.7665 26.008 94.8625 25.76 96.0945 25.76ZM96.0945 28.664C95.6305 28.664 95.2305 28.776 94.8945 29C94.5585 29.224 94.3025 29.584 94.1265 30.08C93.9505 30.576 93.8625 31.216 93.8625 32C93.8625 32.784 93.9505 33.424 94.1265 33.92C94.3025 34.4 94.5585 34.76 94.8945 35C95.2305 35.224 95.6305 35.336 96.0945 35.336C96.5745 35.336 96.9825 35.224 97.3185 35C97.6545 34.76 97.9105 34.4 98.0865 33.92C98.2625 33.424 98.3505 32.784 98.3505 32C98.3505 31.216 98.2625 30.576 98.0865 30.08C97.9105 29.584 97.6545 29.224 97.3185 29C96.9825 28.776 96.5745 28.664 96.0945 28.664ZM108.806 38.24C107.99 38.24 107.27 38.104 106.646 37.832C106.038 37.544 105.558 37.088 105.206 36.464C104.854 35.84 104.678 35.024 104.678 34.016V26H108.758V33.056C108.758 33.824 108.91 34.36 109.214 34.664C109.518 34.968 109.95 35.12 110.51 35.12C110.798 35.12 111.07 35.072 111.326 34.976C111.582 34.864 111.806 34.704 111.998 34.496C112.19 34.272 112.334 33.992 112.43 33.656C112.542 33.304 112.598 32.896 112.598 32.432V26H116.678V38H113.03L112.91 35.744C112.526 36.592 111.99 37.224 111.302 37.64C110.614 38.04 109.782 38.24 108.806 38.24ZM119.609 38V26H123.209L123.377 28.592C123.681 27.696 124.129 27 124.721 26.504C125.329 26.008 126.097 25.76 127.025 25.76C127.329 25.76 127.585 25.784 127.793 25.832C128.017 25.88 128.193 25.944 128.321 26.024L127.913 29.384C127.753 29.32 127.545 29.272 127.289 29.24C127.049 29.192 126.753 29.168 126.401 29.168C125.921 29.168 125.473 29.272 125.057 29.48C124.641 29.688 124.305 30 124.049 30.416C123.809 30.816 123.689 31.328 123.689 31.952V38H119.609ZM136.414 38V26H140.062L140.278 30.128L139.822 29.672C139.982 28.808 140.262 28.088 140.662 27.512C141.078 26.936 141.59 26.504 142.198 26.216C142.822 25.912 143.518 25.76 144.286 25.76C145.118 25.76 145.838 25.92 146.446 26.24C147.07 26.56 147.558 27.032 147.91 27.656C148.262 28.28 148.438 29.064 148.438 30.008V38H144.358V31.088C144.358 30.256 144.198 29.68 143.878 29.36C143.558 29.04 143.15 28.88 142.654 28.88C142.27 28.88 141.91 28.976 141.574 29.168C141.238 29.344 140.974 29.632 140.782 30.032C140.59 30.432 140.494 30.968 140.494 31.64V38H136.414ZM155.353 38.24C154.537 38.24 153.817 38.104 153.193 37.832C152.585 37.544 152.105 37.088 151.753 36.464C151.401 35.84 151.225 35.024 151.225 34.016V26H155.305V33.056C155.305 33.824 155.457 34.36 155.761 34.664C156.065 34.968 156.497 35.12 157.057 35.12C157.345 35.12 157.617 35.072 157.873 34.976C158.129 34.864 158.353 34.704 158.545 34.496C158.737 34.272 158.881 33.992 158.977 33.656C159.089 33.304 159.145 32.896 159.145 32.432V26H163.225V38H159.577L159.457 35.744C159.073 36.592 158.537 37.224 157.849 37.64C157.161 38.04 156.329 38.24 155.353 38.24ZM166.156 38V26H169.804L169.924 28.328C170.308 27.48 170.844 26.84 171.532 26.408C172.236 25.976 173.044 25.76 173.956 25.76C174.852 25.76 175.628 25.96 176.284 26.36C176.94 26.76 177.428 27.352 177.748 28.136C178.004 27.608 178.332 27.168 178.732 26.816C179.148 26.464 179.62 26.2 180.148 26.024C180.676 25.848 181.22 25.76 181.78 25.76C182.58 25.76 183.284 25.92 183.892 26.24C184.5 26.544 184.98 27.016 185.332 27.656C185.7 28.28 185.884 29.064 185.884 30.008V38H181.804V30.944C181.804 30.176 181.652 29.64 181.348 29.336C181.06 29.032 180.668 28.88 180.172 28.88C179.772 28.88 179.404 28.984 179.068 29.192C178.748 29.384 178.5 29.68 178.324 30.08C178.148 30.48 178.06 30.984 178.06 31.592V38H173.98V30.944C173.98 30.176 173.828 29.64 173.524 29.336C173.22 29.032 172.828 28.88 172.348 28.88C171.98 28.88 171.628 28.976 171.292 29.168C170.972 29.36 170.716 29.664 170.524 30.08C170.332 30.48 170.236 31.008 170.236 31.664V38H166.156ZM196.454 38.24C195.67 38.24 194.974 38.064 194.366 37.712C193.774 37.36 193.286 36.88 192.902 36.272C192.518 35.648 192.27 34.944 192.158 34.16L192.542 33.656L192.326 38H188.75V20.912H192.83V29.768L192.446 29.192C192.67 28.2 193.126 27.384 193.814 26.744C194.502 26.088 195.43 25.76 196.598 25.76C197.526 25.76 198.35 26.008 199.07 26.504C199.806 27 200.374 27.72 200.774 28.664C201.19 29.592 201.398 30.72 201.398 32.048C201.398 33.344 201.19 34.456 200.774 35.384C200.358 36.312 199.782 37.024 199.046 37.52C198.31 38 197.446 38.24 196.454 38.24ZM195.038 35.24C195.742 35.24 196.294 34.984 196.694 34.472C197.094 33.944 197.294 33.12 197.294 32C197.294 30.88 197.094 30.064 196.694 29.552C196.294 29.024 195.742 28.76 195.038 28.76C194.574 28.76 194.174 28.896 193.838 29.168C193.518 29.424 193.27 29.792 193.094 30.272C192.918 30.752 192.83 31.336 192.83 32.024C192.83 32.712 192.918 33.296 193.094 33.776C193.27 34.256 193.526 34.624 193.862 34.88C194.198 35.12 194.59 35.24 195.038 35.24ZM209.653 38.24C208.325 38.24 207.173 37.992 206.197 37.496C205.237 37 204.493 36.288 203.965 35.36C203.437 34.432 203.173 33.312 203.173 32C203.173 30.688 203.437 29.568 203.965 28.64C204.493 27.712 205.229 27 206.173 26.504C207.133 26.008 208.229 25.76 209.461 25.76C210.725 25.76 211.797 26.008 212.677 26.504C213.573 26.984 214.253 27.656 214.717 28.52C215.181 29.368 215.413 30.344 215.413 31.448C215.413 31.736 215.405 32.024 215.389 32.312C215.373 32.6 215.349 32.84 215.317 33.032H205.813V30.848H213.517L211.573 31.592C211.573 30.632 211.397 29.896 211.045 29.384C210.709 28.872 210.181 28.616 209.461 28.616C208.949 28.616 208.509 28.736 208.141 28.976C207.789 29.216 207.517 29.592 207.325 30.104C207.149 30.616 207.061 31.272 207.061 32.072C207.061 32.856 207.165 33.496 207.373 33.992C207.581 34.472 207.877 34.824 208.261 35.048C208.645 35.256 209.109 35.36 209.653 35.36C210.261 35.36 210.741 35.24 211.093 35C211.461 34.76 211.733 34.424 211.909 33.992L215.173 35.072C214.949 35.76 214.557 36.344 213.997 36.824C213.453 37.288 212.797 37.64 212.029 37.88C211.277 38.12 210.485 38.24 209.653 38.24ZM217.695 38V26H221.295L221.463 28.592C221.767 27.696 222.215 27 222.807 26.504C223.415 26.008 224.183 25.76 225.111 25.76C225.415 25.76 225.671 25.784 225.879 25.832C226.103 25.88 226.279 25.944 226.407 26.024L225.999 29.384C225.839 29.32 225.631 29.272 225.375 29.24C225.135 29.192 224.839 29.168 224.487 29.168C224.007 29.168 223.559 29.272 223.143 29.48C222.727 29.688 222.391 30 222.135 30.416C221.895 30.816 221.775 31.328 221.775 31.952V38H217.695Z" fill="black"/>
<path d="M232.491 38V35.36C233.851 34.512 235.011 33.72 235.971 32.984C236.931 32.248 237.707 31.552 238.299 30.896C238.907 30.24 239.355 29.616 239.643 29.024C239.931 28.432 240.075 27.856 240.075 27.296C240.075 26.688 239.891 26.184 239.523 25.784C239.171 25.368 238.643 25.16 237.939 25.16C237.187 25.16 236.603 25.44 236.187 26C235.771 26.544 235.547 27.344 235.515 28.4L231.987 27.32C232.019 26.136 232.299 25.144 232.827 24.344C233.371 23.544 234.107 22.944 235.035 22.544C235.963 22.128 237.019 21.92 238.203 21.92C239.243 21.92 240.139 22.072 240.891 22.376C241.659 22.664 242.283 23.056 242.763 23.552C243.243 24.032 243.595 24.576 243.819 25.184C244.059 25.776 244.179 26.384 244.179 27.008C244.179 28.032 243.915 28.992 243.387 29.888C242.859 30.768 242.091 31.624 241.083 32.456C240.091 33.272 238.883 34.096 237.459 34.928V34.952C237.731 34.936 238.051 34.92 238.419 34.904C238.787 34.888 239.171 34.88 239.571 34.88C239.971 34.864 240.331 34.856 240.651 34.856H244.371V38H232.491Z" fill="black"/>
<path d="M260.958 20.912L254.238 39.68H250.446L257.166 20.912H260.958Z" fill="black"/>
<path d="M267.491 38V35.36C268.851 34.512 270.011 33.72 270.971 32.984C271.931 32.248 272.707 31.552 273.299 30.896C273.907 30.24 274.355 29.616 274.643 29.024C274.931 28.432 275.075 27.856 275.075 27.296C275.075 26.688 274.891 26.184 274.523 25.784C274.171 25.368 273.643 25.16 272.939 25.16C272.187 25.16 271.603 25.44 271.187 26C270.771 26.544 270.547 27.344 270.515 28.4L266.987 27.32C267.019 26.136 267.299 25.144 267.827 24.344C268.371 23.544 269.107 22.944 270.035 22.544C270.963 22.128 272.019 21.92 273.203 21.92C274.243 21.92 275.139 22.072 275.891 22.376C276.659 22.664 277.283 23.056 277.763 23.552C278.243 24.032 278.595 24.576 278.819 25.184C279.059 25.776 279.179 26.384 279.179 27.008C279.179 28.032 278.915 28.992 278.387 29.888C277.859 30.768 277.091 31.624 276.083 32.456C275.091 33.272 273.883 34.096 272.459 34.928V34.952C272.731 34.936 273.051 34.92 273.419 34.904C273.787 34.888 274.171 34.88 274.571 34.88C274.971 34.864 275.331 34.856 275.651 34.856H279.371V38H267.491Z" fill="black"/>
</svg>
