<svg width="276" height="60" viewBox="0 0 276 60" fill="none" xmlns="http://www.w3.org/2000/svg">
<path d="M16.9567 38H12.7087L11.6047 34.424H6.18069L5.05269 38H0.900688L6.46869 22.16H11.4127L16.9567 38ZM6.94869 31.616H10.8367L8.89269 25.208L6.94869 31.616ZM22.5753 38.24C21.5833 38.24 20.7113 38 19.9593 37.52C19.2233 37.024 18.6473 36.312 18.2313 35.384C17.8313 34.456 17.6313 33.344 17.6313 32.048C17.6313 30.704 17.8393 29.568 18.2553 28.64C18.6873 27.712 19.2793 27 20.0313 26.504C20.7993 26.008 21.6793 25.76 22.6713 25.76C23.7593 25.76 24.6313 26.096 25.2873 26.768C25.9593 27.424 26.3913 28.264 26.5833 29.288L26.1993 29.792V20.912H30.2793V38H26.6313L26.3673 33.92L26.8473 34.28C26.7513 35.08 26.5033 35.776 26.1033 36.368C25.7193 36.96 25.2233 37.424 24.6153 37.76C24.0233 38.08 23.3433 38.24 22.5753 38.24ZM23.9913 35.24C24.4553 35.24 24.8473 35.12 25.1673 34.88C25.5033 34.624 25.7593 34.248 25.9353 33.752C26.1113 33.256 26.1993 32.648 26.1993 31.928C26.1993 31.256 26.1113 30.688 25.9353 30.224C25.7753 29.744 25.5273 29.384 25.1913 29.144C24.8713 28.888 24.4793 28.76 24.0153 28.76C23.3113 28.76 22.7513 29.024 22.3353 29.552C21.9353 30.064 21.7353 30.88 21.7353 32C21.7353 33.12 21.9353 33.944 22.3353 34.472C22.7353 34.984 23.2873 35.24 23.9913 35.24ZM37.6222 38.24C36.6302 38.24 35.7582 38 35.0062 37.52C34.2702 37.024 33.6942 36.312 33.2782 35.384C32.8782 34.456 32.6782 33.344 32.6782 32.048C32.6782 30.704 32.8862 29.568 33.3022 28.64C33.7342 27.712 34.3262 27 35.0782 26.504C35.8462 26.008 36.7262 25.76 37.7182 25.76C38.8062 25.76 39.6782 26.096 40.3342 26.768C41.0062 27.424 41.4382 28.264 41.6302 29.288L41.2462 29.792V20.912H45.3262V38H41.6782L41.4142 33.92L41.8942 34.28C41.7982 35.08 41.5502 35.776 41.1502 36.368C40.7662 36.96 40.2702 37.424 39.6622 37.76C39.0702 38.08 38.3902 38.24 37.6222 38.24ZM39.0382 35.24C39.5022 35.24 39.8942 35.12 40.2142 34.88C40.5502 34.624 40.8062 34.248 40.9822 33.752C41.1582 33.256 41.2462 32.648 41.2462 31.928C41.2462 31.256 41.1582 30.688 40.9822 30.224C40.8222 29.744 40.5742 29.384 40.2382 29.144C39.9182 28.888 39.5262 28.76 39.0622 28.76C38.3582 28.76 37.7982 29.024 37.3822 29.552C36.9822 30.064 36.7822 30.88 36.7822 32C36.7822 33.12 36.9822 33.944 37.3822 34.472C37.7822 34.984 38.3342 35.24 39.0382 35.24ZM55.1203 43.04V26H58.7923L59.0083 30.344L58.5283 29.84C58.6403 29.04 58.8883 28.336 59.2723 27.728C59.6563 27.12 60.1523 26.64 60.7603 26.288C61.3683 25.936 62.0643 25.76 62.8483 25.76C63.8403 25.76 64.7043 26.008 65.4403 26.504C66.1763 26.984 66.7443 27.688 67.1443 28.616C67.5603 29.528 67.7682 30.64 67.7682 31.952C67.7682 33.264 67.5603 34.392 67.1443 35.336C66.7283 36.28 66.1443 37 65.3923 37.496C64.6563 37.992 63.7923 38.24 62.8003 38.24C61.7123 38.24 60.8323 37.92 60.1603 37.28C59.4883 36.624 59.0403 35.8 58.8163 34.808L59.2003 34.232V43.04H55.1203ZM61.4083 35.24C62.1123 35.24 62.6643 34.984 63.0643 34.472C63.4643 33.944 63.6643 33.12 63.6643 32C63.6643 30.88 63.4643 30.064 63.0643 29.552C62.6803 29.024 62.1363 28.76 61.4323 28.76C60.9843 28.76 60.5923 28.888 60.2563 29.144C59.9203 29.384 59.6563 29.744 59.4643 30.224C59.2883 30.704 59.2003 31.296 59.2003 32C59.2003 32.672 59.2803 33.256 59.4403 33.752C59.6163 34.232 59.8723 34.6 60.2083 34.856C60.5443 35.112 60.9443 35.24 61.4083 35.24ZM70.1671 38V20.912H74.2471V28.184C74.5991 27.384 75.1031 26.784 75.7591 26.384C76.4151 25.968 77.1751 25.76 78.0391 25.76C78.8711 25.76 79.5911 25.92 80.1991 26.24C80.8231 26.56 81.3111 27.032 81.6631 27.656C82.0151 28.28 82.1911 29.064 82.1911 30.008V38H78.1111V31.136C78.1111 30.272 77.9511 29.68 77.6311 29.36C77.3271 29.024 76.9191 28.856 76.4071 28.856C76.0231 28.856 75.6631 28.952 75.3271 29.144C74.9911 29.336 74.7271 29.64 74.5351 30.056C74.3431 30.472 74.2471 31.016 74.2471 31.688V38H70.1671ZM90.7619 25.76C92.0259 25.76 93.1299 26.008 94.0739 26.504C95.0339 26.984 95.7779 27.696 96.3059 28.64C96.8499 29.568 97.1219 30.688 97.1219 32C97.1219 33.312 96.8499 34.44 96.3059 35.384C95.7779 36.312 95.0339 37.024 94.0739 37.52C93.1299 38 92.0259 38.24 90.7619 38.24C89.5299 38.24 88.4339 38 87.4739 37.52C86.5139 37.024 85.7619 36.312 85.2179 35.384C84.6899 34.44 84.4259 33.312 84.4259 32C84.4259 30.688 84.6899 29.568 85.2179 28.64C85.7619 27.696 86.5139 26.984 87.4739 26.504C88.4339 26.008 89.5299 25.76 90.7619 25.76ZM90.7619 28.664C90.2979 28.664 89.8979 28.776 89.5619 29C89.2259 29.224 88.9699 29.584 88.7939 30.08C88.6179 30.576 88.5299 31.216 88.5299 32C88.5299 32.784 88.6179 33.424 88.7939 33.92C88.9699 34.4 89.2259 34.76 89.5619 35C89.8979 35.224 90.2979 35.336 90.7619 35.336C91.2419 35.336 91.6499 35.224 91.9859 35C92.3219 34.76 92.5779 34.4 92.7539 33.92C92.9299 33.424 93.0179 32.784 93.0179 32C93.0179 31.216 92.9299 30.576 92.7539 30.08C92.5779 29.584 92.3219 29.224 91.9859 29C91.6499 28.776 91.2419 28.664 90.7619 28.664ZM99.4171 38V26H103.065L103.281 30.128L102.825 29.672C102.985 28.808 103.265 28.088 103.665 27.512C104.081 26.936 104.593 26.504 105.201 26.216C105.825 25.912 106.521 25.76 107.289 25.76C108.121 25.76 108.841 25.92 109.449 26.24C110.073 26.56 110.561 27.032 110.913 27.656C111.265 28.28 111.441 29.064 111.441 30.008V38H107.361V31.088C107.361 30.256 107.201 29.68 106.881 29.36C106.561 29.04 106.153 28.88 105.657 28.88C105.273 28.88 104.913 28.976 104.577 29.168C104.241 29.344 103.977 29.632 103.785 30.032C103.593 30.432 103.497 30.968 103.497 31.64V38H99.4171ZM120.156 38.24C118.828 38.24 117.676 37.992 116.7 37.496C115.74 37 114.996 36.288 114.468 35.36C113.94 34.432 113.676 33.312 113.676 32C113.676 30.688 113.94 29.568 114.468 28.64C114.996 27.712 115.732 27 116.676 26.504C117.636 26.008 118.732 25.76 119.964 25.76C121.228 25.76 122.3 26.008 123.18 26.504C124.076 26.984 124.756 27.656 125.22 28.52C125.684 29.368 125.916 30.344 125.916 31.448C125.916 31.736 125.908 32.024 125.892 32.312C125.876 32.6 125.852 32.84 125.82 33.032H116.316V30.848H124.02L122.076 31.592C122.076 30.632 121.9 29.896 121.548 29.384C121.212 28.872 120.684 28.616 119.964 28.616C119.452 28.616 119.012 28.736 118.644 28.976C118.292 29.216 118.02 29.592 117.828 30.104C117.652 30.616 117.564 31.272 117.564 32.072C117.564 32.856 117.668 33.496 117.876 33.992C118.084 34.472 118.38 34.824 118.764 35.048C119.148 35.256 119.612 35.36 120.156 35.36C120.764 35.36 121.244 35.24 121.596 35C121.964 34.76 122.236 34.424 122.412 33.992L125.676 35.072C125.452 35.76 125.06 36.344 124.5 36.824C123.956 37.288 123.3 37.64 122.532 37.88C121.78 38.12 120.988 38.24 120.156 38.24ZM135.066 38V26H138.714L138.93 30.128L138.474 29.672C138.634 28.808 138.914 28.088 139.314 27.512C139.73 26.936 140.242 26.504 140.85 26.216C141.474 25.912 142.17 25.76 142.938 25.76C143.77 25.76 144.49 25.92 145.098 26.24C145.722 26.56 146.21 27.032 146.562 27.656C146.914 28.28 147.09 29.064 147.09 30.008V38H143.01V31.088C143.01 30.256 142.85 29.68 142.53 29.36C142.21 29.04 141.802 28.88 141.306 28.88C140.922 28.88 140.562 28.976 140.226 29.168C139.89 29.344 139.626 29.632 139.434 30.032C139.242 30.432 139.146 30.968 139.146 31.64V38H135.066ZM154.004 38.24C153.188 38.24 152.468 38.104 151.844 37.832C151.236 37.544 150.756 37.088 150.404 36.464C150.052 35.84 149.876 35.024 149.876 34.016V26H153.956V33.056C153.956 33.824 154.108 34.36 154.412 34.664C154.716 34.968 155.148 35.12 155.708 35.12C155.996 35.12 156.268 35.072 156.524 34.976C156.78 34.864 157.004 34.704 157.196 34.496C157.388 34.272 157.532 33.992 157.628 33.656C157.74 33.304 157.796 32.896 157.796 32.432V26H161.876V38H158.228L158.108 35.744C157.724 36.592 157.188 37.224 156.5 37.64C155.812 38.04 154.98 38.24 154.004 38.24ZM164.808 38V26H168.456L168.576 28.328C168.96 27.48 169.496 26.84 170.184 26.408C170.888 25.976 171.696 25.76 172.608 25.76C173.504 25.76 174.28 25.96 174.936 26.36C175.592 26.76 176.08 27.352 176.4 28.136C176.656 27.608 176.984 27.168 177.384 26.816C177.8 26.464 178.272 26.2 178.8 26.024C179.328 25.848 179.872 25.76 180.432 25.76C181.232 25.76 181.936 25.92 182.544 26.24C183.152 26.544 183.632 27.016 183.984 27.656C184.352 28.28 184.536 29.064 184.536 30.008V38H180.456V30.944C180.456 30.176 180.304 29.64 180 29.336C179.712 29.032 179.32 28.88 178.824 28.88C178.424 28.88 178.056 28.984 177.72 29.192C177.4 29.384 177.152 29.68 176.976 30.08C176.8 30.48 176.712 30.984 176.712 31.592V38H172.632V30.944C172.632 30.176 172.48 29.64 172.176 29.336C171.872 29.032 171.48 28.88 171 28.88C170.632 28.88 170.28 28.976 169.944 29.168C169.624 29.36 169.368 29.664 169.176 30.08C168.984 30.48 168.888 31.008 168.888 31.664V38H164.808ZM195.106 38.24C194.322 38.24 193.626 38.064 193.018 37.712C192.426 37.36 191.938 36.88 191.554 36.272C191.17 35.648 190.922 34.944 190.81 34.16L191.194 33.656L190.978 38H187.402V20.912H191.482V29.768L191.098 29.192C191.322 28.2 191.778 27.384 192.466 26.744C193.154 26.088 194.082 25.76 195.25 25.76C196.178 25.76 197.002 26.008 197.722 26.504C198.458 27 199.026 27.72 199.426 28.664C199.842 29.592 200.049 30.72 200.049 32.048C200.049 33.344 199.842 34.456 199.426 35.384C199.01 36.312 198.434 37.024 197.698 37.52C196.962 38 196.098 38.24 195.106 38.24ZM193.69 35.24C194.394 35.24 194.946 34.984 195.346 34.472C195.746 33.944 195.946 33.12 195.946 32C195.946 30.88 195.746 30.064 195.346 29.552C194.946 29.024 194.394 28.76 193.69 28.76C193.226 28.76 192.826 28.896 192.49 29.168C192.17 29.424 191.922 29.792 191.746 30.272C191.57 30.752 191.482 31.336 191.482 32.024C191.482 32.712 191.57 33.296 191.746 33.776C191.922 34.256 192.178 34.624 192.514 34.88C192.85 35.12 193.242 35.24 193.69 35.24ZM208.304 38.24C206.976 38.24 205.824 37.992 204.848 37.496C203.888 37 203.144 36.288 202.616 35.36C202.088 34.432 201.824 33.312 201.824 32C201.824 30.688 202.088 29.568 202.616 28.64C203.144 27.712 203.88 27 204.824 26.504C205.784 26.008 206.88 25.76 208.112 25.76C209.376 25.76 210.448 26.008 211.328 26.504C212.224 26.984 212.904 27.656 213.368 28.52C213.832 29.368 214.064 30.344 214.064 31.448C214.064 31.736 214.056 32.024 214.04 32.312C214.024 32.6 214 32.84 213.968 33.032H204.464V30.848H212.168L210.224 31.592C210.224 30.632 210.048 29.896 209.696 29.384C209.36 28.872 208.832 28.616 208.112 28.616C207.6 28.616 207.16 28.736 206.792 28.976C206.44 29.216 206.168 29.592 205.976 30.104C205.8 30.616 205.712 31.272 205.712 32.072C205.712 32.856 205.816 33.496 206.024 33.992C206.232 34.472 206.528 34.824 206.912 35.048C207.296 35.256 207.76 35.36 208.304 35.36C208.912 35.36 209.392 35.24 209.744 35C210.112 34.76 210.384 34.424 210.56 33.992L213.824 35.072C213.6 35.76 213.208 36.344 212.648 36.824C212.104 37.288 211.448 37.64 210.68 37.88C209.928 38.12 209.136 38.24 208.304 38.24ZM216.347 38V26H219.947L220.115 28.592C220.419 27.696 220.867 27 221.459 26.504C222.067 26.008 222.835 25.76 223.763 25.76C224.067 25.76 224.323 25.784 224.531 25.832C224.755 25.88 224.931 25.944 225.059 26.024L224.651 29.384C224.491 29.32 224.283 29.272 224.027 29.24C223.787 29.192 223.491 29.168 223.139 29.168C222.659 29.168 222.211 29.272 221.795 29.48C221.379 29.688 221.043 30 220.787 30.416C220.547 30.816 220.427 31.328 220.427 31.952V38H216.347Z" fill="black"/>
<path d="M234.416 38V28.88C234.416 28.464 234.416 28.04 234.416 27.608C234.432 27.16 234.44 26.704 234.44 26.24C233.912 26.72 233.328 27.144 232.688 27.512C232.048 27.864 231.376 28.104 230.672 28.232L230.288 24.824C230.704 24.792 231.144 24.688 231.608 24.512C232.088 24.336 232.56 24.12 233.024 23.864C233.488 23.608 233.904 23.336 234.272 23.048C234.64 22.744 234.92 22.448 235.112 22.16H238.4V38H234.416Z" fill="black"/>
<path d="M255.759 20.912L249.039 39.68H245.247L251.967 20.912H255.759Z" fill="black"/>
<path d="M262.292 38V35.36C263.652 34.512 264.812 33.72 265.772 32.984C266.732 32.248 267.508 31.552 268.1 30.896C268.708 30.24 269.156 29.616 269.444 29.024C269.732 28.432 269.876 27.856 269.876 27.296C269.876 26.688 269.692 26.184 269.324 25.784C268.972 25.368 268.444 25.16 267.74 25.16C266.988 25.16 266.404 25.44 265.988 26C265.572 26.544 265.348 27.344 265.316 28.4L261.788 27.32C261.82 26.136 262.1 25.144 262.628 24.344C263.172 23.544 263.908 22.944 264.836 22.544C265.764 22.128 266.82 21.92 268.004 21.92C269.044 21.92 269.94 22.072 270.692 22.376C271.46 22.664 272.084 23.056 272.564 23.552C273.044 24.032 273.396 24.576 273.62 25.184C273.86 25.776 273.98 26.384 273.98 27.008C273.98 28.032 273.716 28.992 273.188 29.888C272.66 30.768 271.892 31.624 270.884 32.456C269.892 33.272 268.684 34.096 267.26 34.928V34.952C267.532 34.936 267.852 34.92 268.22 34.904C268.588 34.888 268.972 34.88 269.372 34.88C269.772 34.864 270.132 34.856 270.452 34.856H274.172V38H262.292Z" fill="black"/>
</svg>
