<svg width="327" height="26" viewBox="0 0 327 26" fill="none" xmlns="http://www.w3.org/2000/svg">
<path d="M1.40909 19V7.36364H5.34091C6.25379 7.36364 7 7.52841 7.57955 7.85795C8.16288 8.18371 8.5947 8.625 8.875 9.18182C9.1553 9.73864 9.29545 10.3598 9.29545 11.0455C9.29545 11.7311 9.1553 12.3542 8.875 12.9148C8.59849 13.4754 8.17046 13.9223 7.59091 14.2557C7.01136 14.5852 6.26894 14.75 5.36364 14.75H2.54545V13.5H5.31818C5.94318 13.5 6.44508 13.392 6.82386 13.1761C7.20265 12.9602 7.47727 12.6686 7.64773 12.3011C7.82197 11.9299 7.90909 11.5114 7.90909 11.0455C7.90909 10.5795 7.82197 10.1629 7.64773 9.79545C7.47727 9.42803 7.20076 9.14015 6.81818 8.93182C6.43561 8.7197 5.92803 8.61364 5.29545 8.61364H2.81818V19H1.40909ZM12.7244 13.75V19H11.3835V7.36364H12.7244V11.6364H12.8381C13.0426 11.1856 13.3494 10.8277 13.7585 10.5625C14.1714 10.2936 14.7206 10.1591 15.4062 10.1591C16.0009 10.1591 16.5218 10.2784 16.9688 10.517C17.4157 10.7519 17.7623 11.1136 18.0085 11.6023C18.2585 12.0871 18.3835 12.7045 18.3835 13.4545V19H17.0426V13.5455C17.0426 12.8523 16.8627 12.3163 16.5028 11.9375C16.1468 11.5549 15.6525 11.3636 15.0199 11.3636C14.5805 11.3636 14.1866 11.4564 13.8381 11.642C13.4934 11.8277 13.2206 12.0985 13.0199 12.4545C12.8229 12.8106 12.7244 13.2424 12.7244 13.75ZM24.3821 19.1818C23.5942 19.1818 22.9029 18.9943 22.3082 18.6193C21.7173 18.2443 21.2552 17.7197 20.9219 17.0455C20.5923 16.3712 20.4276 15.5833 20.4276 14.6818C20.4276 13.7727 20.5923 12.9792 20.9219 12.3011C21.2552 11.6231 21.7173 11.0966 22.3082 10.7216C22.9029 10.3466 23.5942 10.1591 24.3821 10.1591C25.17 10.1591 25.8594 10.3466 26.4503 10.7216C27.045 11.0966 27.5071 11.6231 27.8366 12.3011C28.17 12.9792 28.3366 13.7727 28.3366 14.6818C28.3366 15.5833 28.17 16.3712 27.8366 17.0455C27.5071 17.7197 27.045 18.2443 26.4503 18.6193C25.8594 18.9943 25.17 19.1818 24.3821 19.1818ZM24.3821 17.9773C24.9806 17.9773 25.473 17.8239 25.8594 17.517C26.2457 17.2102 26.5317 16.8068 26.7173 16.3068C26.9029 15.8068 26.9957 15.2652 26.9957 14.6818C26.9957 14.0985 26.9029 13.5549 26.7173 13.0511C26.5317 12.5473 26.2457 12.1402 25.8594 11.8295C25.473 11.5189 24.9806 11.3636 24.3821 11.3636C23.7836 11.3636 23.2912 11.5189 22.9048 11.8295C22.5185 12.1402 22.2325 12.5473 22.0469 13.0511C21.8613 13.5549 21.7685 14.0985 21.7685 14.6818C21.7685 15.2652 21.8613 15.8068 22.0469 16.3068C22.2325 16.8068 22.5185 17.2102 22.9048 17.517C23.2912 17.8239 23.7836 17.9773 24.3821 17.9773ZM31.7244 13.75V19H30.3835V10.2727H31.679V11.6364H31.7926C31.9972 11.1932 32.3078 10.8371 32.7244 10.5682C33.1411 10.2955 33.679 10.1591 34.3381 10.1591C34.929 10.1591 35.446 10.2803 35.8892 10.5227C36.3324 10.7614 36.6771 11.125 36.9233 11.6136C37.1695 12.0985 37.2926 12.7121 37.2926 13.4545V19H35.9517V13.5455C35.9517 12.8598 35.7737 12.3258 35.4176 11.9432C35.0616 11.5568 34.5729 11.3636 33.9517 11.3636C33.5237 11.3636 33.1411 11.4564 32.804 11.642C32.4706 11.8277 32.2074 12.0985 32.0142 12.4545C31.821 12.8106 31.7244 13.2424 31.7244 13.75ZM43.402 19.1818C42.5611 19.1818 41.8357 18.9962 41.2259 18.625C40.6198 18.25 40.152 17.7273 39.8224 17.0568C39.4967 16.3826 39.3338 15.5985 39.3338 14.7045C39.3338 13.8106 39.4967 13.0227 39.8224 12.3409C40.152 11.6553 40.6103 11.1212 41.1974 10.7386C41.7884 10.3523 42.4777 10.1591 43.2656 10.1591C43.7202 10.1591 44.169 10.2348 44.6122 10.3864C45.0554 10.5379 45.4588 10.7841 45.8224 11.125C46.1861 11.4621 46.4759 11.9091 46.6918 12.4659C46.9077 13.0227 47.0156 13.7083 47.0156 14.5227V15.0909H40.2884V13.9318H45.652C45.652 13.4394 45.5535 13 45.3565 12.6136C45.1634 12.2273 44.8868 11.9223 44.527 11.6989C44.1709 11.4754 43.7505 11.3636 43.2656 11.3636C42.7315 11.3636 42.2694 11.4962 41.8793 11.7614C41.4929 12.0227 41.1955 12.3636 40.9872 12.7841C40.7789 13.2045 40.6747 13.6553 40.6747 14.1364V14.9091C40.6747 15.5682 40.7884 16.1269 41.0156 16.5852C41.2467 17.0398 41.5668 17.3864 41.9759 17.625C42.3849 17.8598 42.8603 17.9773 43.402 17.9773C43.7543 17.9773 44.0724 17.928 44.3565 17.8295C44.6444 17.7273 44.8925 17.5758 45.1009 17.375C45.3092 17.1705 45.4702 16.9167 45.5838 16.6136L46.8793 16.9773C46.7429 17.4167 46.5137 17.803 46.1918 18.1364C45.8698 18.4659 45.4721 18.7235 44.9986 18.9091C44.5251 19.0909 43.9929 19.1818 43.402 19.1818ZM62.9645 7.36364V19H61.6009L55.2599 9.86364H55.1463V19H53.7372V7.36364H55.1009L61.4645 16.5227H61.5781V7.36364H62.9645ZM71.1023 15.4318V10.2727H72.4432V19H71.1023V17.5227H71.0114C70.8068 17.9659 70.4886 18.3428 70.0568 18.6534C69.625 18.9602 69.0795 19.1136 68.4205 19.1136C67.875 19.1136 67.3902 18.9943 66.9659 18.7557C66.5417 18.5133 66.2083 18.1496 65.9659 17.6648C65.7235 17.1761 65.6023 16.5606 65.6023 15.8182V10.2727H66.9432V15.7273C66.9432 16.3636 67.1212 16.8712 67.4773 17.25C67.8371 17.6288 68.2955 17.8182 68.8523 17.8182C69.1856 17.8182 69.5246 17.733 69.8693 17.5625C70.2178 17.392 70.5095 17.1307 70.7443 16.7784C70.983 16.4261 71.1023 15.9773 71.1023 15.4318ZM74.8991 19V10.2727H76.1946V11.6364H76.3082C76.4901 11.1705 76.7836 10.8087 77.1889 10.5511C77.5942 10.2898 78.081 10.1591 78.6491 10.1591C79.2249 10.1591 79.7041 10.2898 80.0866 10.5511C80.473 10.8087 80.7741 11.1705 80.9901 11.6364H81.081C81.3045 11.1856 81.6397 10.8277 82.0866 10.5625C82.5336 10.2936 83.0696 10.1591 83.6946 10.1591C84.4749 10.1591 85.1132 10.4034 85.6094 10.892C86.1056 11.3769 86.3537 12.1326 86.3537 13.1591V19H85.0128V13.1591C85.0128 12.5152 84.8366 12.0549 84.4844 11.7784C84.1321 11.5019 83.7173 11.3636 83.2401 11.3636C82.6264 11.3636 82.151 11.5492 81.8139 11.9205C81.4768 12.2879 81.3082 12.7538 81.3082 13.3182V19H79.9446V13.0227C79.9446 12.5265 79.7836 12.1269 79.4616 11.8239C79.1397 11.517 78.7249 11.3636 78.2173 11.3636C77.8688 11.3636 77.5431 11.4564 77.2401 11.642C76.9408 11.8277 76.6984 12.0852 76.5128 12.4148C76.331 12.7405 76.2401 13.1174 76.2401 13.5455V19H74.8991ZM88.9872 19V7.36364H90.3281V11.6591H90.4418C90.5402 11.5076 90.6766 11.3144 90.8509 11.0795C91.0289 10.8409 91.2827 10.6288 91.6122 10.4432C91.9455 10.2538 92.3963 10.1591 92.9645 10.1591C93.6993 10.1591 94.3471 10.3428 94.9077 10.7102C95.4683 11.0777 95.9058 11.5985 96.2202 12.2727C96.5346 12.947 96.6918 13.7424 96.6918 14.6591C96.6918 15.5833 96.5346 16.3845 96.2202 17.0625C95.9058 17.7367 95.4702 18.2595 94.9134 18.6307C94.3565 18.9981 93.7145 19.1818 92.9872 19.1818C92.4266 19.1818 91.9777 19.089 91.6406 18.9034C91.3035 18.714 91.044 18.5 90.8622 18.2614C90.6804 18.0189 90.5402 17.8182 90.4418 17.6591H90.2827V19H88.9872ZM90.3054 14.6364C90.3054 15.2955 90.402 15.8769 90.5952 16.3807C90.7884 16.8807 91.0705 17.2727 91.4418 17.5568C91.813 17.8371 92.2675 17.9773 92.8054 17.9773C93.366 17.9773 93.8338 17.8295 94.2088 17.5341C94.5876 17.2348 94.8717 16.8333 95.0611 16.3295C95.2543 15.822 95.3509 15.2576 95.3509 14.6364C95.3509 14.0227 95.2562 13.4697 95.0668 12.9773C94.8812 12.4811 94.599 12.089 94.2202 11.8011C93.8452 11.5095 93.3736 11.3636 92.8054 11.3636C92.2599 11.3636 91.8016 11.5019 91.4304 11.7784C91.0592 12.0511 90.7789 12.4337 90.5895 12.9261C90.4001 13.4148 90.3054 13.9848 90.3054 14.6364ZM102.402 19.1818C101.561 19.1818 100.836 18.9962 100.226 18.625C99.6198 18.25 99.152 17.7273 98.8224 17.0568C98.4967 16.3826 98.3338 15.5985 98.3338 14.7045C98.3338 13.8106 98.4967 13.0227 98.8224 12.3409C99.152 11.6553 99.6103 11.1212 100.197 10.7386C100.788 10.3523 101.478 10.1591 102.266 10.1591C102.72 10.1591 103.169 10.2348 103.612 10.3864C104.055 10.5379 104.459 10.7841 104.822 11.125C105.186 11.4621 105.476 11.9091 105.692 12.4659C105.908 13.0227 106.016 13.7083 106.016 14.5227V15.0909H99.2884V13.9318H104.652C104.652 13.4394 104.554 13 104.357 12.6136C104.163 12.2273 103.887 11.9223 103.527 11.6989C103.171 11.4754 102.75 11.3636 102.266 11.3636C101.732 11.3636 101.269 11.4962 100.879 11.7614C100.493 12.0227 100.196 12.3636 99.9872 12.7841C99.7789 13.2045 99.6747 13.6553 99.6747 14.1364V14.9091C99.6747 15.5682 99.7884 16.1269 100.016 16.5852C100.247 17.0398 100.567 17.3864 100.976 17.625C101.385 17.8598 101.86 17.9773 102.402 17.9773C102.754 17.9773 103.072 17.928 103.357 17.8295C103.644 17.7273 103.893 17.5758 104.101 17.375C104.309 17.1705 104.47 16.9167 104.584 16.6136L105.879 16.9773C105.743 17.4167 105.514 17.803 105.192 18.1364C104.87 18.4659 104.472 18.7235 103.999 18.9091C103.525 19.0909 102.993 19.1818 102.402 19.1818ZM108.055 19V10.2727H109.351V11.5909H109.442C109.601 11.1591 109.889 10.8087 110.305 10.5398C110.722 10.2708 111.192 10.1364 111.714 10.1364C111.813 10.1364 111.936 10.1383 112.084 10.142C112.232 10.1458 112.343 10.1515 112.419 10.1591V11.5227C112.374 11.5114 112.269 11.4943 112.107 11.4716C111.947 11.4451 111.779 11.4318 111.601 11.4318C111.177 11.4318 110.798 11.5208 110.464 11.6989C110.135 11.8731 109.874 12.1155 109.68 12.4261C109.491 12.733 109.396 13.0833 109.396 13.4773V19H108.055Z" fill="#121A2C"/>
</svg>
