<svg width="375" height="94" viewBox="0 0 375 94" fill="none" xmlns="http://www.w3.org/2000/svg">
<path d="M72.9253 26V15.8182H76.485C77.1943 15.8182 77.7793 15.9408 78.24 16.1861C78.7007 16.428 79.0437 16.7545 79.2691 17.1655C79.4945 17.5732 79.6072 18.0256 79.6072 18.5227C79.6072 18.9602 79.5293 19.3215 79.3735 19.6065C79.221 19.8916 79.0189 20.117 78.767 20.2827C78.5184 20.4484 78.2483 20.571 77.9566 20.6506V20.75C78.2681 20.7699 78.5814 20.8793 78.8962 21.0781C79.2111 21.277 79.4746 21.562 79.6867 21.9332C79.8988 22.3045 80.0049 22.7585 80.0049 23.2955C80.0049 23.8059 79.8889 24.2649 79.6569 24.6726C79.4249 25.0803 79.0586 25.4034 78.5581 25.642C78.0577 25.8807 77.4064 26 76.6043 26H72.9253ZM74.1583 24.9062H76.6043C77.4097 24.9062 77.9814 24.7505 78.3195 24.4389C78.6609 24.1241 78.8316 23.7429 78.8316 23.2955C78.8316 22.9508 78.7438 22.6326 78.5681 22.3409C78.3924 22.0459 78.1422 21.8106 77.8174 21.6349C77.4926 21.456 77.1081 21.3665 76.664 21.3665H74.1583V24.9062ZM74.1583 20.2926H76.4452C76.8164 20.2926 77.1512 20.2197 77.4495 20.0739C77.7511 19.928 77.9897 19.7225 78.1654 19.4574C78.3444 19.1922 78.4339 18.8807 78.4339 18.5227C78.4339 18.0753 78.2781 17.6958 77.9665 17.3842C77.655 17.0694 77.1611 16.9119 76.485 16.9119H74.1583V20.2926ZM82.6274 28.8636C82.4285 28.8636 82.2512 28.8471 82.0954 28.8139C81.9397 28.7841 81.8319 28.7543 81.7723 28.7244L82.0706 27.6903C82.3556 27.7633 82.6075 27.7898 82.8263 27.7699C83.045 27.75 83.2389 27.6522 83.4079 27.4766C83.5803 27.3042 83.7377 27.0241 83.8802 26.6364L84.099 26.0398L81.2751 18.3636H82.5479L84.6558 24.4489H84.7354L86.8433 18.3636H88.116L84.8746 27.1136C84.7287 27.508 84.5481 27.8345 84.3327 28.093C84.1172 28.3549 83.867 28.5488 83.5819 28.6747C83.3002 28.8007 82.982 28.8636 82.6274 28.8636ZM98.4147 22.8778V18.3636H99.588V26H98.4147V24.7074H98.3351C98.1562 25.0952 97.8778 25.425 97.4999 25.6967C97.1221 25.9652 96.6448 26.0994 96.0681 26.0994C95.5908 26.0994 95.1666 25.995 94.7954 25.7862C94.4242 25.5741 94.1325 25.2559 93.9204 24.8317C93.7082 24.4041 93.6022 23.8655 93.6022 23.2159V18.3636H94.7755V23.1364C94.7755 23.6932 94.9313 24.1373 95.2428 24.4688C95.5577 24.8002 95.9587 24.9659 96.4459 24.9659C96.7376 24.9659 97.0342 24.8913 97.3358 24.7422C97.6408 24.593 97.896 24.3643 98.1015 24.0561C98.3103 23.7479 98.4147 23.3551 98.4147 22.8778ZM107.146 20.0739L106.092 20.3722C106.026 20.1965 105.928 20.0258 105.799 19.8601C105.673 19.6911 105.5 19.5518 105.282 19.4425C105.063 19.3331 104.783 19.2784 104.441 19.2784C103.974 19.2784 103.585 19.3861 103.273 19.6016C102.965 19.8137 102.811 20.0838 102.811 20.4119C102.811 20.7036 102.917 20.9339 103.129 21.103C103.341 21.272 103.673 21.4129 104.123 21.5256L105.257 21.804C105.94 21.9697 106.448 22.2232 106.783 22.5646C107.118 22.9027 107.285 23.3385 107.285 23.8722C107.285 24.3097 107.159 24.7008 106.907 25.0455C106.659 25.3902 106.311 25.6619 105.863 25.8608C105.416 26.0597 104.896 26.1591 104.302 26.1591C103.523 26.1591 102.879 25.9901 102.368 25.652C101.858 25.3139 101.535 24.8201 101.399 24.1705L102.513 23.892C102.619 24.303 102.819 24.6113 103.114 24.8168C103.412 25.0223 103.802 25.125 104.282 25.125C104.829 25.125 105.263 25.009 105.585 24.777C105.91 24.5417 106.072 24.2599 106.072 23.9318C106.072 23.6667 105.979 23.4446 105.794 23.2656C105.608 23.0833 105.323 22.9474 104.939 22.858L103.666 22.5597C102.967 22.3939 102.453 22.1371 102.125 21.7891C101.8 21.4377 101.638 20.9986 101.638 20.4716C101.638 20.0407 101.758 19.6596 102 19.3281C102.246 18.9967 102.579 18.7365 103 18.5476C103.424 18.3587 103.905 18.2642 104.441 18.2642C105.197 18.2642 105.79 18.4299 106.221 18.7614C106.656 19.0928 106.964 19.5303 107.146 20.0739ZM109.051 26V18.3636H110.225V26H109.051ZM109.648 17.0909C109.419 17.0909 109.222 17.013 109.056 16.8572C108.894 16.7015 108.813 16.5142 108.813 16.2955C108.813 16.0767 108.894 15.8894 109.056 15.7337C109.222 15.5779 109.419 15.5 109.648 15.5C109.877 15.5 110.072 15.5779 110.235 15.7337C110.4 15.8894 110.483 16.0767 110.483 16.2955C110.483 16.5142 110.4 16.7015 110.235 16.8572C110.072 17.013 109.877 17.0909 109.648 17.0909ZM113.547 21.4062V26H112.374V18.3636H113.507V19.5568H113.607C113.786 19.169 114.057 18.8575 114.422 18.6222C114.787 18.3835 115.257 18.2642 115.834 18.2642C116.351 18.2642 116.803 18.3703 117.191 18.5824C117.579 18.7912 117.881 19.1094 118.096 19.5369C118.311 19.9612 118.419 20.4981 118.419 21.1477V26H117.246V21.2273C117.246 20.6274 117.09 20.16 116.778 19.8253C116.467 19.4872 116.039 19.3182 115.496 19.3182C115.121 19.3182 114.787 19.3994 114.492 19.5618C114.2 19.7242 113.97 19.9612 113.801 20.2727C113.631 20.5843 113.547 20.9621 113.547 21.4062ZM123.646 29.0227C123.079 29.0227 122.592 28.9498 122.184 28.804C121.776 28.6615 121.436 28.4725 121.165 28.2372C120.896 28.0052 120.682 27.7566 120.523 27.4915L121.458 26.8352C121.564 26.9744 121.698 27.1335 121.861 27.3125C122.023 27.4948 122.245 27.6522 122.527 27.7848C122.812 27.9207 123.185 27.9886 123.646 27.9886C124.262 27.9886 124.771 27.8395 125.172 27.5412C125.573 27.2429 125.773 26.7756 125.773 26.1392V24.5881H125.674C125.588 24.7273 125.465 24.8996 125.306 25.1051C125.15 25.3073 124.925 25.4879 124.63 25.647C124.338 25.8028 123.944 25.8807 123.447 25.8807C122.83 25.8807 122.277 25.7348 121.786 25.4432C121.299 25.1515 120.913 24.7273 120.628 24.1705C120.346 23.6136 120.205 22.9375 120.205 22.142C120.205 21.3598 120.343 20.6787 120.618 20.0987C120.893 19.5154 121.276 19.0646 121.766 18.7464C122.257 18.425 122.824 18.2642 123.467 18.2642C123.964 18.2642 124.358 18.3471 124.65 18.5128C124.945 18.6752 125.17 18.8608 125.326 19.0696C125.485 19.2751 125.608 19.4441 125.694 19.5767H125.813V18.3636H126.947V26.2188C126.947 26.875 126.797 27.4086 126.499 27.8196C126.204 28.2339 125.806 28.5372 125.306 28.7294C124.809 28.925 124.255 29.0227 123.646 29.0227ZM123.606 24.8267C124.076 24.8267 124.474 24.719 124.799 24.5036C125.124 24.2881 125.371 23.9782 125.54 23.5739C125.709 23.1695 125.793 22.6856 125.793 22.1222C125.793 21.572 125.71 21.0864 125.545 20.6655C125.379 20.2446 125.134 19.9148 124.809 19.6761C124.484 19.4375 124.083 19.3182 123.606 19.3182C123.109 19.3182 122.694 19.4441 122.363 19.696C122.035 19.9479 121.788 20.286 121.622 20.7102C121.46 21.1345 121.378 21.6051 121.378 22.1222C121.378 22.6525 121.461 23.1214 121.627 23.5291C121.796 23.9335 122.045 24.2517 122.373 24.4837C122.704 24.7124 123.115 24.8267 123.606 24.8267ZM137.089 15.8182H138.322V23.0966C138.322 23.7462 138.202 24.2981 137.964 24.7521C137.725 25.2062 137.389 25.5509 136.954 25.7862C136.52 26.0215 136.008 26.1392 135.418 26.1392C134.861 26.1392 134.366 26.0381 133.932 25.8359C133.498 25.6304 133.156 25.3388 132.908 24.9609C132.659 24.5831 132.535 24.134 132.535 23.6136H133.748C133.748 23.902 133.819 24.1539 133.962 24.3693C134.107 24.5814 134.306 24.7472 134.558 24.8665C134.81 24.9858 135.097 25.0455 135.418 25.0455C135.773 25.0455 136.074 24.9709 136.323 24.8217C136.572 24.6726 136.761 24.4538 136.89 24.1655C137.022 23.8738 137.089 23.5175 137.089 23.0966V15.8182ZM143.736 26.1591C143.046 26.1591 142.441 25.995 141.921 25.6669C141.404 25.3388 141 24.8797 140.708 24.2898C140.42 23.6998 140.275 23.0104 140.275 22.2216C140.275 21.4261 140.42 20.7318 140.708 20.1385C141 19.5452 141.404 19.0845 141.921 18.7564C142.441 18.4283 143.046 18.2642 143.736 18.2642C144.425 18.2642 145.028 18.4283 145.545 18.7564C146.066 19.0845 146.47 19.5452 146.758 20.1385C147.05 20.7318 147.196 21.4261 147.196 22.2216C147.196 23.0104 147.05 23.6998 146.758 24.2898C146.47 24.8797 146.066 25.3388 145.545 25.6669C145.028 25.995 144.425 26.1591 143.736 26.1591ZM143.736 25.1051C144.259 25.1051 144.69 24.9709 145.028 24.7024C145.366 24.4339 145.617 24.081 145.779 23.6435C145.941 23.206 146.023 22.732 146.023 22.2216C146.023 21.7112 145.941 21.2356 145.779 20.7947C145.617 20.3539 145.366 19.9976 145.028 19.7259C144.69 19.4541 144.259 19.3182 143.736 19.3182C143.212 19.3182 142.781 19.4541 142.443 19.7259C142.105 19.9976 141.855 20.3539 141.692 20.7947C141.53 21.2356 141.449 21.7112 141.449 22.2216C141.449 22.732 141.53 23.206 141.692 23.6435C141.855 24.081 142.105 24.4339 142.443 24.7024C142.781 24.9709 143.212 25.1051 143.736 25.1051ZM149.146 26V15.8182H150.319V19.5767H150.419C150.505 19.4441 150.624 19.2751 150.777 19.0696C150.932 18.8608 151.155 18.6752 151.443 18.5128C151.735 18.3471 152.129 18.2642 152.626 18.2642C153.269 18.2642 153.836 18.425 154.326 18.7464C154.817 19.0679 155.2 19.5237 155.475 20.1136C155.75 20.7036 155.888 21.3996 155.888 22.2017C155.888 23.0104 155.75 23.7114 155.475 24.3047C155.2 24.8946 154.819 25.352 154.331 25.6768C153.844 25.9983 153.282 26.1591 152.646 26.1591C152.156 26.1591 151.763 26.0779 151.468 25.9155C151.173 25.7498 150.946 25.5625 150.787 25.3537C150.628 25.1416 150.505 24.9659 150.419 24.8267H150.28V26H149.146ZM150.299 22.1818C150.299 22.7585 150.384 23.2673 150.553 23.7081C150.722 24.1456 150.969 24.4886 151.294 24.7372C151.619 24.9825 152.016 25.1051 152.487 25.1051C152.977 25.1051 153.387 24.9759 153.715 24.7173C154.046 24.4555 154.295 24.1042 154.461 23.6634C154.63 23.2192 154.714 22.7254 154.714 22.1818C154.714 21.6449 154.631 21.161 154.466 20.7301C154.303 20.2959 154.056 19.9529 153.725 19.701C153.397 19.4458 152.984 19.3182 152.487 19.3182C152.01 19.3182 151.609 19.4392 151.284 19.6811C150.959 19.9197 150.714 20.2545 150.548 20.6854C150.382 21.1129 150.299 21.6117 150.299 22.1818ZM161.003 18.3636V19.358H157.046V18.3636H161.003ZM158.199 16.5341H159.373V23.8125C159.373 24.1439 159.421 24.3925 159.517 24.5582C159.616 24.7206 159.742 24.83 159.895 24.8864C160.05 24.9394 160.214 24.9659 160.387 24.9659C160.516 24.9659 160.622 24.9593 160.705 24.946C160.788 24.9295 160.854 24.9162 160.904 24.9062L161.142 25.9602C161.063 25.9901 160.952 26.0199 160.809 26.0497C160.667 26.0829 160.486 26.0994 160.267 26.0994C159.936 26.0994 159.611 26.0282 159.293 25.8857C158.978 25.7431 158.716 25.526 158.508 25.2344C158.302 24.9427 158.199 24.5748 158.199 24.1307V16.5341ZM162.768 26V18.3636H163.902V19.517H163.981C164.12 19.1392 164.372 18.8326 164.737 18.5973C165.102 18.362 165.513 18.2443 165.97 18.2443C166.056 18.2443 166.164 18.246 166.293 18.2493C166.422 18.2526 166.52 18.2576 166.586 18.2642V19.4574C166.547 19.4474 166.455 19.4325 166.313 19.4126C166.174 19.3894 166.026 19.3778 165.87 19.3778C165.499 19.3778 165.168 19.4557 164.876 19.6115C164.588 19.764 164.359 19.9761 164.19 20.2479C164.024 20.5163 163.941 20.8229 163.941 21.1676V26H162.768ZM170.946 26.1591C170.211 26.1591 169.576 25.9967 169.042 25.6719C168.512 25.3438 168.103 24.8864 167.814 24.2997C167.529 23.7098 167.387 23.0237 167.387 22.2415C167.387 21.4593 167.529 20.7699 167.814 20.1733C168.103 19.5734 168.504 19.1061 169.017 18.7713C169.535 18.4332 170.138 18.2642 170.827 18.2642C171.225 18.2642 171.618 18.3305 172.005 18.4631C172.393 18.5956 172.746 18.8111 173.064 19.1094C173.383 19.4044 173.636 19.7955 173.825 20.2827C174.014 20.7699 174.108 21.3698 174.108 22.0824V22.5795H168.222V21.5653H172.915C172.915 21.1345 172.829 20.75 172.657 20.4119C172.488 20.0739 172.246 19.8071 171.931 19.6115C171.619 19.416 171.251 19.3182 170.827 19.3182C170.36 19.3182 169.955 19.4342 169.614 19.6662C169.276 19.8949 169.016 20.1932 168.834 20.5611C168.651 20.929 168.56 21.3234 168.56 21.7443V22.4205C168.56 22.9972 168.66 23.486 168.858 23.8871C169.061 24.2848 169.341 24.5881 169.699 24.7969C170.057 25.0024 170.473 25.1051 170.946 25.1051C171.255 25.1051 171.533 25.062 171.782 24.9759C172.034 24.8864 172.251 24.7538 172.433 24.5781C172.615 24.3991 172.756 24.1771 172.856 23.9119L173.989 24.2301C173.87 24.6146 173.669 24.9527 173.388 25.2443C173.106 25.5327 172.758 25.758 172.343 25.9205C171.929 26.0795 171.464 26.1591 170.946 26.1591ZM179.095 26.1591C178.359 26.1591 177.724 25.9967 177.191 25.6719C176.66 25.3438 176.251 24.8864 175.963 24.2997C175.678 23.7098 175.535 23.0237 175.535 22.2415C175.535 21.4593 175.678 20.7699 175.963 20.1733C176.251 19.5734 176.652 19.1061 177.166 18.7713C177.683 18.4332 178.286 18.2642 178.976 18.2642C179.373 18.2642 179.766 18.3305 180.154 18.4631C180.542 18.5956 180.895 18.8111 181.213 19.1094C181.531 19.4044 181.785 19.7955 181.973 20.2827C182.162 20.7699 182.257 21.3698 182.257 22.0824V22.5795H176.37V21.5653H181.064C181.064 21.1345 180.977 20.75 180.805 20.4119C180.636 20.0739 180.394 19.8071 180.079 19.6115C179.768 19.416 179.4 19.3182 178.976 19.3182C178.508 19.3182 178.104 19.4342 177.763 19.6662C177.424 19.8949 177.164 20.1932 176.982 20.5611C176.8 20.929 176.709 21.3234 176.709 21.7443V22.4205C176.709 22.9972 176.808 23.486 177.007 23.8871C177.209 24.2848 177.489 24.5881 177.847 24.7969C178.205 25.0024 178.621 25.1051 179.095 25.1051C179.403 25.1051 179.682 25.062 179.93 24.9759C180.182 24.8864 180.399 24.7538 180.581 24.5781C180.764 24.3991 180.905 24.1771 181.004 23.9119L182.138 24.2301C182.018 24.6146 181.818 24.9527 181.536 25.2443C181.254 25.5327 180.906 25.758 180.492 25.9205C180.078 26.0795 179.612 26.1591 179.095 26.1591ZM185.792 24.608L185.712 25.1449C185.656 25.5227 185.57 25.9271 185.454 26.358C185.341 26.7888 185.223 27.1948 185.101 27.576C184.978 27.9571 184.877 28.2604 184.797 28.4858H183.902C183.946 28.2737 184.002 27.9936 184.071 27.6456C184.141 27.2976 184.211 26.9081 184.28 26.4773C184.353 26.0497 184.413 25.6122 184.459 25.1648L184.519 24.608H185.792ZM192.659 28.8636C192.46 28.8636 192.282 28.8471 192.127 28.8139C191.971 28.7841 191.863 28.7543 191.804 28.7244L192.102 27.6903C192.387 27.7633 192.639 27.7898 192.858 27.7699C193.076 27.75 193.27 27.6522 193.439 27.4766C193.612 27.3042 193.769 27.0241 193.911 26.6364L194.13 26.0398L191.306 18.3636H192.579L194.687 24.4489H194.767L196.875 18.3636H198.147L194.906 27.1136C194.76 27.508 194.579 27.8345 194.364 28.093C194.148 28.3549 193.898 28.5488 193.613 28.6747C193.331 28.8007 193.013 28.8636 192.659 28.8636ZM202.525 26.1591C201.835 26.1591 201.23 25.995 200.71 25.6669C200.193 25.3388 199.789 24.8797 199.497 24.2898C199.209 23.6998 199.065 23.0104 199.065 22.2216C199.065 21.4261 199.209 20.7318 199.497 20.1385C199.789 19.5452 200.193 19.0845 200.71 18.7564C201.23 18.4283 201.835 18.2642 202.525 18.2642C203.214 18.2642 203.817 18.4283 204.334 18.7564C204.855 19.0845 205.259 19.5452 205.547 20.1385C205.839 20.7318 205.985 21.4261 205.985 22.2216C205.985 23.0104 205.839 23.6998 205.547 24.2898C205.259 24.8797 204.855 25.3388 204.334 25.6669C203.817 25.995 203.214 26.1591 202.525 26.1591ZM202.525 25.1051C203.048 25.1051 203.479 24.9709 203.817 24.7024C204.155 24.4339 204.406 24.081 204.568 23.6435C204.73 23.206 204.812 22.732 204.812 22.2216C204.812 21.7112 204.73 21.2356 204.568 20.7947C204.406 20.3539 204.155 19.9976 203.817 19.7259C203.479 19.4541 203.048 19.3182 202.525 19.3182C202.001 19.3182 201.57 19.4541 201.232 19.7259C200.894 19.9976 200.644 20.3539 200.481 20.7947C200.319 21.2356 200.238 21.7112 200.238 22.2216C200.238 22.732 200.319 23.206 200.481 23.6435C200.644 24.081 200.894 24.4339 201.232 24.7024C201.57 24.9709 202.001 25.1051 202.525 25.1051ZM212.589 22.8778V18.3636H213.762V26H212.589V24.7074H212.509C212.33 25.0952 212.052 25.425 211.674 25.6967C211.296 25.9652 210.819 26.0994 210.242 26.0994C209.765 26.0994 209.34 25.995 208.969 25.7862C208.598 25.5741 208.306 25.2559 208.094 24.8317C207.882 24.4041 207.776 23.8655 207.776 23.2159V18.3636H208.949V23.1364C208.949 23.6932 209.105 24.1373 209.417 24.4688C209.732 24.8002 210.133 24.9659 210.62 24.9659C210.911 24.9659 211.208 24.8913 211.51 24.7422C211.815 24.593 212.07 24.3643 212.275 24.0561C212.484 23.7479 212.589 23.3551 212.589 22.8778ZM222.095 26.179C221.612 26.179 221.172 26.0878 220.778 25.9055C220.384 25.7199 220.07 25.4531 219.838 25.1051C219.606 24.7538 219.49 24.3295 219.49 23.8324C219.49 23.3949 219.576 23.0402 219.749 22.7685C219.921 22.4934 220.152 22.2779 220.44 22.1222C220.728 21.9664 221.046 21.8504 221.394 21.7741C221.746 21.6946 222.099 21.6316 222.453 21.5852C222.917 21.5256 223.294 21.4808 223.582 21.451C223.874 21.4179 224.086 21.3632 224.218 21.2869C224.354 21.2107 224.422 21.0781 224.422 20.8892V20.8494C224.422 20.3589 224.288 19.9777 224.019 19.706C223.754 19.4342 223.352 19.2983 222.811 19.2983C222.251 19.2983 221.812 19.4209 221.494 19.6662C221.176 19.9115 220.952 20.1733 220.823 20.4517L219.709 20.054C219.908 19.59 220.173 19.2287 220.505 18.9702C220.839 18.7083 221.204 18.526 221.598 18.4233C221.996 18.3172 222.387 18.2642 222.772 18.2642C223.017 18.2642 223.299 18.294 223.617 18.3537C223.938 18.41 224.248 18.5277 224.546 18.7067C224.848 18.8857 225.098 19.1558 225.297 19.517C225.496 19.8783 225.595 20.3622 225.595 20.9688V26H224.422V24.9659H224.362C224.283 25.1316 224.15 25.3089 223.965 25.4979C223.779 25.6868 223.532 25.8475 223.224 25.9801C222.916 26.1127 222.54 26.179 222.095 26.179ZM222.274 25.125C222.738 25.125 223.13 25.0339 223.448 24.8516C223.769 24.6693 224.011 24.4339 224.174 24.1456C224.339 23.8572 224.422 23.554 224.422 23.2358V22.1619C224.372 22.2216 224.263 22.2763 224.094 22.326C223.928 22.3724 223.736 22.4138 223.517 22.4503C223.302 22.4834 223.091 22.5133 222.886 22.5398C222.684 22.563 222.52 22.5829 222.394 22.5994C222.089 22.6392 221.804 22.7038 221.539 22.7933C221.277 22.8795 221.065 23.0104 220.902 23.1861C220.743 23.3584 220.664 23.5937 220.664 23.892C220.664 24.2997 220.814 24.608 221.116 24.8168C221.421 25.0223 221.807 25.125 222.274 25.125ZM230.819 29.0227C230.253 29.0227 229.765 28.9498 229.358 28.804C228.95 28.6615 228.61 28.4725 228.339 28.2372C228.07 28.0052 227.856 27.7566 227.697 27.4915L228.632 26.8352C228.738 26.9744 228.872 27.1335 229.035 27.3125C229.197 27.4948 229.419 27.6522 229.701 27.7848C229.986 27.9207 230.359 27.9886 230.819 27.9886C231.436 27.9886 231.945 27.8395 232.346 27.5412C232.747 27.2429 232.947 26.7756 232.947 26.1392V24.5881H232.848C232.762 24.7273 232.639 24.8996 232.48 25.1051C232.324 25.3073 232.099 25.4879 231.804 25.647C231.512 25.8028 231.118 25.8807 230.62 25.8807C230.004 25.8807 229.45 25.7348 228.96 25.4432C228.473 25.1515 228.087 24.7273 227.802 24.1705C227.52 23.6136 227.379 22.9375 227.379 22.142C227.379 21.3598 227.517 20.6787 227.792 20.0987C228.067 19.5154 228.45 19.0646 228.94 18.7464C229.431 18.425 229.997 18.2642 230.64 18.2642C231.138 18.2642 231.532 18.3471 231.824 18.5128C232.119 18.6752 232.344 18.8608 232.5 19.0696C232.659 19.2751 232.781 19.4441 232.868 19.5767H232.987V18.3636H234.12V26.2188C234.12 26.875 233.971 27.4086 233.673 27.8196C233.378 28.2339 232.98 28.5372 232.48 28.7294C231.983 28.925 231.429 29.0227 230.819 29.0227ZM230.78 24.8267C231.25 24.8267 231.648 24.719 231.973 24.5036C232.298 24.2881 232.544 23.9782 232.714 23.5739C232.883 23.1695 232.967 22.6856 232.967 22.1222C232.967 21.572 232.884 21.0864 232.718 20.6655C232.553 20.2446 232.307 19.9148 231.983 19.6761C231.658 19.4375 231.257 19.3182 230.78 19.3182C230.282 19.3182 229.868 19.4441 229.537 19.696C229.209 19.9479 228.962 20.286 228.796 20.7102C228.633 21.1345 228.552 21.6051 228.552 22.1222C228.552 22.6525 228.635 23.1214 228.801 23.5291C228.97 23.9335 229.218 24.2517 229.547 24.4837C229.878 24.7124 230.289 24.8267 230.78 24.8267ZM236.268 26V18.3636H237.402V19.517H237.481C237.62 19.1392 237.872 18.8326 238.237 18.5973C238.602 18.362 239.013 18.2443 239.47 18.2443C239.556 18.2443 239.664 18.246 239.793 18.2493C239.922 18.2526 240.02 18.2576 240.086 18.2642V19.4574C240.047 19.4474 239.955 19.4325 239.813 19.4126C239.674 19.3894 239.526 19.3778 239.37 19.3778C238.999 19.3778 238.668 19.4557 238.376 19.6115C238.088 19.764 237.859 19.9761 237.69 20.2479C237.524 20.5163 237.441 20.8229 237.441 21.1676V26H236.268ZM244.446 26.1591C243.711 26.1591 243.076 25.9967 242.542 25.6719C242.012 25.3438 241.603 24.8864 241.314 24.2997C241.029 23.7098 240.887 23.0237 240.887 22.2415C240.887 21.4593 241.029 20.7699 241.314 20.1733C241.603 19.5734 242.004 19.1061 242.517 18.7713C243.035 18.4332 243.638 18.2642 244.327 18.2642C244.725 18.2642 245.118 18.3305 245.505 18.4631C245.893 18.5956 246.246 18.8111 246.564 19.1094C246.883 19.4044 247.136 19.7955 247.325 20.2827C247.514 20.7699 247.608 21.3698 247.608 22.0824V22.5795H241.722V21.5653H246.415C246.415 21.1345 246.329 20.75 246.157 20.4119C245.988 20.0739 245.746 19.8071 245.431 19.6115C245.119 19.416 244.751 19.3182 244.327 19.3182C243.86 19.3182 243.455 19.4342 243.114 19.6662C242.776 19.8949 242.516 20.1932 242.334 20.5611C242.151 20.929 242.06 21.3234 242.06 21.7443V22.4205C242.06 22.9972 242.16 23.486 242.358 23.8871C242.561 24.2848 242.841 24.5881 243.199 24.7969C243.557 25.0024 243.973 25.1051 244.446 25.1051C244.755 25.1051 245.033 25.062 245.282 24.9759C245.534 24.8864 245.751 24.7538 245.933 24.5781C246.115 24.3991 246.256 24.1771 246.356 23.9119L247.489 24.2301C247.37 24.6146 247.169 24.9527 246.888 25.2443C246.606 25.5327 246.258 25.758 245.843 25.9205C245.429 26.0795 244.964 26.1591 244.446 26.1591ZM252.595 26.1591C251.859 26.1591 251.224 25.9967 250.691 25.6719C250.16 25.3438 249.751 24.8864 249.463 24.2997C249.178 23.7098 249.035 23.0237 249.035 22.2415C249.035 21.4593 249.178 20.7699 249.463 20.1733C249.751 19.5734 250.152 19.1061 250.666 18.7713C251.183 18.4332 251.786 18.2642 252.476 18.2642C252.873 18.2642 253.266 18.3305 253.654 18.4631C254.042 18.5956 254.395 18.8111 254.713 19.1094C255.031 19.4044 255.285 19.7955 255.473 20.2827C255.662 20.7699 255.757 21.3698 255.757 22.0824V22.5795H249.87V21.5653H254.564C254.564 21.1345 254.477 20.75 254.305 20.4119C254.136 20.0739 253.894 19.8071 253.579 19.6115C253.268 19.416 252.9 19.3182 252.476 19.3182C252.008 19.3182 251.604 19.4342 251.263 19.6662C250.924 19.8949 250.664 20.1932 250.482 20.5611C250.3 20.929 250.209 21.3234 250.209 21.7443V22.4205C250.209 22.9972 250.308 23.486 250.507 23.8871C250.709 24.2848 250.989 24.5881 251.347 24.7969C251.705 25.0024 252.121 25.1051 252.595 25.1051C252.903 25.1051 253.182 25.062 253.43 24.9759C253.682 24.8864 253.899 24.7538 254.081 24.5781C254.264 24.3991 254.405 24.1771 254.504 23.9119L255.638 24.2301C255.518 24.6146 255.318 24.9527 255.036 25.2443C254.754 25.5327 254.406 25.758 253.992 25.9205C253.578 26.0795 253.112 26.1591 252.595 26.1591ZM264.8 18.3636V19.358H260.843V18.3636H264.8ZM261.996 16.5341H263.169V23.8125C263.169 24.1439 263.218 24.3925 263.314 24.5582C263.413 24.7206 263.539 24.83 263.691 24.8864C263.847 24.9394 264.011 24.9659 264.184 24.9659C264.313 24.9659 264.419 24.9593 264.502 24.946C264.585 24.9295 264.651 24.9162 264.701 24.9062L264.939 25.9602C264.86 25.9901 264.749 26.0199 264.606 26.0497C264.464 26.0829 264.283 26.0994 264.064 26.0994C263.733 26.0994 263.408 26.0282 263.09 25.8857C262.775 25.7431 262.513 25.526 262.304 25.2344C262.099 24.9427 261.996 24.5748 261.996 24.1307V16.5341ZM269.585 26.1591C268.896 26.1591 268.291 25.995 267.771 25.6669C267.254 25.3388 266.849 24.8797 266.558 24.2898C266.269 23.6998 266.125 23.0104 266.125 22.2216C266.125 21.4261 266.269 20.7318 266.558 20.1385C266.849 19.5452 267.254 19.0845 267.771 18.7564C268.291 18.4283 268.896 18.2642 269.585 18.2642C270.275 18.2642 270.878 18.4283 271.395 18.7564C271.915 19.0845 272.32 19.5452 272.608 20.1385C272.9 20.7318 273.046 21.4261 273.046 22.2216C273.046 23.0104 272.9 23.6998 272.608 24.2898C272.32 24.8797 271.915 25.3388 271.395 25.6669C270.878 25.995 270.275 26.1591 269.585 26.1591ZM269.585 25.1051C270.109 25.1051 270.54 24.9709 270.878 24.7024C271.216 24.4339 271.466 24.081 271.629 23.6435C271.791 23.206 271.872 22.732 271.872 22.2216C271.872 21.7112 271.791 21.2356 271.629 20.7947C271.466 20.3539 271.216 19.9976 270.878 19.7259C270.54 19.4541 270.109 19.3182 269.585 19.3182C269.062 19.3182 268.631 19.4541 268.293 19.7259C267.955 19.9976 267.704 20.3539 267.542 20.7947C267.38 21.2356 267.298 21.7112 267.298 22.2216C267.298 22.732 267.38 23.206 267.542 23.6435C267.704 24.081 267.955 24.4339 268.293 24.7024C268.631 24.9709 269.062 25.1051 269.585 25.1051ZM282.095 18.3636V19.358H278.138V18.3636H282.095ZM279.291 16.5341H280.464V23.8125C280.464 24.1439 280.512 24.3925 280.609 24.5582C280.708 24.7206 280.834 24.83 280.986 24.8864C281.142 24.9394 281.306 24.9659 281.479 24.9659C281.608 24.9659 281.714 24.9593 281.797 24.946C281.88 24.9295 281.946 24.9162 281.996 24.9062L282.234 25.9602C282.155 25.9901 282.044 26.0199 281.901 26.0497C281.759 26.0829 281.578 26.0994 281.359 26.0994C281.028 26.0994 280.703 26.0282 280.385 25.8857C280.07 25.7431 279.808 25.526 279.599 25.2344C279.394 24.9427 279.291 24.5748 279.291 24.1307V16.5341ZM285.197 21.4062V26H284.024V15.8182H285.197V19.5568H285.297C285.476 19.1624 285.744 18.8492 286.102 18.6172C286.463 18.3819 286.944 18.2642 287.544 18.2642C288.064 18.2642 288.52 18.3686 288.911 18.5774C289.302 18.7829 289.605 19.0994 289.821 19.527C290.04 19.9512 290.149 20.4915 290.149 21.1477V26H288.976V21.2273C288.976 20.6207 288.818 20.1518 288.503 19.8203C288.192 19.4856 287.759 19.3182 287.206 19.3182C286.821 19.3182 286.477 19.3994 286.172 19.5618C285.87 19.7242 285.632 19.9612 285.456 20.2727C285.284 20.5843 285.197 20.9621 285.197 21.4062ZM295.497 26.1591C294.761 26.1591 294.127 25.9967 293.593 25.6719C293.063 25.3438 292.653 24.8864 292.365 24.2997C292.08 23.7098 291.938 23.0237 291.938 22.2415C291.938 21.4593 292.08 20.7699 292.365 20.1733C292.653 19.5734 293.055 19.1061 293.568 18.7713C294.085 18.4332 294.689 18.2642 295.378 18.2642C295.776 18.2642 296.168 18.3305 296.556 18.4631C296.944 18.5956 297.297 18.8111 297.615 19.1094C297.933 19.4044 298.187 19.7955 298.376 20.2827C298.565 20.7699 298.659 21.3698 298.659 22.0824V22.5795H292.773V21.5653H297.466C297.466 21.1345 297.38 20.75 297.207 20.4119C297.038 20.0739 296.796 19.8071 296.482 19.6115C296.17 19.416 295.802 19.3182 295.378 19.3182C294.911 19.3182 294.506 19.4342 294.165 19.6662C293.827 19.8949 293.567 20.1932 293.384 20.5611C293.202 20.929 293.111 21.3234 293.111 21.7443V22.4205C293.111 22.9972 293.21 23.486 293.409 23.8871C293.611 24.2848 293.891 24.5881 294.249 24.7969C294.607 25.0024 295.023 25.1051 295.497 25.1051C295.805 25.1051 296.084 25.062 296.332 24.9759C296.584 24.8864 296.801 24.7538 296.984 24.5781C297.166 24.3991 297.307 24.1771 297.406 23.9119L298.54 24.2301C298.421 24.6146 298.22 24.9527 297.938 25.2443C297.657 25.5327 297.309 25.758 296.894 25.9205C296.48 26.0795 296.014 26.1591 295.497 26.1591ZM101.398 39.3643V37.8182H109.521V39.3643H106.374V48H104.545V39.3643H101.398ZM113.281 48.1491C112.515 48.1491 111.854 47.9901 111.297 47.6719C110.744 47.3504 110.318 46.8963 110.02 46.3097C109.721 45.7197 109.572 45.0253 109.572 44.2266C109.572 43.4411 109.721 42.7517 110.02 42.1584C110.321 41.5618 110.742 41.0978 111.282 40.7663C111.823 40.4316 112.457 40.2642 113.187 40.2642C113.657 40.2642 114.101 40.3404 114.519 40.4929C114.94 40.642 115.311 40.8741 115.633 41.1889C115.957 41.5038 116.213 41.9048 116.398 42.392C116.584 42.8759 116.677 43.4527 116.677 44.1222V44.674H110.417V43.4609H114.951C114.948 43.1162 114.874 42.8097 114.728 42.5412C114.582 42.2694 114.378 42.0556 114.116 41.8999C113.858 41.7441 113.556 41.6662 113.211 41.6662C112.843 41.6662 112.52 41.7557 112.242 41.9347C111.964 42.1103 111.746 42.3423 111.591 42.6307C111.438 42.9157 111.36 43.2289 111.357 43.5703V44.6293C111.357 45.0734 111.438 45.4545 111.601 45.7727C111.763 46.0876 111.99 46.3295 112.282 46.4986C112.573 46.6643 112.915 46.7472 113.306 46.7472C113.568 46.7472 113.805 46.7107 114.017 46.6378C114.229 46.5616 114.413 46.4505 114.569 46.3047C114.724 46.1589 114.842 45.9782 114.922 45.7628L116.602 45.9517C116.496 46.3958 116.294 46.7836 115.995 47.1151C115.7 47.4432 115.323 47.6984 114.862 47.8807C114.401 48.0597 113.874 48.1491 113.281 48.1491ZM118.199 48V40.3636H119.944V41.6364H120.024C120.163 41.1955 120.402 40.8558 120.74 40.6172C121.081 40.3752 121.47 40.2543 121.908 40.2543C122.007 40.2543 122.118 40.2592 122.241 40.2692C122.367 40.2758 122.471 40.2874 122.554 40.304V41.9595C122.478 41.933 122.357 41.9098 122.191 41.8899C122.029 41.8667 121.871 41.8551 121.719 41.8551C121.391 41.8551 121.096 41.9264 120.834 42.0689C120.576 42.2081 120.372 42.402 120.223 42.6506C120.073 42.8991 119.999 43.1858 119.999 43.5107V48H118.199ZM123.75 48V40.3636H125.47V41.6612H125.56C125.719 41.2237 125.982 40.8823 126.35 40.6371C126.718 40.3885 127.157 40.2642 127.668 40.2642C128.185 40.2642 128.62 40.3902 128.975 40.642C129.333 40.8906 129.585 41.2304 129.731 41.6612H129.81C129.979 41.237 130.264 40.8989 130.665 40.647C131.07 40.3918 131.549 40.2642 132.102 40.2642C132.805 40.2642 133.378 40.4863 133.822 40.9304C134.266 41.3745 134.489 42.0225 134.489 42.8743V48H132.684V43.1527C132.684 42.6787 132.558 42.3324 132.306 42.1136C132.054 41.8916 131.746 41.7805 131.381 41.7805C130.947 41.7805 130.607 41.9164 130.362 42.1882C130.12 42.4567 129.999 42.8063 129.999 43.2372V48H128.234V43.0781C128.234 42.6837 128.115 42.3688 127.876 42.1335C127.641 41.8982 127.333 41.7805 126.952 41.7805C126.693 41.7805 126.458 41.8468 126.246 41.9794C126.034 42.1087 125.864 42.2926 125.739 42.5312C125.613 42.7666 125.55 43.0417 125.55 43.3565V48H123.75ZM142.35 42.3821L140.709 42.5611C140.663 42.3954 140.582 42.2396 140.466 42.0938C140.353 41.9479 140.2 41.8303 140.008 41.7408C139.816 41.6513 139.581 41.6065 139.302 41.6065C138.928 41.6065 138.613 41.6877 138.358 41.8501C138.106 42.0125 137.982 42.223 137.985 42.4815C137.982 42.7036 138.063 42.8842 138.228 43.0234C138.397 43.1626 138.676 43.277 139.064 43.3665L140.366 43.6449C141.089 43.8007 141.626 44.0476 141.977 44.3857C142.332 44.7237 142.511 45.1662 142.514 45.7131C142.511 46.1937 142.37 46.6179 142.091 46.9858C141.816 47.3504 141.433 47.6354 140.943 47.8409C140.452 48.0464 139.889 48.1491 139.253 48.1491C138.318 48.1491 137.566 47.9536 136.995 47.5625C136.425 47.1681 136.086 46.6196 135.976 45.9169L137.731 45.7479C137.811 46.0926 137.98 46.3527 138.238 46.5284C138.497 46.7041 138.833 46.7919 139.248 46.7919C139.675 46.7919 140.018 46.7041 140.277 46.5284C140.539 46.3527 140.669 46.1357 140.669 45.8771C140.669 45.6584 140.585 45.4777 140.416 45.3352C140.25 45.1927 139.992 45.0833 139.64 45.0071L138.338 44.7337C137.605 44.5812 137.063 44.3243 136.712 43.9631C136.361 43.5985 136.187 43.1378 136.19 42.581C136.187 42.1103 136.314 41.7027 136.573 41.358C136.835 41.0099 137.198 40.7415 137.662 40.5526C138.129 40.3603 138.668 40.2642 139.277 40.2642C140.172 40.2642 140.877 40.4548 141.39 40.8359C141.907 41.2171 142.227 41.7325 142.35 42.3821ZM150.332 48.179C149.848 48.179 149.409 48.0878 149.014 47.9055C148.62 47.7199 148.307 47.4531 148.075 47.1051C147.843 46.7538 147.727 46.3295 147.727 45.8324C147.727 45.3949 147.813 45.0402 147.985 44.7685C148.158 44.4934 148.388 44.2779 148.676 44.1222C148.965 43.9664 149.283 43.8504 149.631 43.7741C149.982 43.6946 150.335 43.6316 150.69 43.5852C151.154 43.5256 151.53 43.4808 151.818 43.451C152.11 43.4179 152.322 43.3632 152.455 43.2869C152.591 43.2107 152.658 43.0781 152.658 42.8892V42.8494C152.658 42.3589 152.524 41.9777 152.256 41.706C151.991 41.4342 151.588 41.2983 151.048 41.2983C150.488 41.2983 150.048 41.4209 149.73 41.6662C149.412 41.9115 149.188 42.1733 149.059 42.4517L147.945 42.054C148.144 41.59 148.409 41.2287 148.741 40.9702C149.076 40.7083 149.44 40.526 149.835 40.4233C150.232 40.3172 150.623 40.2642 151.008 40.2642C151.253 40.2642 151.535 40.294 151.853 40.3537C152.175 40.41 152.484 40.5277 152.783 40.7067C153.084 40.8857 153.335 41.1558 153.533 41.517C153.732 41.8783 153.832 42.3622 153.832 42.9688V48H152.658V46.9659H152.599C152.519 47.1316 152.387 47.3089 152.201 47.4979C152.015 47.6868 151.769 47.8475 151.46 47.9801C151.152 48.1127 150.776 48.179 150.332 48.179ZM150.511 47.125C150.975 47.125 151.366 47.0339 151.684 46.8516C152.006 46.6693 152.247 46.4339 152.41 46.1456C152.576 45.8572 152.658 45.554 152.658 45.2358V44.1619C152.609 44.2216 152.499 44.2763 152.33 44.326C152.165 44.3724 151.972 44.4138 151.754 44.4503C151.538 44.4834 151.328 44.5133 151.122 44.5398C150.92 44.563 150.756 44.5829 150.63 44.5994C150.325 44.6392 150.04 44.7038 149.775 44.7933C149.513 44.8795 149.301 45.0104 149.139 45.1861C148.979 45.3584 148.9 45.5937 148.9 45.892C148.9 46.2997 149.051 46.608 149.352 46.8168C149.657 47.0223 150.043 47.125 150.511 47.125ZM157.147 43.4062V48H155.973V40.3636H157.107V41.5568H157.206C157.385 41.169 157.657 40.8575 158.022 40.6222C158.386 40.3835 158.857 40.2642 159.434 40.2642C159.951 40.2642 160.403 40.3703 160.791 40.5824C161.179 40.7912 161.48 41.1094 161.696 41.5369C161.911 41.9612 162.019 42.4981 162.019 43.1477V48H160.845V43.2273C160.845 42.6274 160.69 42.16 160.378 41.8253C160.067 41.4872 159.639 41.3182 159.095 41.3182C158.721 41.3182 158.386 41.3994 158.091 41.5618C157.8 41.7242 157.569 41.9612 157.4 42.2727C157.231 42.5843 157.147 42.9621 157.147 43.4062ZM167.046 48.1591C166.41 48.1591 165.848 47.9983 165.361 47.6768C164.874 47.352 164.493 46.8946 164.217 46.3047C163.942 45.7114 163.805 45.0104 163.805 44.2017C163.805 43.3996 163.942 42.7036 164.217 42.1136C164.493 41.5237 164.875 41.0679 165.366 40.7464C165.856 40.425 166.423 40.2642 167.066 40.2642C167.563 40.2642 167.956 40.3471 168.244 40.5128C168.536 40.6752 168.758 40.8608 168.911 41.0696C169.066 41.2751 169.187 41.4441 169.274 41.5767H169.373V37.8182H170.546V48H169.413V46.8267H169.274C169.187 46.9659 169.065 47.1416 168.906 47.3537C168.747 47.5625 168.52 47.7498 168.225 47.9155C167.93 48.0779 167.537 48.1591 167.046 48.1591ZM167.205 47.1051C167.676 47.1051 168.074 46.9825 168.399 46.7372C168.723 46.4886 168.97 46.1456 169.139 45.7081C169.308 45.2673 169.393 44.7585 169.393 44.1818C169.393 43.6117 169.31 43.1129 169.144 42.6854C168.979 42.2545 168.733 41.9197 168.408 41.6811C168.084 41.4392 167.683 41.3182 167.205 41.3182C166.708 41.3182 166.294 41.4458 165.962 41.701C165.634 41.9529 165.387 42.2959 165.222 42.7301C165.059 43.161 164.978 43.6449 164.978 44.1818C164.978 44.7254 165.061 45.2192 165.227 45.6634C165.396 46.1042 165.644 46.4555 165.972 46.7173C166.304 46.9759 166.715 47.1051 167.205 47.1051ZM176.726 48V37.8182H180.544C181.326 37.8182 181.983 37.964 182.513 38.2557C183.046 38.5473 183.449 38.9484 183.721 39.4588C183.996 39.9659 184.134 40.5426 184.134 41.1889C184.134 41.8419 183.996 42.4219 183.721 42.929C183.446 43.4361 183.04 43.8355 182.503 44.1271C181.966 44.4155 181.305 44.5597 180.519 44.5597H177.989V43.0433H180.271C180.728 43.0433 181.103 42.9638 181.394 42.8047C181.686 42.6456 181.901 42.4268 182.041 42.1484C182.183 41.87 182.254 41.5502 182.254 41.1889C182.254 40.8277 182.183 40.5095 182.041 40.2344C181.901 39.9593 181.684 39.7455 181.389 39.593C181.098 39.4373 180.721 39.3594 180.261 39.3594H178.57V48H176.726ZM185.656 48V40.3636H187.401V41.6364H187.481C187.62 41.1955 187.859 40.8558 188.197 40.6172C188.538 40.3752 188.927 40.2543 189.365 40.2543C189.464 40.2543 189.575 40.2592 189.698 40.2692C189.824 40.2758 189.928 40.2874 190.011 40.304V41.9595C189.935 41.933 189.814 41.9098 189.648 41.8899C189.486 41.8667 189.329 41.8551 189.176 41.8551C188.848 41.8551 188.553 41.9264 188.291 42.0689C188.033 42.2081 187.829 42.402 187.68 42.6506C187.53 42.8991 187.456 43.1858 187.456 43.5107V48H185.656ZM191.207 48V40.3636H193.007V48H191.207ZM192.112 39.2798C191.827 39.2798 191.581 39.1854 191.376 38.9964C191.17 38.8042 191.068 38.5739 191.068 38.3054C191.068 38.0336 191.17 37.8033 191.376 37.6143C191.581 37.4221 191.827 37.326 192.112 37.326C192.4 37.326 192.645 37.4221 192.848 37.6143C193.053 37.8033 193.156 38.0336 193.156 38.3054C193.156 38.5739 193.053 38.8042 192.848 38.9964C192.645 39.1854 192.4 39.2798 192.112 39.2798ZM201.678 40.3636L198.959 48H196.97L194.251 40.3636H196.17L197.925 46.0362H198.004L199.764 40.3636H201.678ZM204.902 48.1541C204.419 48.1541 203.983 48.0679 203.595 47.8956C203.21 47.7199 202.906 47.4614 202.68 47.12C202.458 46.7786 202.347 46.3577 202.347 45.8572C202.347 45.4264 202.427 45.0701 202.586 44.7884C202.745 44.5066 202.962 44.2812 203.237 44.1122C203.512 43.9432 203.822 43.8156 204.167 43.7294C204.515 43.6399 204.874 43.5753 205.245 43.5355C205.693 43.4891 206.056 43.4477 206.334 43.4112C206.613 43.3714 206.815 43.3118 206.941 43.2322C207.07 43.1494 207.135 43.0218 207.135 42.8494V42.8196C207.135 42.4451 207.024 42.1551 206.802 41.9496C206.58 41.7441 206.26 41.6413 205.842 41.6413C205.401 41.6413 205.052 41.7375 204.793 41.9297C204.538 42.1219 204.366 42.349 204.276 42.6108L202.596 42.3722C202.728 41.9081 202.947 41.5204 203.252 41.2088C203.557 40.8939 203.93 40.6586 204.37 40.5028C204.811 40.3438 205.299 40.2642 205.832 40.2642C206.2 40.2642 206.566 40.3073 206.931 40.3935C207.295 40.4796 207.629 40.6222 207.93 40.821C208.232 41.0166 208.474 41.2834 208.656 41.6214C208.842 41.9595 208.934 42.3821 208.934 42.8892V48H207.204V46.951H207.145C207.035 47.1631 206.881 47.362 206.682 47.5476C206.487 47.7299 206.24 47.8774 205.941 47.9901C205.647 48.0994 205.3 48.1541 204.902 48.1541ZM205.37 46.8317C205.731 46.8317 206.044 46.7604 206.309 46.6179C206.575 46.4721 206.778 46.2798 206.921 46.0412C207.067 45.8026 207.14 45.5424 207.14 45.2607V44.3608C207.083 44.4072 206.987 44.4503 206.851 44.4901C206.719 44.5298 206.57 44.5646 206.404 44.5945C206.238 44.6243 206.074 44.6508 205.912 44.674C205.749 44.6972 205.608 44.7171 205.489 44.7337C205.221 44.7701 204.98 44.8298 204.768 44.9126C204.556 44.9955 204.389 45.1115 204.266 45.2607C204.143 45.4065 204.082 45.5954 204.082 45.8274C204.082 46.1589 204.203 46.4091 204.445 46.5781C204.687 46.7472 204.995 46.8317 205.37 46.8317ZM214.075 48.1491C213.313 48.1491 212.658 47.9818 212.111 47.647C211.568 47.3123 211.148 46.8499 210.853 46.2599C210.562 45.6667 210.416 44.9839 210.416 44.2116C210.416 43.4361 210.565 42.7517 210.863 42.1584C211.162 41.5618 211.583 41.0978 212.126 40.7663C212.673 40.4316 213.319 40.2642 214.065 40.2642C214.685 40.2642 215.233 40.3786 215.711 40.6072C216.191 40.8326 216.574 41.1525 216.859 41.5668C217.144 41.9777 217.307 42.4583 217.346 43.0085H215.626C215.557 42.6406 215.391 42.334 215.129 42.0888C214.87 41.8402 214.524 41.7159 214.09 41.7159C213.722 41.7159 213.399 41.8153 213.12 42.0142C212.842 42.2098 212.625 42.4915 212.469 42.8594C212.317 43.2273 212.241 43.6681 212.241 44.1818C212.241 44.7022 212.317 45.1496 212.469 45.5241C212.622 45.8954 212.835 46.1821 213.111 46.3842C213.389 46.5831 213.715 46.6825 214.09 46.6825C214.355 46.6825 214.592 46.6328 214.801 46.5334C215.013 46.4306 215.19 46.2831 215.333 46.0909C215.475 45.8987 215.573 45.665 215.626 45.3899H217.346C217.303 45.9302 217.144 46.4091 216.869 46.8267C216.594 47.241 216.219 47.5658 215.745 47.8011C215.272 48.0331 214.715 48.1491 214.075 48.1491ZM219.943 50.8636C219.697 50.8636 219.47 50.8438 219.262 50.804C219.056 50.7675 218.892 50.7244 218.769 50.6747L219.187 49.2727C219.449 49.349 219.683 49.3854 219.888 49.3821C220.094 49.3788 220.274 49.3142 220.43 49.1882C220.589 49.0656 220.723 48.8601 220.833 48.5717L220.987 48.1591L218.218 40.3636H220.127L221.887 46.1307H221.966L223.731 40.3636H225.645L222.588 48.9247C222.445 49.3291 222.256 49.6754 222.021 49.9638C221.786 50.2554 221.497 50.4775 221.156 50.63C220.818 50.7857 220.413 50.8636 219.943 50.8636ZM230.443 48V37.8182H234.261C235.043 37.8182 235.699 37.964 236.23 38.2557C236.763 38.5473 237.166 38.9484 237.438 39.4588C237.713 39.9659 237.85 40.5426 237.85 41.1889C237.85 41.8419 237.713 42.4219 237.438 42.929C237.163 43.4361 236.757 43.8355 236.22 44.1271C235.683 44.4155 235.022 44.5597 234.236 44.5597H231.706V43.0433H233.987C234.445 43.0433 234.819 42.9638 235.111 42.8047C235.403 42.6456 235.618 42.4268 235.757 42.1484C235.9 41.87 235.971 41.5502 235.971 41.1889C235.971 40.8277 235.9 40.5095 235.757 40.2344C235.618 39.9593 235.401 39.7455 235.106 39.593C234.814 39.4373 234.438 39.3594 233.978 39.3594H232.287V48H230.443ZM242.595 48.1491C241.849 48.1491 241.203 47.9851 240.656 47.657C240.109 47.3288 239.685 46.8698 239.383 46.2798C239.085 45.6899 238.935 45.0005 238.935 44.2116C238.935 43.4228 239.085 42.7318 239.383 42.1385C239.685 41.5452 240.109 41.0845 240.656 40.7564C241.203 40.4283 241.849 40.2642 242.595 40.2642C243.34 40.2642 243.987 40.4283 244.533 40.7564C245.08 41.0845 245.503 41.5452 245.801 42.1385C246.103 42.7318 246.254 43.4228 246.254 44.2116C246.254 45.0005 246.103 45.6899 245.801 46.2798C245.503 46.8698 245.08 47.3288 244.533 47.657C243.987 47.9851 243.34 48.1491 242.595 48.1491ZM242.604 46.7074C243.009 46.7074 243.347 46.5964 243.619 46.3743C243.89 46.1489 244.093 45.8473 244.225 45.4695C244.361 45.0916 244.429 44.6707 244.429 44.2067C244.429 43.7393 244.361 43.3168 244.225 42.9389C244.093 42.5578 243.89 42.2545 243.619 42.0291C243.347 41.8037 243.009 41.6911 242.604 41.6911C242.19 41.6911 241.845 41.8037 241.57 42.0291C241.299 42.2545 241.095 42.5578 240.959 42.9389C240.826 43.3168 240.76 43.7393 240.76 44.2067C240.76 44.6707 240.826 45.0916 240.959 45.4695C241.095 45.8473 241.299 46.1489 241.57 46.3743C241.845 46.5964 242.19 46.7074 242.604 46.7074ZM249.581 37.8182V48H247.781V37.8182H249.581ZM251.432 48V40.3636H253.231V48H251.432ZM252.336 39.2798C252.051 39.2798 251.806 39.1854 251.601 38.9964C251.395 38.8042 251.292 38.5739 251.292 38.3054C251.292 38.0336 251.395 37.8033 251.601 37.6143C251.806 37.4221 252.051 37.326 252.336 37.326C252.625 37.326 252.87 37.4221 253.072 37.6143C253.278 37.8033 253.38 38.0336 253.38 38.3054C253.38 38.5739 253.278 38.8042 253.072 38.9964C252.87 39.1854 252.625 39.2798 252.336 39.2798ZM258.413 48.1491C257.651 48.1491 256.996 47.9818 256.449 47.647C255.906 47.3123 255.486 46.8499 255.191 46.2599C254.9 45.6667 254.754 44.9839 254.754 44.2116C254.754 43.4361 254.903 42.7517 255.201 42.1584C255.5 41.5618 255.92 41.0978 256.464 40.7663C257.011 40.4316 257.657 40.2642 258.403 40.2642C259.023 40.2642 259.571 40.3786 260.049 40.6072C260.529 40.8326 260.912 41.1525 261.197 41.5668C261.482 41.9777 261.644 42.4583 261.684 43.0085H259.964C259.894 42.6406 259.729 42.334 259.467 42.0888C259.208 41.8402 258.862 41.7159 258.428 41.7159C258.06 41.7159 257.737 41.8153 257.458 42.0142C257.18 42.2098 256.963 42.4915 256.807 42.8594C256.655 43.2273 256.578 43.6681 256.578 44.1818C256.578 44.7022 256.655 45.1496 256.807 45.5241C256.96 45.8954 257.173 46.1821 257.448 46.3842C257.727 46.5831 258.053 46.6825 258.428 46.6825C258.693 46.6825 258.93 46.6328 259.139 46.5334C259.351 46.4306 259.528 46.2831 259.671 46.0909C259.813 45.8987 259.911 45.665 259.964 45.3899H261.684C261.641 45.9302 261.482 46.4091 261.207 46.8267C260.932 47.241 260.557 47.5658 260.083 47.8011C259.609 48.0331 259.053 48.1491 258.413 48.1491ZM264.281 50.8636C264.035 50.8636 263.808 50.8438 263.6 50.804C263.394 50.7675 263.23 50.7244 263.107 50.6747L263.525 49.2727C263.787 49.349 264.02 49.3854 264.226 49.3821C264.431 49.3788 264.612 49.3142 264.768 49.1882C264.927 49.0656 265.061 48.8601 265.171 48.5717L265.325 48.1591L262.555 40.3636H264.465L266.225 46.1307H266.304L268.069 40.3636H269.983L266.926 48.9247C266.783 49.3291 266.594 49.6754 266.359 49.9638C266.123 50.2554 265.835 50.4775 265.494 50.63C265.156 50.7857 264.751 50.8636 264.281 50.8636ZM272.233 48.0795C271.987 48.0795 271.777 47.9917 271.601 47.8161C271.426 47.6404 271.338 47.4299 271.338 47.1847C271.338 46.9394 271.426 46.7289 271.601 46.5533C271.777 46.3776 271.987 46.2898 272.233 46.2898C272.478 46.2898 272.688 46.3776 272.864 46.5533C273.04 46.7289 273.128 46.9394 273.128 47.1847C273.128 47.3471 273.086 47.4962 273.003 47.6321C272.924 47.768 272.816 47.8774 272.68 47.9602C272.548 48.0398 272.398 48.0795 272.233 48.0795Z" fill="#605D67"/>
</svg>
