<svg width="242" height="43" viewBox="0 0 242 43" fill="none" xmlns="http://www.w3.org/2000/svg">
<path d="M17.8352 12L14.6534 0.363636H16.0852L18.517 9.84091H18.6307L21.108 0.363636H22.6989L25.1761 9.84091H25.2898L27.7216 0.363636H29.1534L25.9716 12H24.517L21.9489 2.72727H21.858L19.2898 12H17.8352ZM33.5739 12.1818C32.733 12.1818 32.0076 11.9962 31.3977 11.625C30.7917 11.25 30.3239 10.7273 29.9943 10.0568C29.6686 9.38258 29.5057 8.59848 29.5057 7.70455C29.5057 6.81061 29.6686 6.02273 29.9943 5.34091C30.3239 4.6553 30.7822 4.12121 31.3693 3.73864C31.9602 3.35227 32.6496 3.15909 33.4375 3.15909C33.892 3.15909 34.3409 3.23485 34.7841 3.38636C35.2273 3.53788 35.6307 3.78409 35.9943 4.125C36.358 4.46212 36.6477 4.90909 36.8636 5.46591C37.0795 6.02273 37.1875 6.70833 37.1875 7.52273V8.09091H30.4602V6.93182H35.8239C35.8239 6.43939 35.7254 6 35.5284 5.61364C35.3352 5.22727 35.0587 4.92235 34.6989 4.69886C34.3428 4.47538 33.9223 4.36364 33.4375 4.36364C32.9034 4.36364 32.4413 4.49621 32.0511 4.76136C31.6648 5.02273 31.3674 5.36364 31.1591 5.78409C30.9508 6.20455 30.8466 6.6553 30.8466 7.13636V7.90909C30.8466 8.56818 30.9602 9.12689 31.1875 9.58523C31.4186 10.0398 31.7386 10.3864 32.1477 10.625C32.5568 10.8598 33.0322 10.9773 33.5739 10.9773C33.9261 10.9773 34.2443 10.928 34.5284 10.8295C34.8163 10.7273 35.0644 10.5758 35.2727 10.375C35.4811 10.1705 35.642 9.91667 35.7557 9.61364L37.0511 9.97727C36.9148 10.4167 36.6856 10.803 36.3636 11.1364C36.0417 11.4659 35.6439 11.7235 35.1705 11.9091C34.697 12.0909 34.1648 12.1818 33.5739 12.1818ZM43.7273 3.27273H45.0682V12.6364C45.0682 13.1742 44.9754 13.6402 44.7898 14.0341C44.608 14.428 44.3314 14.733 43.9602 14.9489C43.5928 15.1648 43.1288 15.2727 42.5682 15.2727C42.5227 15.2727 42.4773 15.2727 42.4318 15.2727C42.3864 15.2727 42.3409 15.2727 42.2955 15.2727V14.0227C42.3409 14.0227 42.3826 14.0227 42.4205 14.0227C42.4583 14.0227 42.5 14.0227 42.5455 14.0227C42.9545 14.0227 43.2538 13.9015 43.4432 13.6591C43.6326 13.4205 43.7273 13.0795 43.7273 12.6364V3.27273ZM44.3864 1.81818C44.125 1.81818 43.8996 1.72917 43.7102 1.55114C43.5246 1.37311 43.4318 1.15909 43.4318 0.909091C43.4318 0.659091 43.5246 0.445076 43.7102 0.267045C43.8996 0.089015 44.125 0 44.3864 0C44.6477 0 44.8712 0.089015 45.0568 0.267045C45.2462 0.445076 45.3409 0.659091 45.3409 0.909091C45.3409 1.15909 45.2462 1.37311 45.0568 1.55114C44.8712 1.72917 44.6477 1.81818 44.3864 1.81818ZM53.0241 8.43182V3.27273H54.3651V12H53.0241V10.5227H52.9332C52.7287 10.9659 52.4105 11.3428 51.9787 11.6534C51.5469 11.9602 51.0014 12.1136 50.3423 12.1136C49.7969 12.1136 49.312 11.9943 48.8878 11.7557C48.4635 11.5133 48.1302 11.1496 47.8878 10.6648C47.6454 10.1761 47.5241 9.56061 47.5241 8.81818V3.27273H48.8651V8.72727C48.8651 9.36364 49.0431 9.87121 49.3991 10.25C49.759 10.6288 50.2173 10.8182 50.7741 10.8182C51.1075 10.8182 51.4465 10.733 51.7912 10.5625C52.1397 10.392 52.4313 10.1307 52.6662 9.77841C52.9048 9.42614 53.0241 8.97727 53.0241 8.43182ZM63.0028 5.22727L61.7983 5.56818C61.7225 5.36742 61.6108 5.17235 61.4631 4.98295C61.3191 4.78977 61.1222 4.63068 60.8722 4.50568C60.6222 4.38068 60.3021 4.31818 59.9119 4.31818C59.3778 4.31818 58.9328 4.44129 58.5767 4.6875C58.2244 4.92992 58.0483 5.23864 58.0483 5.61364C58.0483 5.94697 58.1695 6.21023 58.4119 6.40341C58.6544 6.59659 59.0331 6.75758 59.5483 6.88636L60.8438 7.20455C61.6241 7.39394 62.2055 7.68371 62.5881 8.07386C62.9706 8.46023 63.1619 8.95833 63.1619 9.56818C63.1619 10.0682 63.018 10.5152 62.7301 10.9091C62.446 11.303 62.0483 11.6136 61.5369 11.8409C61.0256 12.0682 60.4309 12.1818 59.7528 12.1818C58.8627 12.1818 58.1259 11.9886 57.5426 11.6023C56.9593 11.2159 56.59 10.6515 56.4347 9.90909L57.7074 9.59091C57.8286 10.0606 58.0578 10.4129 58.3949 10.6477C58.7358 10.8826 59.1809 11 59.7301 11C60.3551 11 60.8513 10.8674 61.2188 10.6023C61.59 10.3333 61.7756 10.0114 61.7756 9.63636C61.7756 9.33333 61.6695 9.07955 61.4574 8.875C61.2453 8.66667 60.9195 8.51136 60.4801 8.40909L59.0256 8.06818C58.2263 7.87879 57.6392 7.58523 57.2642 7.1875C56.893 6.78598 56.7074 6.28409 56.7074 5.68182C56.7074 5.18939 56.8456 4.75379 57.1222 4.375C57.4025 3.99621 57.7831 3.69886 58.2642 3.48295C58.7491 3.26705 59.2983 3.15909 59.9119 3.15909C60.7756 3.15909 61.4536 3.34848 61.946 3.72727C62.4422 4.10606 62.7945 4.60606 63.0028 5.22727ZM68.9759 3.27273V4.40909H64.4531V3.27273H68.9759ZM65.7713 1.18182H67.1122V9.5C67.1122 9.87879 67.1671 10.1629 67.277 10.3523C67.3906 10.5379 67.5346 10.6629 67.7088 10.7273C67.8868 10.7879 68.0743 10.8182 68.2713 10.8182C68.419 10.8182 68.5402 10.8106 68.6349 10.7955C68.7296 10.7765 68.8054 10.7614 68.8622 10.75L69.1349 11.9545C69.044 11.9886 68.9171 12.0227 68.7543 12.0568C68.5914 12.0947 68.3849 12.1136 68.1349 12.1136C67.7562 12.1136 67.3849 12.0322 67.0213 11.8693C66.6615 11.7064 66.3622 11.4583 66.1236 11.125C65.8887 10.7917 65.7713 10.3712 65.7713 9.86364V1.18182ZM81.6747 5.22727L80.4702 5.56818C80.3944 5.36742 80.2827 5.17235 80.1349 4.98295C79.991 4.78977 79.794 4.63068 79.544 4.50568C79.294 4.38068 78.974 4.31818 78.5838 4.31818C78.0497 4.31818 77.6046 4.44129 77.2486 4.6875C76.8963 4.92992 76.7202 5.23864 76.7202 5.61364C76.7202 5.94697 76.8414 6.21023 77.0838 6.40341C77.3262 6.59659 77.705 6.75758 78.2202 6.88636L79.5156 7.20455C80.2959 7.39394 80.8774 7.68371 81.2599 8.07386C81.6425 8.46023 81.8338 8.95833 81.8338 9.56818C81.8338 10.0682 81.6899 10.5152 81.402 10.9091C81.1179 11.303 80.7202 11.6136 80.2088 11.8409C79.6974 12.0682 79.1027 12.1818 78.4247 12.1818C77.5346 12.1818 76.7978 11.9886 76.2145 11.6023C75.6312 11.2159 75.2618 10.6515 75.1065 9.90909L76.3793 9.59091C76.5005 10.0606 76.7296 10.4129 77.0668 10.6477C77.4077 10.8826 77.8527 11 78.402 11C79.027 11 79.5232 10.8674 79.8906 10.6023C80.2618 10.3333 80.4474 10.0114 80.4474 9.63636C80.4474 9.33333 80.3414 9.07955 80.1293 8.875C79.9171 8.66667 79.5914 8.51136 79.152 8.40909L77.6974 8.06818C76.8982 7.87879 76.3111 7.58523 75.9361 7.1875C75.5649 6.78598 75.3793 6.28409 75.3793 5.68182C75.3793 5.18939 75.5175 4.75379 75.794 4.375C76.0743 3.99621 76.455 3.69886 76.9361 3.48295C77.4209 3.26705 77.9702 3.15909 78.5838 3.15909C79.4474 3.15909 80.1255 3.34848 80.6179 3.72727C81.1141 4.10606 81.4664 4.60606 81.6747 5.22727ZM87.5114 12.1818C86.6705 12.1818 85.9451 11.9962 85.3352 11.625C84.7292 11.25 84.2614 10.7273 83.9318 10.0568C83.6061 9.38258 83.4432 8.59848 83.4432 7.70455C83.4432 6.81061 83.6061 6.02273 83.9318 5.34091C84.2614 4.6553 84.7197 4.12121 85.3068 3.73864C85.8977 3.35227 86.5871 3.15909 87.375 3.15909C87.8295 3.15909 88.2784 3.23485 88.7216 3.38636C89.1648 3.53788 89.5682 3.78409 89.9318 4.125C90.2955 4.46212 90.5852 4.90909 90.8011 5.46591C91.017 6.02273 91.125 6.70833 91.125 7.52273V8.09091H84.3977V6.93182H89.7614C89.7614 6.43939 89.6629 6 89.4659 5.61364C89.2727 5.22727 88.9962 4.92235 88.6364 4.69886C88.2803 4.47538 87.8598 4.36364 87.375 4.36364C86.8409 4.36364 86.3788 4.49621 85.9886 4.76136C85.6023 5.02273 85.3049 5.36364 85.0966 5.78409C84.8883 6.20455 84.7841 6.6553 84.7841 7.13636V7.90909C84.7841 8.56818 84.8977 9.12689 85.125 9.58523C85.3561 10.0398 85.6761 10.3864 86.0852 10.625C86.4943 10.8598 86.9697 10.9773 87.5114 10.9773C87.8636 10.9773 88.1818 10.928 88.4659 10.8295C88.7538 10.7273 89.0019 10.5758 89.2102 10.375C89.4186 10.1705 89.5795 9.91667 89.6932 9.61364L90.9886 9.97727C90.8523 10.4167 90.6231 10.803 90.3011 11.1364C89.9792 11.4659 89.5814 11.7235 89.108 11.9091C88.6345 12.0909 88.1023 12.1818 87.5114 12.1818ZM94.5057 6.75V12H93.1648V3.27273H94.4602V4.63636H94.5739C94.7784 4.19318 95.089 3.83712 95.5057 3.56818C95.9223 3.29545 96.4602 3.15909 97.1193 3.15909C97.7102 3.15909 98.2273 3.2803 98.6705 3.52273C99.1136 3.76136 99.4583 4.125 99.7045 4.61364C99.9508 5.09848 100.074 5.71212 100.074 6.45455V12H98.733V6.54545C98.733 5.85985 98.5549 5.32576 98.1989 4.94318C97.8428 4.55682 97.3542 4.36364 96.733 4.36364C96.3049 4.36364 95.9223 4.45644 95.5852 4.64205C95.2519 4.82765 94.9886 5.09848 94.7955 5.45455C94.6023 5.81061 94.5057 6.24242 94.5057 6.75ZM106.32 3.27273V4.40909H101.797V3.27273H106.32ZM103.115 1.18182H104.456V9.5C104.456 9.87879 104.511 10.1629 104.621 10.3523C104.734 10.5379 104.878 10.6629 105.053 10.7273C105.231 10.7879 105.418 10.8182 105.615 10.8182C105.763 10.8182 105.884 10.8106 105.979 10.7955C106.073 10.7765 106.149 10.7614 106.206 10.75L106.479 11.9545C106.388 11.9886 106.261 12.0227 106.098 12.0568C105.935 12.0947 105.729 12.1136 105.479 12.1136C105.1 12.1136 104.729 12.0322 104.365 11.8693C104.005 11.7064 103.706 11.4583 103.467 11.125C103.232 10.7917 103.115 10.3712 103.115 9.86364V1.18182ZM116.45 12.1591C115.784 12.1591 115.183 12.0265 114.649 11.7614C114.115 11.4962 113.687 11.1326 113.365 10.6705C113.043 10.2083 112.867 9.68182 112.837 9.09091H114.2C114.253 9.61742 114.492 10.053 114.916 10.3977C115.344 10.7386 115.856 10.9091 116.45 10.9091C116.928 10.9091 117.352 10.7973 117.723 10.5739C118.098 10.3504 118.392 10.0436 118.604 9.65341C118.82 9.25947 118.928 8.81439 118.928 8.31818C118.928 7.81061 118.816 7.35795 118.592 6.96023C118.373 6.55871 118.07 6.24242 117.683 6.01136C117.297 5.7803 116.856 5.66288 116.359 5.65909C116.003 5.6553 115.638 5.71023 115.263 5.82386C114.888 5.93371 114.579 6.07576 114.337 6.25L113.018 6.09091L113.723 0.363636H119.768V1.61364H114.905L114.496 5.04545H114.564C114.803 4.85606 115.102 4.69886 115.462 4.57386C115.821 4.44886 116.196 4.38636 116.587 4.38636C117.299 4.38636 117.933 4.55682 118.49 4.89773C119.051 5.23485 119.49 5.69697 119.808 6.28409C120.13 6.87121 120.291 7.54167 120.291 8.29545C120.291 9.03788 120.125 9.70076 119.791 10.2841C119.462 10.8636 119.007 11.322 118.428 11.6591C117.848 11.9924 117.189 12.1591 116.45 12.1591ZM127.571 6.38636V7.63636H122.48V6.38636H127.571ZM133.226 12.1818C132.499 12.1818 131.857 11.9981 131.3 11.6307C130.743 11.2595 130.307 10.7367 129.993 10.0625C129.679 9.38447 129.521 8.58333 129.521 7.65909C129.521 6.74242 129.679 5.94697 129.993 5.27273C130.307 4.59848 130.745 4.07765 131.305 3.71023C131.866 3.3428 132.514 3.15909 133.249 3.15909C133.817 3.15909 134.266 3.25379 134.595 3.44318C134.929 3.62879 135.182 3.84091 135.357 4.07955C135.535 4.31439 135.673 4.50758 135.771 4.65909H135.885V0.363636H137.226V12H135.93V10.6591H135.771C135.673 10.8182 135.533 11.0189 135.351 11.2614C135.169 11.5 134.91 11.714 134.572 11.9034C134.235 12.089 133.786 12.1818 133.226 12.1818ZM133.408 10.9773C133.946 10.9773 134.4 10.8371 134.771 10.5568C135.143 10.2727 135.425 9.88068 135.618 9.38068C135.811 8.87689 135.908 8.29545 135.908 7.63636C135.908 6.98485 135.813 6.41477 135.624 5.92614C135.434 5.43371 135.154 5.05114 134.783 4.77841C134.411 4.50189 133.953 4.36364 133.408 4.36364C132.839 4.36364 132.366 4.50947 131.987 4.80114C131.612 5.08902 131.33 5.48106 131.141 5.97727C130.955 6.4697 130.862 7.02273 130.862 7.63636C130.862 8.25758 130.957 8.82197 131.146 9.32955C131.339 9.83333 131.624 10.2348 131.999 10.5341C132.377 10.8295 132.847 10.9773 133.408 10.9773ZM139.868 12V3.27273H141.209V12H139.868ZM140.55 1.81818C140.288 1.81818 140.063 1.72917 139.874 1.55114C139.688 1.37311 139.595 1.15909 139.595 0.909091C139.595 0.659091 139.688 0.445076 139.874 0.267045C140.063 0.089015 140.288 0 140.55 0C140.811 0 141.035 0.089015 141.22 0.267045C141.41 0.445076 141.504 0.659091 141.504 0.909091C141.504 1.15909 141.41 1.37311 141.22 1.55114C141.035 1.72917 140.811 1.81818 140.55 1.81818ZM147.188 15.4545C146.54 15.4545 145.983 15.3712 145.517 15.2045C145.051 15.0417 144.663 14.8258 144.352 14.5568C144.045 14.2917 143.801 14.0076 143.619 13.7045L144.688 12.9545C144.809 13.1136 144.962 13.2955 145.148 13.5C145.333 13.7083 145.587 13.8883 145.909 14.0398C146.235 14.1951 146.661 14.2727 147.188 14.2727C147.892 14.2727 148.473 14.1023 148.932 13.7614C149.39 13.4205 149.619 12.8864 149.619 12.1591V10.3864H149.506C149.407 10.5455 149.267 10.7424 149.085 10.9773C148.907 11.2083 148.65 11.4148 148.312 11.5966C147.979 11.7746 147.528 11.8636 146.96 11.8636C146.256 11.8636 145.623 11.697 145.062 11.3636C144.506 11.0303 144.064 10.5455 143.739 9.90909C143.417 9.27273 143.256 8.5 143.256 7.59091C143.256 6.69697 143.413 5.91856 143.727 5.25568C144.042 4.58901 144.479 4.07386 145.04 3.71023C145.6 3.3428 146.248 3.15909 146.983 3.15909C147.551 3.15909 148.002 3.25379 148.335 3.44318C148.672 3.62879 148.93 3.84091 149.108 4.07955C149.29 4.31439 149.43 4.50758 149.528 4.65909H149.665V3.27273H150.96V12.25C150.96 13 150.79 13.6098 150.449 14.0795C150.112 14.553 149.657 14.8996 149.085 15.1193C148.517 15.3428 147.884 15.4545 147.188 15.4545ZM147.142 10.6591C147.68 10.6591 148.134 10.536 148.506 10.2898C148.877 10.0436 149.159 9.68939 149.352 9.22727C149.545 8.76515 149.642 8.21212 149.642 7.56818C149.642 6.93939 149.547 6.38447 149.358 5.90341C149.169 5.42235 148.888 5.04545 148.517 4.77273C148.146 4.5 147.688 4.36364 147.142 4.36364C146.574 4.36364 146.1 4.50758 145.722 4.79545C145.347 5.08333 145.064 5.4697 144.875 5.95455C144.689 6.43939 144.597 6.97727 144.597 7.56818C144.597 8.17424 144.691 8.71023 144.881 9.17614C145.074 9.63826 145.358 10.0019 145.733 10.267C146.112 10.5284 146.581 10.6591 147.142 10.6591ZM153.415 12V3.27273H154.756V12H153.415ZM154.097 1.81818C153.835 1.81818 153.61 1.72917 153.42 1.55114C153.235 1.37311 153.142 1.15909 153.142 0.909091C153.142 0.659091 153.235 0.445076 153.42 0.267045C153.61 0.089015 153.835 0 154.097 0C154.358 0 154.581 0.089015 154.767 0.267045C154.956 0.445076 155.051 0.659091 155.051 0.909091C155.051 1.15909 154.956 1.37311 154.767 1.55114C154.581 1.72917 154.358 1.81818 154.097 1.81818ZM161.007 3.27273V4.40909H156.484V3.27273H161.007ZM157.803 1.18182H159.143V9.5C159.143 9.87879 159.198 10.1629 159.308 10.3523C159.422 10.5379 159.566 10.6629 159.74 10.7273C159.918 10.7879 160.106 10.8182 160.303 10.8182C160.45 10.8182 160.571 10.8106 160.666 10.7955C160.761 10.7765 160.837 10.7614 160.893 10.75L161.166 11.9545C161.075 11.9886 160.948 12.0227 160.786 12.0568C160.623 12.0947 160.416 12.1136 160.166 12.1136C159.787 12.1136 159.416 12.0322 159.053 11.8693C158.693 11.7064 158.393 11.4583 158.155 11.125C157.92 10.7917 157.803 10.3712 157.803 9.86364V1.18182ZM171.07 12.1818C170.251 12.1818 169.547 11.9886 168.956 11.6023C168.365 11.2159 167.911 10.6837 167.592 10.0057C167.274 9.32765 167.115 8.55303 167.115 7.68182C167.115 6.79545 167.278 6.01326 167.604 5.33523C167.933 4.65341 168.392 4.12121 168.979 3.73864C169.57 3.35227 170.259 3.15909 171.047 3.15909C171.661 3.15909 172.214 3.27273 172.706 3.5C173.198 3.72727 173.602 4.04545 173.916 4.45455C174.231 4.86364 174.426 5.34091 174.501 5.88636H173.161C173.058 5.48864 172.831 5.13636 172.479 4.82955C172.13 4.51894 171.661 4.36364 171.07 4.36364C170.547 4.36364 170.089 4.5 169.695 4.77273C169.304 5.04167 169 5.42235 168.78 5.91477C168.564 6.40341 168.456 6.97727 168.456 7.63636C168.456 8.31061 168.562 8.89773 168.774 9.39773C168.99 9.89773 169.293 10.286 169.683 10.5625C170.077 10.839 170.539 10.9773 171.07 10.9773C171.418 10.9773 171.734 10.9167 172.018 10.7955C172.303 10.6742 172.543 10.5 172.74 10.2727C172.937 10.0455 173.077 9.77273 173.161 9.45455H174.501C174.426 9.9697 174.238 10.4337 173.939 10.8466C173.643 11.2557 173.251 11.5814 172.763 11.8239C172.278 12.0625 171.714 12.1818 171.07 12.1818ZM180.007 12.1818C179.219 12.1818 178.528 11.9943 177.933 11.6193C177.342 11.2443 176.88 10.7197 176.547 10.0455C176.217 9.37121 176.053 8.58333 176.053 7.68182C176.053 6.77273 176.217 5.97917 176.547 5.30114C176.88 4.62311 177.342 4.09659 177.933 3.72159C178.528 3.34659 179.219 3.15909 180.007 3.15909C180.795 3.15909 181.484 3.34659 182.075 3.72159C182.67 4.09659 183.132 4.62311 183.462 5.30114C183.795 5.97917 183.962 6.77273 183.962 7.68182C183.962 8.58333 183.795 9.37121 183.462 10.0455C183.132 10.7197 182.67 11.2443 182.075 11.6193C181.484 11.9943 180.795 12.1818 180.007 12.1818ZM180.007 10.9773C180.606 10.9773 181.098 10.8239 181.484 10.517C181.871 10.2102 182.157 9.80682 182.342 9.30682C182.528 8.80682 182.621 8.26515 182.621 7.68182C182.621 7.09848 182.528 6.55492 182.342 6.05114C182.157 5.54735 181.871 5.14015 181.484 4.82955C181.098 4.51894 180.606 4.36364 180.007 4.36364C179.409 4.36364 178.916 4.51894 178.53 4.82955C178.143 5.14015 177.857 5.54735 177.672 6.05114C177.486 6.55492 177.393 7.09848 177.393 7.68182C177.393 8.26515 177.486 8.80682 177.672 9.30682C177.857 9.80682 178.143 10.2102 178.53 10.517C178.916 10.8239 179.409 10.9773 180.007 10.9773ZM189.304 12.1818C188.577 12.1818 187.935 11.9981 187.378 11.6307C186.821 11.2595 186.385 10.7367 186.071 10.0625C185.757 9.38447 185.599 8.58333 185.599 7.65909C185.599 6.74242 185.757 5.94697 186.071 5.27273C186.385 4.59848 186.823 4.07765 187.384 3.71023C187.944 3.3428 188.592 3.15909 189.327 3.15909C189.895 3.15909 190.344 3.25379 190.673 3.44318C191.007 3.62879 191.26 3.84091 191.435 4.07955C191.613 4.31439 191.751 4.50758 191.849 4.65909H191.963V0.363636H193.304V12H192.009V10.6591H191.849C191.751 10.8182 191.611 11.0189 191.429 11.2614C191.247 11.5 190.988 11.714 190.651 11.9034C190.313 12.089 189.865 12.1818 189.304 12.1818ZM189.486 10.9773C190.024 10.9773 190.478 10.8371 190.849 10.5568C191.221 10.2727 191.503 9.88068 191.696 9.38068C191.889 8.87689 191.986 8.29545 191.986 7.63636C191.986 6.98485 191.891 6.41477 191.702 5.92614C191.512 5.43371 191.232 5.05114 190.861 4.77841C190.49 4.50189 190.031 4.36364 189.486 4.36364C188.918 4.36364 188.444 4.50947 188.065 4.80114C187.69 5.08902 187.408 5.48106 187.219 5.97727C187.033 6.4697 186.94 7.02273 186.94 7.63636C186.94 8.25758 187.035 8.82197 187.224 9.32955C187.418 9.83333 187.702 10.2348 188.077 10.5341C188.455 10.8295 188.925 10.9773 189.486 10.9773ZM199.605 12.1818C198.764 12.1818 198.039 11.9962 197.429 11.625C196.823 11.25 196.355 10.7273 196.026 10.0568C195.7 9.38258 195.537 8.59848 195.537 7.70455C195.537 6.81061 195.7 6.02273 196.026 5.34091C196.355 4.6553 196.813 4.12121 197.401 3.73864C197.991 3.35227 198.681 3.15909 199.469 3.15909C199.923 3.15909 200.372 3.23485 200.815 3.38636C201.259 3.53788 201.662 3.78409 202.026 4.125C202.389 4.46212 202.679 4.90909 202.895 5.46591C203.111 6.02273 203.219 6.70833 203.219 7.52273V8.09091H196.491V6.93182H201.855C201.855 6.43939 201.757 6 201.56 5.61364C201.366 5.22727 201.09 4.92235 200.73 4.69886C200.374 4.47538 199.954 4.36364 199.469 4.36364C198.935 4.36364 198.473 4.49621 198.082 4.76136C197.696 5.02273 197.399 5.36364 197.19 5.78409C196.982 6.20455 196.878 6.6553 196.878 7.13636V7.90909C196.878 8.56818 196.991 9.12689 197.219 9.58523C197.45 10.0398 197.77 10.3864 198.179 10.625C198.588 10.8598 199.063 10.9773 199.605 10.9773C199.957 10.9773 200.276 10.928 200.56 10.8295C200.848 10.7273 201.096 10.5758 201.304 10.375C201.512 10.1705 201.673 9.91667 201.787 9.61364L203.082 9.97727C202.946 10.4167 202.717 10.803 202.395 11.1364C202.073 11.4659 201.675 11.7235 201.202 11.9091C200.728 12.0909 200.196 12.1818 199.605 12.1818ZM213.554 3.27273V4.40909H209.031V3.27273H213.554ZM210.349 1.18182H211.69V9.5C211.69 9.87879 211.745 10.1629 211.855 10.3523C211.969 10.5379 212.113 10.6629 212.287 10.7273C212.465 10.7879 212.652 10.8182 212.849 10.8182C212.997 10.8182 213.118 10.8106 213.213 10.7955C213.308 10.7765 213.384 10.7614 213.44 10.75L213.713 11.9545C213.622 11.9886 213.495 12.0227 213.332 12.0568C213.17 12.0947 212.963 12.1136 212.713 12.1136C212.334 12.1136 211.963 12.0322 211.599 11.8693C211.24 11.7064 210.94 11.4583 210.702 11.125C210.467 10.7917 210.349 10.3712 210.349 9.86364V1.18182ZM219.023 12.1818C218.235 12.1818 217.544 11.9943 216.949 11.6193C216.358 11.2443 215.896 10.7197 215.562 10.0455C215.233 9.37121 215.068 8.58333 215.068 7.68182C215.068 6.77273 215.233 5.97917 215.562 5.30114C215.896 4.62311 216.358 4.09659 216.949 3.72159C217.544 3.34659 218.235 3.15909 219.023 3.15909C219.811 3.15909 220.5 3.34659 221.091 3.72159C221.686 4.09659 222.148 4.62311 222.477 5.30114C222.811 5.97917 222.977 6.77273 222.977 7.68182C222.977 8.58333 222.811 9.37121 222.477 10.0455C222.148 10.7197 221.686 11.2443 221.091 11.6193C220.5 11.9943 219.811 12.1818 219.023 12.1818ZM219.023 10.9773C219.621 10.9773 220.114 10.8239 220.5 10.517C220.886 10.2102 221.172 9.80682 221.358 9.30682C221.544 8.80682 221.636 8.26515 221.636 7.68182C221.636 7.09848 221.544 6.55492 221.358 6.05114C221.172 5.54735 220.886 5.14015 220.5 4.82955C220.114 4.51894 219.621 4.36364 219.023 4.36364C218.424 4.36364 217.932 4.51894 217.545 4.82955C217.159 5.14015 216.873 5.54735 216.688 6.05114C216.502 6.55492 216.409 7.09848 216.409 7.68182C216.409 8.26515 216.502 8.80682 216.688 9.30682C216.873 9.80682 217.159 10.2102 217.545 10.517C217.932 10.8239 218.424 10.9773 219.023 10.9773ZM4.48864 36.1364V28.2727H6.27273V36.1364H4.48864ZM1.44886 33.0966V31.3125H9.3125V33.0966H1.44886ZM15.8395 26.2045C16.3963 26.2083 16.938 26.3068 17.4645 26.5C17.9948 26.6894 18.4721 27 18.8963 27.4318C19.3205 27.8598 19.6577 28.4337 19.9077 29.1534C20.1577 29.8731 20.2827 30.7633 20.2827 31.8239C20.2865 32.8239 20.1804 33.7178 19.9645 34.5057C19.7524 35.2898 19.4474 35.9527 19.0497 36.4943C18.652 37.036 18.1728 37.4489 17.6122 37.733C17.0516 38.017 16.4209 38.1591 15.7202 38.1591C14.9853 38.1591 14.3338 38.0152 13.7656 37.7273C13.2012 37.4394 12.7448 37.0455 12.3963 36.5455C12.0478 36.0455 11.8338 35.4735 11.7543 34.8295H13.8281C13.9342 35.2917 14.1501 35.6591 14.4759 35.9318C14.8054 36.2008 15.2202 36.3352 15.7202 36.3352C16.527 36.3352 17.1482 35.9848 17.5838 35.2841C18.0194 34.5833 18.2372 33.6098 18.2372 32.3636H18.1577C17.9721 32.697 17.7315 32.9848 17.4361 33.2273C17.1406 33.4659 16.8054 33.6496 16.4304 33.7784C16.0592 33.9072 15.6652 33.9716 15.2486 33.9716C14.5668 33.9716 13.9531 33.8087 13.4077 33.483C12.866 33.1572 12.4361 32.7102 12.1179 32.142C11.8035 31.5739 11.6444 30.9242 11.6406 30.1932C11.6406 29.4356 11.8149 28.7557 12.1634 28.1534C12.5156 27.5473 13.0062 27.0701 13.6349 26.7216C14.2637 26.3693 14.9986 26.197 15.8395 26.2045ZM15.8452 27.9091C15.4361 27.9091 15.0668 28.0095 14.7372 28.2102C14.4115 28.4072 14.1539 28.6761 13.9645 29.017C13.7789 29.3542 13.6861 29.7311 13.6861 30.1477C13.6899 30.5606 13.7827 30.9356 13.9645 31.2727C14.1501 31.6098 14.402 31.8769 14.7202 32.0739C15.0421 32.2708 15.4096 32.3693 15.8224 32.3693C16.1293 32.3693 16.4152 32.3106 16.6804 32.1932C16.9455 32.0758 17.1766 31.9129 17.3736 31.7045C17.5743 31.4924 17.7296 31.2519 17.8395 30.983C17.9531 30.714 18.008 30.4299 18.0043 30.1307C18.0043 29.733 17.9096 29.3655 17.7202 29.0284C17.5346 28.6913 17.2789 28.4205 16.9531 28.2159C16.6312 28.0114 16.2618 27.9091 15.8452 27.9091ZM26.9077 26.3636V38H24.7997V28.4148H24.7315L22.0099 30.1534V28.2216L24.902 26.3636H26.9077ZM38.5639 26.3636V38H36.456V28.4148H36.3878L33.6662 30.1534V28.2216L36.5582 26.3636H38.5639ZM41.5185 38V36.4773L45.5582 32.517C45.9446 32.1269 46.2666 31.7803 46.5241 31.4773C46.7817 31.1742 46.9749 30.8807 47.1037 30.5966C47.2325 30.3125 47.2969 30.0095 47.2969 29.6875C47.2969 29.3201 47.2135 29.0057 47.0469 28.7443C46.8802 28.4792 46.651 28.2746 46.3594 28.1307C46.0677 27.9867 45.7363 27.9148 45.3651 27.9148C44.9825 27.9148 44.6473 27.9943 44.3594 28.1534C44.0715 28.3087 43.848 28.5303 43.6889 28.8182C43.5336 29.1061 43.456 29.4489 43.456 29.8466H41.4503C41.4503 29.108 41.6188 28.4659 41.956 27.9205C42.2931 27.375 42.7571 26.9527 43.348 26.6534C43.9427 26.3542 44.6245 26.2045 45.3935 26.2045C46.1738 26.2045 46.8594 26.3504 47.4503 26.642C48.0412 26.9337 48.4995 27.3333 48.8253 27.8409C49.1548 28.3485 49.3196 28.928 49.3196 29.5795C49.3196 30.0152 49.2363 30.4432 49.0696 30.8636C48.9029 31.2841 48.6094 31.75 48.1889 32.2614C47.7723 32.7727 47.187 33.392 46.4332 34.1193L44.4276 36.1591V36.2386H49.4957V38H41.5185ZM55.6321 38.1591C54.8139 38.1591 54.0866 38.0189 53.4503 37.7386C52.8177 37.4583 52.3177 37.0682 51.9503 36.5682C51.5829 36.0682 51.3878 35.4905 51.3651 34.8352H53.5014C53.5204 35.1496 53.6245 35.4242 53.8139 35.6591C54.0033 35.8902 54.2552 36.0701 54.5696 36.1989C54.884 36.3277 55.2363 36.392 55.6264 36.392C56.0431 36.392 56.4124 36.3201 56.7344 36.1761C57.0563 36.0284 57.3082 35.8239 57.4901 35.5625C57.6719 35.3011 57.7609 35 57.7571 34.6591C57.7609 34.3068 57.67 33.9962 57.4844 33.7273C57.2988 33.4583 57.0298 33.2481 56.6776 33.0966C56.3291 32.9451 55.9086 32.8693 55.4162 32.8693H54.3878V31.2443H55.4162C55.8215 31.2443 56.1757 31.1742 56.4787 31.0341C56.7855 30.8939 57.026 30.697 57.2003 30.4432C57.3745 30.1856 57.4598 29.8883 57.456 29.5511C57.4598 29.2216 57.3859 28.9356 57.2344 28.6932C57.0866 28.447 56.8764 28.2557 56.6037 28.1193C56.3348 27.983 56.0185 27.9148 55.6548 27.9148C55.2988 27.9148 54.9692 27.9792 54.6662 28.108C54.3632 28.2367 54.1188 28.4205 53.9332 28.6591C53.7476 28.8939 53.6491 29.1742 53.6378 29.5H51.6094C51.6245 28.8485 51.812 28.2765 52.1719 27.7841C52.5355 27.2879 53.0204 26.9015 53.6264 26.625C54.2325 26.3447 54.9124 26.2045 55.6662 26.2045C56.4427 26.2045 57.117 26.3504 57.6889 26.642C58.2647 26.9299 58.7098 27.3182 59.0241 27.8068C59.3385 28.2955 59.4957 28.8352 59.4957 29.4261C59.4995 30.0814 59.3063 30.6307 58.9162 31.0739C58.5298 31.517 58.0223 31.8068 57.3935 31.9432V32.0341C58.2116 32.1477 58.8385 32.4508 59.2741 32.9432C59.7135 33.4318 59.9313 34.0398 59.9276 34.767C59.9276 35.4186 59.742 36.0019 59.3707 36.517C59.0033 37.0284 58.4957 37.4299 57.848 37.7216C57.2041 38.0133 56.4654 38.1591 55.6321 38.1591ZM61.6676 35.8409V34.1648L66.6051 26.3636H68.0028V28.75H67.1506L63.8267 34.017V34.108H70.7188V35.8409H61.6676ZM67.2188 38V35.3295L67.2415 34.5795V26.3636H69.2301V38H67.2188ZM76.5795 38.1591C75.822 38.1591 75.1439 38.017 74.5455 37.733C73.947 37.4451 73.4716 37.0511 73.1193 36.5511C72.7708 36.0511 72.5852 35.4792 72.5625 34.8352H74.608C74.6458 35.3125 74.8523 35.7027 75.2273 36.0057C75.6023 36.3049 76.053 36.4545 76.5795 36.4545C76.9924 36.4545 77.3598 36.3598 77.6818 36.1705C78.0038 35.9811 78.2576 35.7178 78.4432 35.3807C78.6288 35.0436 78.7197 34.6591 78.7159 34.2273C78.7197 33.7879 78.6269 33.3977 78.4375 33.0568C78.2481 32.7159 77.9886 32.4489 77.6591 32.2557C77.3295 32.0587 76.9508 31.9602 76.5227 31.9602C76.1742 31.9564 75.8314 32.0208 75.4943 32.1534C75.1572 32.286 74.8902 32.4602 74.6932 32.6761L72.7898 32.3636L73.3977 26.3636H80.1477V28.125H75.142L74.8068 31.2102H74.875C75.0909 30.9564 75.3958 30.7462 75.7898 30.5795C76.1837 30.4091 76.6155 30.3239 77.0852 30.3239C77.7898 30.3239 78.4186 30.4905 78.9716 30.8239C79.5246 31.1534 79.9602 31.608 80.2784 32.1875C80.5966 32.767 80.7557 33.4299 80.7557 34.1761C80.7557 34.9451 80.5777 35.6307 80.2216 36.233C79.8693 36.8314 79.3788 37.303 78.75 37.6477C78.125 37.9886 77.4015 38.1591 76.5795 38.1591ZM86.9205 38.1591C86.3636 38.1553 85.8201 38.0587 85.2898 37.8693C84.7595 37.6761 84.2822 37.3636 83.858 36.9318C83.4337 36.4962 83.0966 35.9186 82.8466 35.1989C82.5966 34.4754 82.4735 33.5795 82.4773 32.5114C82.4773 31.5152 82.5833 30.6269 82.7955 29.8466C83.0076 29.0663 83.3125 28.4072 83.7102 27.8693C84.108 27.3277 84.5871 26.9148 85.1477 26.6307C85.7121 26.3466 86.3428 26.2045 87.0398 26.2045C87.7708 26.2045 88.4186 26.3485 88.983 26.6364C89.5511 26.9242 90.0095 27.3182 90.358 27.8182C90.7064 28.3144 90.9223 28.875 91.0057 29.5H88.9318C88.8258 29.053 88.608 28.697 88.2784 28.4318C87.9527 28.1629 87.5398 28.0284 87.0398 28.0284C86.233 28.0284 85.6117 28.3788 85.1761 29.0795C84.7443 29.7803 84.5265 30.7424 84.5227 31.9659H84.6023C84.7879 31.6326 85.0284 31.3466 85.3239 31.108C85.6193 30.8693 85.9527 30.6856 86.3239 30.5568C86.6989 30.4242 87.0947 30.358 87.5114 30.358C88.1932 30.358 88.8049 30.5208 89.3466 30.8466C89.892 31.1723 90.3239 31.6212 90.642 32.1932C90.9602 32.7614 91.1174 33.4129 91.1136 34.1477C91.1174 34.9129 90.9432 35.6004 90.5909 36.2102C90.2386 36.8163 89.7481 37.2936 89.1193 37.642C88.4905 37.9905 87.7576 38.1629 86.9205 38.1591ZM86.9091 36.4545C87.322 36.4545 87.6913 36.3542 88.017 36.1534C88.3428 35.9527 88.6004 35.6818 88.7898 35.3409C88.9792 35 89.072 34.6174 89.0682 34.1932C89.072 33.7765 88.9811 33.3996 88.7955 33.0625C88.6136 32.7254 88.3617 32.4583 88.0398 32.2614C87.7178 32.0644 87.3504 31.9659 86.9375 31.9659C86.6307 31.9659 86.3447 32.0246 86.0795 32.142C85.8144 32.2595 85.5833 32.4223 85.3864 32.6307C85.1894 32.8352 85.0341 33.0739 84.9205 33.3466C84.8106 33.6155 84.7538 33.9034 84.75 34.2102C84.7538 34.6155 84.8485 34.9886 85.0341 35.3295C85.2197 35.6705 85.4754 35.9432 85.8011 36.1477C86.1269 36.3523 86.4962 36.4545 86.9091 36.4545ZM93.4602 38L98.4091 28.2045V28.125H92.6648V26.3636H100.591V28.1648L95.6477 38H93.4602ZM106.327 38.1591C105.482 38.1591 104.732 38.017 104.077 37.733C103.425 37.4489 102.914 37.0606 102.543 36.5682C102.175 36.072 101.993 35.5095 101.997 34.8807C101.993 34.392 102.099 33.9432 102.315 33.5341C102.531 33.125 102.823 32.7841 103.19 32.5114C103.562 32.2348 103.974 32.0587 104.429 31.983V31.9034C103.83 31.7708 103.346 31.4659 102.974 30.9886C102.607 30.5076 102.425 29.9527 102.429 29.3239C102.425 28.7254 102.592 28.1913 102.929 27.7216C103.266 27.2519 103.728 26.8826 104.315 26.6136C104.902 26.3409 105.573 26.2045 106.327 26.2045C107.073 26.2045 107.738 26.3409 108.321 26.6136C108.908 26.8826 109.37 27.2519 109.707 27.7216C110.048 28.1913 110.219 28.7254 110.219 29.3239C110.219 29.9527 110.031 30.5076 109.656 30.9886C109.285 31.4659 108.806 31.7708 108.219 31.9034V31.983C108.673 32.0587 109.082 32.2348 109.446 32.5114C109.813 32.7841 110.105 33.125 110.321 33.5341C110.541 33.9432 110.651 34.392 110.651 34.8807C110.651 35.5095 110.465 36.072 110.094 36.5682C109.723 37.0606 109.211 37.4489 108.56 37.733C107.912 38.017 107.168 38.1591 106.327 38.1591ZM106.327 36.5341C106.762 36.5341 107.141 36.4602 107.463 36.3125C107.785 36.161 108.035 35.9489 108.213 35.6761C108.391 35.4034 108.482 35.089 108.486 34.733C108.482 34.3617 108.385 34.0341 108.196 33.75C108.01 33.4621 107.755 33.2367 107.429 33.0739C107.107 32.911 106.74 32.8295 106.327 32.8295C105.91 32.8295 105.539 32.911 105.213 33.0739C104.887 33.2367 104.63 33.4621 104.44 33.75C104.255 34.0341 104.164 34.3617 104.168 34.733C104.164 35.089 104.251 35.4034 104.429 35.6761C104.607 35.9451 104.857 36.1553 105.179 36.3068C105.505 36.4583 105.887 36.5341 106.327 36.5341ZM106.327 31.233C106.683 31.233 106.997 31.161 107.27 31.017C107.546 30.8731 107.764 30.6723 107.923 30.4148C108.082 30.1572 108.164 29.8598 108.168 29.5227C108.164 29.1894 108.084 28.8977 107.929 28.6477C107.774 28.3939 107.558 28.1989 107.281 28.0625C107.005 27.9223 106.687 27.8523 106.327 27.8523C105.959 27.8523 105.635 27.9223 105.355 28.0625C105.079 28.1989 104.863 28.3939 104.707 28.6477C104.556 28.8977 104.482 29.1894 104.486 29.5227C104.482 29.8598 104.558 30.1572 104.713 30.4148C104.872 30.6686 105.09 30.8693 105.366 31.017C105.647 31.161 105.967 31.233 106.327 31.233ZM116.558 26.2045C117.115 26.2083 117.657 26.3068 118.183 26.5C118.714 26.6894 119.191 27 119.615 27.4318C120.039 27.8598 120.376 28.4337 120.626 29.1534C120.876 29.8731 121.001 30.7633 121.001 31.8239C121.005 32.8239 120.899 33.7178 120.683 34.5057C120.471 35.2898 120.166 35.9527 119.768 36.4943C119.371 37.036 118.892 37.4489 118.331 37.733C117.77 38.017 117.14 38.1591 116.439 38.1591C115.704 38.1591 115.053 38.0152 114.484 37.7273C113.92 37.4394 113.464 37.0455 113.115 36.5455C112.767 36.0455 112.553 35.4735 112.473 34.8295H114.547C114.653 35.2917 114.869 35.6591 115.195 35.9318C115.524 36.2008 115.939 36.3352 116.439 36.3352C117.246 36.3352 117.867 35.9848 118.303 35.2841C118.738 34.5833 118.956 33.6098 118.956 32.3636H118.876C118.691 32.697 118.45 32.9848 118.155 33.2273C117.859 33.4659 117.524 33.6496 117.149 33.7784C116.778 33.9072 116.384 33.9716 115.967 33.9716C115.286 33.9716 114.672 33.8087 114.126 33.483C113.585 33.1572 113.155 32.7102 112.837 32.142C112.522 31.5739 112.363 30.9242 112.359 30.1932C112.359 29.4356 112.534 28.7557 112.882 28.1534C113.234 27.5473 113.725 27.0701 114.354 26.7216C114.982 26.3693 115.717 26.197 116.558 26.2045ZM116.564 27.9091C116.155 27.9091 115.786 28.0095 115.456 28.2102C115.13 28.4072 114.873 28.6761 114.683 29.017C114.498 29.3542 114.405 29.7311 114.405 30.1477C114.409 30.5606 114.501 30.9356 114.683 31.2727C114.869 31.6098 115.121 31.8769 115.439 32.0739C115.761 32.2708 116.128 32.3693 116.541 32.3693C116.848 32.3693 117.134 32.3106 117.399 32.1932C117.664 32.0758 117.895 31.9129 118.092 31.7045C118.293 31.4924 118.448 31.2519 118.558 30.983C118.672 30.714 118.727 30.4299 118.723 30.1307C118.723 29.733 118.628 29.3655 118.439 29.0284C118.253 28.6913 117.998 28.4205 117.672 28.2159C117.35 28.0114 116.981 27.9091 116.564 27.9091ZM125.087 36.4091L124.996 37.0227C124.931 37.4545 124.833 37.9167 124.7 38.4091C124.571 38.9015 124.437 39.3655 124.297 39.8011C124.157 40.2367 124.041 40.5833 123.95 40.8409H122.928C122.977 40.5985 123.041 40.2784 123.121 39.8807C123.2 39.483 123.28 39.0379 123.359 38.5455C123.443 38.0568 123.511 37.5568 123.564 37.0455L123.632 36.4091H125.087ZM135.73 38.1818C134.889 38.1818 134.164 37.9962 133.554 37.625C132.948 37.25 132.48 36.7273 132.151 36.0568C131.825 35.3826 131.662 34.5985 131.662 33.7045C131.662 32.8106 131.825 32.0227 132.151 31.3409C132.48 30.6553 132.938 30.1212 133.526 29.7386C134.116 29.3523 134.806 29.1591 135.594 29.1591C136.048 29.1591 136.497 29.2348 136.94 29.3864C137.384 29.5379 137.787 29.7841 138.151 30.125C138.514 30.4621 138.804 30.9091 139.02 31.4659C139.236 32.0227 139.344 32.7083 139.344 33.5227V34.0909H132.616V32.9318H137.98C137.98 32.4394 137.882 32 137.685 31.6136C137.491 31.2273 137.215 30.9223 136.855 30.6989C136.499 30.4754 136.079 30.3636 135.594 30.3636C135.06 30.3636 134.598 30.4962 134.207 30.7614C133.821 31.0227 133.524 31.3636 133.315 31.7841C133.107 32.2045 133.003 32.6553 133.003 33.1364V33.9091C133.003 34.5682 133.116 35.1269 133.344 35.5852C133.575 36.0398 133.895 36.3864 134.304 36.625C134.713 36.8598 135.188 36.9773 135.73 36.9773C136.082 36.9773 136.401 36.928 136.685 36.8295C136.973 36.7273 137.221 36.5758 137.429 36.375C137.637 36.1705 137.798 35.9167 137.912 35.6136L139.207 35.9773C139.071 36.4167 138.842 36.803 138.52 37.1364C138.198 37.4659 137.8 37.7235 137.327 37.9091C136.853 38.0909 136.321 38.1818 135.73 38.1818ZM142.724 32.75V38H141.384V29.2727H142.679V30.6364H142.793C142.997 30.1932 143.308 29.8371 143.724 29.5682C144.141 29.2955 144.679 29.1591 145.338 29.1591C145.929 29.1591 146.446 29.2803 146.889 29.5227C147.332 29.7614 147.677 30.125 147.923 30.6136C148.17 31.0985 148.293 31.7121 148.293 32.4545V38H146.952V32.5455C146.952 31.8598 146.774 31.3258 146.418 30.9432C146.062 30.5568 145.573 30.3636 144.952 30.3636C144.524 30.3636 144.141 30.4564 143.804 30.642C143.471 30.8277 143.207 31.0985 143.014 31.4545C142.821 31.8106 142.724 32.2424 142.724 32.75ZM154.538 29.2727V30.4091H150.016V29.2727H154.538ZM151.334 27.1818H152.675V35.5C152.675 35.8788 152.73 36.1629 152.839 36.3523C152.953 36.5379 153.097 36.6629 153.271 36.7273C153.449 36.7879 153.637 36.8182 153.834 36.8182C153.982 36.8182 154.103 36.8106 154.197 36.7955C154.292 36.7765 154.368 36.7614 154.425 36.75L154.697 37.9545C154.607 37.9886 154.48 38.0227 154.317 38.0568C154.154 38.0947 153.947 38.1136 153.697 38.1136C153.319 38.1136 152.947 38.0322 152.584 37.8693C152.224 37.7064 151.925 37.4583 151.686 37.125C151.451 36.7917 151.334 36.3712 151.334 35.8636V27.1818ZM160.121 38.1818C159.28 38.1818 158.554 37.9962 157.945 37.625C157.339 37.25 156.871 36.7273 156.541 36.0568C156.215 35.3826 156.053 34.5985 156.053 33.7045C156.053 32.8106 156.215 32.0227 156.541 31.3409C156.871 30.6553 157.329 30.1212 157.916 29.7386C158.507 29.3523 159.196 29.1591 159.984 29.1591C160.439 29.1591 160.888 29.2348 161.331 29.3864C161.774 29.5379 162.178 29.7841 162.541 30.125C162.905 30.4621 163.195 30.9091 163.411 31.4659C163.626 32.0227 163.734 32.7083 163.734 33.5227V34.0909H157.007V32.9318H162.371C162.371 32.4394 162.272 32 162.075 31.6136C161.882 31.2273 161.606 30.9223 161.246 30.6989C160.89 30.4754 160.469 30.3636 159.984 30.3636C159.45 30.3636 158.988 30.4962 158.598 30.7614C158.212 31.0227 157.914 31.3636 157.706 31.7841C157.498 32.2045 157.393 32.6553 157.393 33.1364V33.9091C157.393 34.5682 157.507 35.1269 157.734 35.5852C157.965 36.0398 158.286 36.3864 158.695 36.625C159.104 36.8598 159.579 36.9773 160.121 36.9773C160.473 36.9773 160.791 36.928 161.075 36.8295C161.363 36.7273 161.611 36.5758 161.82 36.375C162.028 36.1705 162.189 35.9167 162.303 35.6136L163.598 35.9773C163.462 36.4167 163.232 36.803 162.911 37.1364C162.589 37.4659 162.191 37.7235 161.717 37.9091C161.244 38.0909 160.712 38.1818 160.121 38.1818ZM165.774 38V29.2727H167.07V30.5909H167.161C167.32 30.1591 167.607 29.8087 168.024 29.5398C168.441 29.2708 168.911 29.1364 169.433 29.1364C169.532 29.1364 169.655 29.1383 169.803 29.142C169.95 29.1458 170.062 29.1515 170.138 29.1591V30.5227C170.092 30.5114 169.988 30.4943 169.825 30.4716C169.666 30.4451 169.498 30.4318 169.32 30.4318C168.895 30.4318 168.517 30.5208 168.183 30.6989C167.854 30.8731 167.592 31.1155 167.399 31.4261C167.21 31.733 167.115 32.0833 167.115 32.4773V38H165.774ZM176.227 38V29.2727H177.568V38H176.227ZM176.909 27.8182C176.648 27.8182 176.422 27.7292 176.233 27.5511C176.047 27.3731 175.955 27.1591 175.955 26.9091C175.955 26.6591 176.047 26.4451 176.233 26.267C176.422 26.089 176.648 26 176.909 26C177.17 26 177.394 26.089 177.58 26.267C177.769 26.4451 177.864 26.6591 177.864 26.9091C177.864 27.1591 177.769 27.3731 177.58 27.5511C177.394 27.7292 177.17 27.8182 176.909 27.8182ZM183.82 29.2727V30.4091H179.297V29.2727H183.82ZM180.615 27.1818H181.956V35.5C181.956 35.8788 182.011 36.1629 182.121 36.3523C182.234 36.5379 182.378 36.6629 182.553 36.7273C182.731 36.7879 182.918 36.8182 183.115 36.8182C183.263 36.8182 183.384 36.8106 183.479 36.7955C183.573 36.7765 183.649 36.7614 183.706 36.75L183.979 37.9545C183.888 37.9886 183.761 38.0227 183.598 38.0568C183.435 38.0947 183.229 38.1136 182.979 38.1136C182.6 38.1136 182.229 38.0322 181.865 37.8693C181.505 37.7064 181.206 37.4583 180.967 37.125C180.732 36.7917 180.615 36.3712 180.615 35.8636V27.1818ZM190.518 38V26.3636H191.859V30.6591H191.973C192.071 30.5076 192.208 30.3144 192.382 30.0795C192.56 29.8409 192.814 29.6288 193.143 29.4432C193.477 29.2538 193.928 29.1591 194.496 29.1591C195.231 29.1591 195.878 29.3428 196.439 29.7102C197 30.0777 197.437 30.5985 197.751 31.2727C198.066 31.947 198.223 32.7424 198.223 33.6591C198.223 34.5833 198.066 35.3845 197.751 36.0625C197.437 36.7367 197.001 37.2595 196.445 37.6307C195.888 37.9981 195.246 38.1818 194.518 38.1818C193.958 38.1818 193.509 38.089 193.172 37.9034C192.835 37.714 192.575 37.5 192.393 37.2614C192.212 37.0189 192.071 36.8182 191.973 36.6591H191.814V38H190.518ZM191.837 33.6364C191.837 34.2955 191.933 34.8769 192.126 35.3807C192.32 35.8807 192.602 36.2727 192.973 36.5568C193.344 36.8371 193.799 36.9773 194.337 36.9773C194.897 36.9773 195.365 36.8295 195.74 36.5341C196.119 36.2348 196.403 35.8333 196.592 35.3295C196.786 34.822 196.882 34.2576 196.882 33.6364C196.882 33.0227 196.787 32.4697 196.598 31.9773C196.412 31.4811 196.13 31.089 195.751 30.8011C195.376 30.5095 194.905 30.3636 194.337 30.3636C193.791 30.3636 193.333 30.5019 192.962 30.7784C192.59 31.0511 192.31 31.4337 192.121 31.9261C191.931 32.4148 191.837 32.9848 191.837 33.6364ZM203.933 38.1818C203.092 38.1818 202.367 37.9962 201.757 37.625C201.151 37.25 200.683 36.7273 200.354 36.0568C200.028 35.3826 199.865 34.5985 199.865 33.7045C199.865 32.8106 200.028 32.0227 200.354 31.3409C200.683 30.6553 201.142 30.1212 201.729 29.7386C202.32 29.3523 203.009 29.1591 203.797 29.1591C204.251 29.1591 204.7 29.2348 205.143 29.3864C205.587 29.5379 205.99 29.7841 206.354 30.125C206.717 30.4621 207.007 30.9091 207.223 31.4659C207.439 32.0227 207.547 32.7083 207.547 33.5227V34.0909H200.82V32.9318H206.183C206.183 32.4394 206.085 32 205.888 31.6136C205.695 31.2273 205.418 30.9223 205.058 30.6989C204.702 30.4754 204.282 30.3636 203.797 30.3636C203.263 30.3636 202.801 30.4962 202.411 30.7614C202.024 31.0227 201.727 31.3636 201.518 31.7841C201.31 32.2045 201.206 32.6553 201.206 33.1364V33.9091C201.206 34.5682 201.32 35.1269 201.547 35.5852C201.778 36.0398 202.098 36.3864 202.507 36.625C202.916 36.8598 203.392 36.9773 203.933 36.9773C204.286 36.9773 204.604 36.928 204.888 36.8295C205.176 36.7273 205.424 36.5758 205.632 36.375C205.84 36.1705 206.001 35.9167 206.115 35.6136L207.411 35.9773C207.274 36.4167 207.045 36.803 206.723 37.1364C206.401 37.4659 206.003 37.7235 205.53 37.9091C205.056 38.0909 204.524 38.1818 203.933 38.1818ZM210.928 26.3636V38H209.587V26.3636H210.928ZM214.724 26.3636V38H213.384V26.3636H214.724ZM220.726 38.1818C219.938 38.1818 219.247 37.9943 218.652 37.6193C218.061 37.2443 217.599 36.7197 217.266 36.0455C216.936 35.3712 216.771 34.5833 216.771 33.6818C216.771 32.7727 216.936 31.9792 217.266 31.3011C217.599 30.6231 218.061 30.0966 218.652 29.7216C219.247 29.3466 219.938 29.1591 220.726 29.1591C221.514 29.1591 222.203 29.3466 222.794 29.7216C223.389 30.0966 223.851 30.6231 224.18 31.3011C224.514 31.9792 224.68 32.7727 224.68 33.6818C224.68 34.5833 224.514 35.3712 224.18 36.0455C223.851 36.7197 223.389 37.2443 222.794 37.6193C222.203 37.9943 221.514 38.1818 220.726 38.1818ZM220.726 36.9773C221.324 36.9773 221.817 36.8239 222.203 36.517C222.589 36.2102 222.875 35.8068 223.061 35.3068C223.247 34.8068 223.339 34.2652 223.339 33.6818C223.339 33.0985 223.247 32.5549 223.061 32.0511C222.875 31.5473 222.589 31.1402 222.203 30.8295C221.817 30.5189 221.324 30.3636 220.726 30.3636C220.127 30.3636 219.635 30.5189 219.249 30.8295C218.862 31.1402 218.576 31.5473 218.391 32.0511C218.205 32.5549 218.112 33.0985 218.112 33.6818C218.112 34.2652 218.205 34.8068 218.391 35.3068C218.576 35.8068 218.862 36.2102 219.249 36.517C219.635 36.8239 220.127 36.9773 220.726 36.9773ZM228.408 38L225.749 29.2727H227.158L229.044 35.9545H229.135L230.999 29.2727H232.43L234.271 35.9318H234.362L236.249 29.2727H237.658L234.999 38H233.68L231.771 31.2955H231.635L229.726 38H228.408ZM240.408 38.0909C240.127 38.0909 239.887 37.9905 239.686 37.7898C239.485 37.589 239.385 37.3485 239.385 37.0682C239.385 36.7879 239.485 36.5473 239.686 36.3466C239.887 36.1458 240.127 36.0455 240.408 36.0455C240.688 36.0455 240.929 36.1458 241.129 36.3466C241.33 36.5473 241.43 36.7879 241.43 37.0682C241.43 37.2538 241.383 37.4242 241.288 37.5795C241.197 37.7348 241.074 37.8598 240.919 37.9545C240.768 38.0455 240.597 38.0909 240.408 38.0909ZM240.408 31.6136C240.127 31.6136 239.887 31.5133 239.686 31.3125C239.485 31.1117 239.385 30.8712 239.385 30.5909C239.385 30.3106 239.485 30.0701 239.686 29.8693C239.887 29.6686 240.127 29.5682 240.408 29.5682C240.688 29.5682 240.929 29.6686 241.129 29.8693C241.33 30.0701 241.43 30.3106 241.43 30.5909C241.43 30.7765 241.383 30.947 241.288 31.1023C241.197 31.2576 241.074 31.3826 240.919 31.4773C240.768 31.5682 240.597 31.6136 240.408 31.6136Z" fill="#27252E"/>
<path d="M0 41.1818H121.859V42.2727H0V41.1818Z" fill="#27252E"/>
</svg>
