<svg width="327" height="26" viewBox="0 0 327 26" fill="none" xmlns="http://www.w3.org/2000/svg">
<path d="M5 19H1.40909V7.36364H5.15909C6.28788 7.36364 7.25379 7.59659 8.05682 8.0625C8.85985 8.52462 9.47538 9.18939 9.90341 10.0568C10.3314 10.9205 10.5455 11.9545 10.5455 13.1591C10.5455 14.3712 10.3295 15.4148 9.89773 16.2898C9.46591 17.161 8.83712 17.8314 8.01136 18.3011C7.18561 18.767 6.18182 19 5 19ZM2.81818 17.75H4.90909C5.87121 17.75 6.66856 17.5644 7.30114 17.1932C7.93371 16.822 8.4053 16.2936 8.71591 15.608C9.02652 14.9223 9.18182 14.1061 9.18182 13.1591C9.18182 12.2197 9.02841 11.411 8.72159 10.733C8.41477 10.0511 7.95644 9.52841 7.34659 9.16477C6.73674 8.79735 5.97727 8.61364 5.06818 8.61364H2.81818V17.75ZM12.7273 19V10.2727H14.0682V19H12.7273ZM13.4091 8.81818C13.1477 8.81818 12.9223 8.72917 12.733 8.55114C12.5473 8.37311 12.4545 8.15909 12.4545 7.90909C12.4545 7.65909 12.5473 7.44508 12.733 7.26705C12.9223 7.08902 13.1477 7 13.4091 7C13.6705 7 13.8939 7.08902 14.0795 7.26705C14.2689 7.44508 14.3636 7.65909 14.3636 7.90909C14.3636 8.15909 14.2689 8.37311 14.0795 8.55114C13.8939 8.72917 13.6705 8.81818 13.4091 8.81818ZM19.8196 19.1818C19.0923 19.1818 18.4503 18.9981 17.8935 18.6307C17.3366 18.2595 16.901 17.7367 16.5866 17.0625C16.2723 16.3845 16.1151 15.5833 16.1151 14.6591C16.1151 13.7424 16.2723 12.947 16.5866 12.2727C16.901 11.5985 17.3385 11.0777 17.8991 10.7102C18.4598 10.3428 19.1075 10.1591 19.8423 10.1591C20.4105 10.1591 20.8594 10.2538 21.1889 10.4432C21.5223 10.6288 21.776 10.8409 21.9503 11.0795C22.1283 11.3144 22.2666 11.5076 22.3651 11.6591H22.4787V7.36364H23.8196V19H22.5241V17.6591H22.3651C22.2666 17.8182 22.1264 18.0189 21.9446 18.2614C21.7628 18.5 21.5033 18.714 21.1662 18.9034C20.8291 19.089 20.3802 19.1818 19.8196 19.1818ZM20.0014 17.9773C20.5393 17.9773 20.9938 17.8371 21.3651 17.5568C21.7363 17.2727 22.0185 16.8807 22.2116 16.3807C22.4048 15.8769 22.5014 15.2955 22.5014 14.6364C22.5014 13.9848 22.4067 13.4148 22.2173 12.9261C22.0279 12.4337 21.7476 12.0511 21.3764 11.7784C21.0052 11.5019 20.5469 11.3636 20.0014 11.3636C19.4332 11.3636 18.9598 11.5095 18.581 11.8011C18.206 12.089 17.9238 12.4811 17.7344 12.9773C17.5488 13.4697 17.456 14.0227 17.456 14.6364C17.456 15.2576 17.5507 15.822 17.7401 16.3295C17.9332 16.8333 18.2173 17.2348 18.5923 17.5341C18.9711 17.8295 19.4408 17.9773 20.0014 17.9773ZM32.3026 13.75V19H30.9616V10.2727H32.2571V11.6364H32.3707C32.5753 11.1932 32.8859 10.8371 33.3026 10.5682C33.7192 10.2955 34.2571 10.1591 34.9162 10.1591C35.5071 10.1591 36.0241 10.2803 36.4673 10.5227C36.9105 10.7614 37.2552 11.125 37.5014 11.6136C37.7476 12.0985 37.8707 12.7121 37.8707 13.4545V19H36.5298V13.5455C36.5298 12.8598 36.3518 12.3258 35.9957 11.9432C35.6397 11.5568 35.151 11.3636 34.5298 11.3636C34.1018 11.3636 33.7192 11.4564 33.3821 11.642C33.0488 11.8277 32.7855 12.0985 32.5923 12.4545C32.3991 12.8106 32.3026 13.2424 32.3026 13.75ZM43.8665 19.1818C43.0786 19.1818 42.3873 18.9943 41.7926 18.6193C41.2017 18.2443 40.7396 17.7197 40.4062 17.0455C40.0767 16.3712 39.9119 15.5833 39.9119 14.6818C39.9119 13.7727 40.0767 12.9792 40.4062 12.3011C40.7396 11.6231 41.2017 11.0966 41.7926 10.7216C42.3873 10.3466 43.0786 10.1591 43.8665 10.1591C44.6544 10.1591 45.3438 10.3466 45.9347 10.7216C46.5294 11.0966 46.9915 11.6231 47.321 12.3011C47.6544 12.9792 47.821 13.7727 47.821 14.6818C47.821 15.5833 47.6544 16.3712 47.321 17.0455C46.9915 17.7197 46.5294 18.2443 45.9347 18.6193C45.3438 18.9943 44.6544 19.1818 43.8665 19.1818ZM43.8665 17.9773C44.465 17.9773 44.9574 17.8239 45.3438 17.517C45.7301 17.2102 46.0161 16.8068 46.2017 16.3068C46.3873 15.8068 46.4801 15.2652 46.4801 14.6818C46.4801 14.0985 46.3873 13.5549 46.2017 13.0511C46.0161 12.5473 45.7301 12.1402 45.3438 11.8295C44.9574 11.5189 44.465 11.3636 43.8665 11.3636C43.268 11.3636 42.7756 11.5189 42.3892 11.8295C42.0028 12.1402 41.7169 12.5473 41.5312 13.0511C41.3456 13.5549 41.2528 14.0985 41.2528 14.6818C41.2528 15.2652 41.3456 15.8068 41.5312 16.3068C41.7169 16.8068 42.0028 17.2102 42.3892 17.517C42.7756 17.8239 43.268 17.9773 43.8665 17.9773ZM53.6634 10.2727V11.4091H49.1406V10.2727H53.6634ZM50.4588 8.18182H51.7997V16.5C51.7997 16.8788 51.8546 17.1629 51.9645 17.3523C52.0781 17.5379 52.2221 17.6629 52.3963 17.7273C52.5743 17.7879 52.7618 17.8182 52.9588 17.8182C53.1065 17.8182 53.2277 17.8106 53.3224 17.7955C53.4171 17.7765 53.4929 17.7614 53.5497 17.75L53.8224 18.9545C53.7315 18.9886 53.6046 19.0227 53.4418 19.0568C53.2789 19.0947 53.0724 19.1136 52.8224 19.1136C52.4437 19.1136 52.0724 19.0322 51.7088 18.8693C51.349 18.7064 51.0497 18.4583 50.8111 18.125C50.5762 17.7917 50.4588 17.3712 50.4588 16.8636V8.18182ZM60.1804 19V10.2727H61.4759V11.5909H61.5668C61.7259 11.1591 62.0137 10.8087 62.4304 10.5398C62.8471 10.2708 63.3168 10.1364 63.8395 10.1364C63.938 10.1364 64.0611 10.1383 64.2088 10.142C64.3565 10.1458 64.4683 10.1515 64.544 10.1591V11.5227C64.4986 11.5114 64.3944 11.4943 64.2315 11.4716C64.0724 11.4451 63.9039 11.4318 63.7259 11.4318C63.3016 11.4318 62.9228 11.5208 62.5895 11.6989C62.2599 11.8731 61.9986 12.1155 61.8054 12.4261C61.616 12.733 61.5213 13.0833 61.5213 13.4773V19H60.1804ZM69.527 19.1818C68.6861 19.1818 67.9607 18.9962 67.3509 18.625C66.7448 18.25 66.277 17.7273 65.9474 17.0568C65.6217 16.3826 65.4588 15.5985 65.4588 14.7045C65.4588 13.8106 65.6217 13.0227 65.9474 12.3409C66.277 11.6553 66.7353 11.1212 67.3224 10.7386C67.9134 10.3523 68.6027 10.1591 69.3906 10.1591C69.8452 10.1591 70.294 10.2348 70.7372 10.3864C71.1804 10.5379 71.5838 10.7841 71.9474 11.125C72.3111 11.4621 72.6009 11.9091 72.8168 12.4659C73.0327 13.0227 73.1406 13.7083 73.1406 14.5227V15.0909H66.4134V13.9318H71.777C71.777 13.4394 71.6785 13 71.4815 12.6136C71.2884 12.2273 71.0118 11.9223 70.652 11.6989C70.2959 11.4754 69.8755 11.3636 69.3906 11.3636C68.8565 11.3636 68.3944 11.4962 68.0043 11.7614C67.6179 12.0227 67.3205 12.3636 67.1122 12.7841C66.9039 13.2045 66.7997 13.6553 66.7997 14.1364V14.9091C66.7997 15.5682 66.9134 16.1269 67.1406 16.5852C67.3717 17.0398 67.6918 17.3864 68.1009 17.625C68.5099 17.8598 68.9853 17.9773 69.527 17.9773C69.8793 17.9773 70.1974 17.928 70.4815 17.8295C70.7694 17.7273 71.0175 17.5758 71.2259 17.375C71.4342 17.1705 71.5952 16.9167 71.7088 16.6136L73.0043 16.9773C72.8679 17.4167 72.6387 17.803 72.3168 18.1364C71.9948 18.4659 71.5971 18.7235 71.1236 18.9091C70.6501 19.0909 70.1179 19.1818 69.527 19.1818ZM78.7259 19.1818C77.9077 19.1818 77.2031 18.9886 76.6122 18.6023C76.0213 18.2159 75.5668 17.6837 75.2486 17.0057C74.9304 16.3277 74.7713 15.553 74.7713 14.6818C74.7713 13.7955 74.9342 13.0133 75.2599 12.3352C75.5895 11.6534 76.0478 11.1212 76.6349 10.7386C77.2259 10.3523 77.9152 10.1591 78.7031 10.1591C79.3168 10.1591 79.8698 10.2727 80.3622 10.5C80.8546 10.7273 81.258 11.0455 81.5724 11.4545C81.8868 11.8636 82.0819 12.3409 82.1577 12.8864H80.8168C80.7145 12.4886 80.4872 12.1364 80.1349 11.8295C79.7865 11.5189 79.3168 11.3636 78.7259 11.3636C78.2031 11.3636 77.7448 11.5 77.3509 11.7727C76.9607 12.0417 76.6558 12.4223 76.4361 12.9148C76.2202 13.4034 76.1122 13.9773 76.1122 14.6364C76.1122 15.3106 76.2183 15.8977 76.4304 16.3977C76.6463 16.8977 76.9493 17.286 77.3395 17.5625C77.7334 17.839 78.1955 17.9773 78.7259 17.9773C79.0743 17.9773 79.3906 17.9167 79.6747 17.7955C79.9588 17.6742 80.1993 17.5 80.3963 17.2727C80.5933 17.0455 80.7334 16.7727 80.8168 16.4545H82.1577C82.0819 16.9697 81.8944 17.4337 81.5952 17.8466C81.2997 18.2557 80.9077 18.5814 80.419 18.8239C79.9342 19.0625 79.3698 19.1818 78.7259 19.1818ZM87.777 19.1818C86.9361 19.1818 86.2107 18.9962 85.6009 18.625C84.9948 18.25 84.527 17.7273 84.1974 17.0568C83.8717 16.3826 83.7088 15.5985 83.7088 14.7045C83.7088 13.8106 83.8717 13.0227 84.1974 12.3409C84.527 11.6553 84.9853 11.1212 85.5724 10.7386C86.1634 10.3523 86.8527 10.1591 87.6406 10.1591C88.0952 10.1591 88.544 10.2348 88.9872 10.3864C89.4304 10.5379 89.8338 10.7841 90.1974 11.125C90.5611 11.4621 90.8509 11.9091 91.0668 12.4659C91.2827 13.0227 91.3906 13.7083 91.3906 14.5227V15.0909H84.6634V13.9318H90.027C90.027 13.4394 89.9285 13 89.7315 12.6136C89.5384 12.2273 89.2618 11.9223 88.902 11.6989C88.5459 11.4754 88.1255 11.3636 87.6406 11.3636C87.1065 11.3636 86.6444 11.4962 86.2543 11.7614C85.8679 12.0227 85.5705 12.3636 85.3622 12.7841C85.1539 13.2045 85.0497 13.6553 85.0497 14.1364V14.9091C85.0497 15.5682 85.1634 16.1269 85.3906 16.5852C85.6217 17.0398 85.9418 17.3864 86.3509 17.625C86.7599 17.8598 87.2353 17.9773 87.777 17.9773C88.1293 17.9773 88.4474 17.928 88.7315 17.8295C89.0194 17.7273 89.2675 17.5758 89.4759 17.375C89.6842 17.1705 89.8452 16.9167 89.9588 16.6136L91.2543 16.9773C91.1179 17.4167 90.8887 17.803 90.5668 18.1364C90.2448 18.4659 89.8471 18.7235 89.3736 18.9091C88.9001 19.0909 88.3679 19.1818 87.777 19.1818ZM93.4304 19V10.2727H94.7713V19H93.4304ZM94.1122 8.81818C93.8509 8.81818 93.6255 8.72917 93.4361 8.55114C93.2505 8.37311 93.1577 8.15909 93.1577 7.90909C93.1577 7.65909 93.2505 7.44508 93.4361 7.26705C93.6255 7.08902 93.8509 7 94.1122 7C94.3736 7 94.5971 7.08902 94.7827 7.26705C94.9721 7.44508 95.0668 7.65909 95.0668 7.90909C95.0668 8.15909 94.9721 8.37311 94.7827 8.55114C94.5971 8.72917 94.3736 8.81818 94.1122 8.81818ZM104.364 10.2727L101.136 19H99.7727L96.5455 10.2727H98L100.409 17.2273H100.5L102.909 10.2727H104.364ZM109.48 19.1818C108.639 19.1818 107.914 18.9962 107.304 18.625C106.698 18.25 106.23 17.7273 105.901 17.0568C105.575 16.3826 105.412 15.5985 105.412 14.7045C105.412 13.8106 105.575 13.0227 105.901 12.3409C106.23 11.6553 106.688 11.1212 107.276 10.7386C107.866 10.3523 108.556 10.1591 109.344 10.1591C109.798 10.1591 110.247 10.2348 110.69 10.3864C111.134 10.5379 111.537 10.7841 111.901 11.125C112.264 11.4621 112.554 11.9091 112.77 12.4659C112.986 13.0227 113.094 13.7083 113.094 14.5227V15.0909H106.366V13.9318H111.73C111.73 13.4394 111.632 13 111.435 12.6136C111.241 12.2273 110.965 11.9223 110.605 11.6989C110.249 11.4754 109.829 11.3636 109.344 11.3636C108.81 11.3636 108.348 11.4962 107.957 11.7614C107.571 12.0227 107.274 12.3636 107.065 12.7841C106.857 13.2045 106.753 13.6553 106.753 14.1364V14.9091C106.753 15.5682 106.866 16.1269 107.094 16.5852C107.325 17.0398 107.645 17.3864 108.054 17.625C108.463 17.8598 108.938 17.9773 109.48 17.9773C109.832 17.9773 110.151 17.928 110.435 17.8295C110.723 17.7273 110.971 17.5758 111.179 17.375C111.387 17.1705 111.548 16.9167 111.662 16.6136L112.957 16.9773C112.821 17.4167 112.592 17.803 112.27 18.1364C111.948 18.4659 111.55 18.7235 111.077 18.9091C110.603 19.0909 110.071 19.1818 109.48 19.1818ZM129.634 13.1818C129.634 14.4091 129.412 15.4697 128.969 16.3636C128.526 17.2576 127.918 17.947 127.145 18.4318C126.372 18.9167 125.49 19.1591 124.497 19.1591C123.505 19.1591 122.622 18.9167 121.849 18.4318C121.077 17.947 120.469 17.2576 120.026 16.3636C119.582 15.4697 119.361 14.4091 119.361 13.1818C119.361 11.9545 119.582 10.8939 120.026 10C120.469 9.10606 121.077 8.41667 121.849 7.93182C122.622 7.44697 123.505 7.20455 124.497 7.20455C125.49 7.20455 126.372 7.44697 127.145 7.93182C127.918 8.41667 128.526 9.10606 128.969 10C129.412 10.8939 129.634 11.9545 129.634 13.1818ZM128.27 13.1818C128.27 12.1742 128.101 11.3239 127.764 10.6307C127.431 9.9375 126.978 9.41288 126.406 9.05682C125.838 8.70076 125.202 8.52273 124.497 8.52273C123.793 8.52273 123.154 8.70076 122.582 9.05682C122.014 9.41288 121.562 9.9375 121.224 10.6307C120.891 11.3239 120.724 12.1742 120.724 13.1818C120.724 14.1894 120.891 15.0398 121.224 15.733C121.562 16.4261 122.014 16.9508 122.582 17.3068C123.154 17.6629 123.793 17.8409 124.497 17.8409C125.202 17.8409 125.838 17.6629 126.406 17.3068C126.978 16.9508 127.431 16.4261 127.764 15.733C128.101 15.0398 128.27 14.1894 128.27 13.1818ZM130.882 8.61364V7.36364H139.609V8.61364H135.95V19H134.541V8.61364H130.882ZM141.784 19V7.36364H145.716C146.629 7.36364 147.375 7.52841 147.955 7.85795C148.538 8.18371 148.97 8.625 149.25 9.18182C149.53 9.73864 149.67 10.3598 149.67 11.0455C149.67 11.7311 149.53 12.3542 149.25 12.9148C148.973 13.4754 148.545 13.9223 147.966 14.2557C147.386 14.5852 146.644 14.75 145.739 14.75H142.92V13.5H145.693C146.318 13.5 146.82 13.392 147.199 13.1761C147.578 12.9602 147.852 12.6686 148.023 12.3011C148.197 11.9299 148.284 11.5114 148.284 11.0455C148.284 10.5795 148.197 10.1629 148.023 9.79545C147.852 9.42803 147.576 9.14015 147.193 8.93182C146.811 8.7197 146.303 8.61364 145.67 8.61364H143.193V19H141.784ZM153.509 15.7273V15.6591C153.516 14.9356 153.592 14.3598 153.736 13.9318C153.88 13.5038 154.084 13.1572 154.349 12.892C154.615 12.6269 154.933 12.3826 155.304 12.1591C155.527 12.0227 155.728 11.8617 155.906 11.6761C156.084 11.4867 156.224 11.2689 156.327 11.0227C156.433 10.7765 156.486 10.5038 156.486 10.2045C156.486 9.83333 156.399 9.51136 156.224 9.23864C156.05 8.96591 155.817 8.75568 155.526 8.60795C155.234 8.46023 154.91 8.38636 154.554 8.38636C154.243 8.38636 153.944 8.45076 153.656 8.57955C153.368 8.70833 153.128 8.91098 152.935 9.1875C152.741 9.46401 152.63 9.82576 152.599 10.2727H151.168C151.198 9.62879 151.365 9.07765 151.668 8.61932C151.974 8.16098 152.378 7.81061 152.878 7.56818C153.382 7.32576 153.94 7.20455 154.554 7.20455C155.221 7.20455 155.8 7.33712 156.293 7.60227C156.789 7.86742 157.171 8.23106 157.44 8.69318C157.713 9.1553 157.849 9.68182 157.849 10.2727C157.849 10.6894 157.785 11.0663 157.656 11.4034C157.531 11.7405 157.349 12.0417 157.111 12.3068C156.876 12.572 156.592 12.8068 156.259 13.0114C155.925 13.2197 155.658 13.4394 155.457 13.6705C155.257 13.8977 155.111 14.1686 155.02 14.483C154.929 14.7973 154.88 15.1894 154.872 15.6591V15.7273H153.509ZM154.236 19.0909C153.955 19.0909 153.715 18.9905 153.514 18.7898C153.313 18.589 153.213 18.3485 153.213 18.0682C153.213 17.7879 153.313 17.5473 153.514 17.3466C153.715 17.1458 153.955 17.0455 154.236 17.0455C154.516 17.0455 154.757 17.1458 154.957 17.3466C155.158 17.5473 155.259 17.7879 155.259 18.0682C155.259 18.2538 155.211 18.4242 155.116 18.5795C155.026 18.7348 154.902 18.8598 154.747 18.9545C154.596 19.0455 154.425 19.0909 154.236 19.0909Z" fill="#27252E"/>
<path d="M233.148 19V7.36364H237.511C238.405 7.36364 239.155 7.51894 239.761 7.82955C240.371 8.14015 240.831 8.57576 241.142 9.13636C241.456 9.69318 241.614 10.3428 241.614 11.0852C241.614 11.8314 241.455 12.4792 241.136 13.0284C240.822 13.5739 240.358 13.9962 239.744 14.2955C239.131 14.5909 238.377 14.7386 237.483 14.7386H234.375V12.9886H237.199C237.722 12.9886 238.15 12.9167 238.483 12.7727C238.816 12.625 239.063 12.411 239.222 12.1307C239.384 11.8466 239.466 11.4981 239.466 11.0852C239.466 10.6723 239.384 10.3201 239.222 10.0284C239.059 9.73295 238.811 9.50947 238.477 9.35795C238.144 9.20265 237.714 9.125 237.188 9.125H235.256V19H233.148ZM239.159 13.7273L242.04 19H239.688L236.858 13.7273H239.159ZM247.202 19.1705C246.327 19.1705 245.571 18.9886 244.935 18.625C244.302 18.2576 243.815 17.7386 243.474 17.0682C243.134 16.3939 242.963 15.6004 242.963 14.6875C242.963 13.7898 243.134 13.0019 243.474 12.3239C243.819 11.642 244.3 11.1117 244.918 10.733C245.535 10.3504 246.26 10.1591 247.094 10.1591C247.632 10.1591 248.139 10.2462 248.616 10.4205C249.098 10.5909 249.522 10.8561 249.889 11.2159C250.26 11.5758 250.552 12.0341 250.764 12.5909C250.976 13.1439 251.082 13.803 251.082 14.5682V15.1989H243.929V13.8125H249.111C249.107 13.4186 249.022 13.0682 248.855 12.7614C248.688 12.4508 248.455 12.2064 248.156 12.0284C247.861 11.8504 247.516 11.7614 247.122 11.7614C246.702 11.7614 246.332 11.8636 246.014 12.0682C245.696 12.2689 245.448 12.5341 245.27 12.8636C245.096 13.1894 245.007 13.5473 245.003 13.9375V15.1477C245.003 15.6553 245.096 16.0909 245.281 16.4545C245.467 16.8144 245.726 17.0909 246.06 17.2841C246.393 17.4735 246.783 17.5682 247.23 17.5682C247.529 17.5682 247.8 17.5265 248.043 17.4432C248.285 17.3561 248.495 17.2292 248.673 17.0625C248.851 16.8958 248.986 16.6894 249.077 16.4432L250.997 16.6591C250.876 17.1667 250.645 17.6098 250.304 17.9886C249.967 18.3636 249.535 18.6553 249.009 18.8636C248.482 19.0682 247.88 19.1705 247.202 19.1705ZM259.72 12.5795L257.845 12.7841C257.792 12.5947 257.699 12.4167 257.567 12.25C257.438 12.0833 257.264 11.9489 257.044 11.8466C256.824 11.7443 256.555 11.6932 256.237 11.6932C255.809 11.6932 255.449 11.786 255.158 11.9716C254.87 12.1572 254.728 12.3977 254.732 12.6932C254.728 12.947 254.821 13.1534 255.01 13.3125C255.203 13.4716 255.521 13.6023 255.964 13.7045L257.453 14.0227C258.279 14.2008 258.893 14.483 259.294 14.8693C259.699 15.2557 259.904 15.7614 259.908 16.3864C259.904 16.9356 259.743 17.4205 259.425 17.8409C259.11 18.2576 258.673 18.5833 258.112 18.8182C257.552 19.053 256.908 19.1705 256.18 19.1705C255.112 19.1705 254.252 18.947 253.601 18.5C252.949 18.0492 252.561 17.4223 252.436 16.6193L254.442 16.4261C254.533 16.8201 254.726 17.1174 255.021 17.3182C255.317 17.5189 255.701 17.6193 256.175 17.6193C256.663 17.6193 257.055 17.5189 257.351 17.3182C257.65 17.1174 257.8 16.8693 257.8 16.5739C257.8 16.3239 257.703 16.1174 257.51 15.9545C257.321 15.7917 257.025 15.6667 256.624 15.5795L255.135 15.267C254.298 15.0928 253.679 14.7992 253.277 14.3864C252.875 13.9697 252.677 13.4432 252.68 12.8068C252.677 12.2689 252.822 11.803 253.118 11.4091C253.417 11.0114 253.832 10.7045 254.362 10.4886C254.896 10.2689 255.512 10.1591 256.209 10.1591C257.232 10.1591 258.036 10.3769 258.624 10.8125C259.214 11.2481 259.58 11.8371 259.72 12.5795ZM265.467 19.1705C264.592 19.1705 263.837 18.9886 263.2 18.625C262.568 18.2576 262.081 17.7386 261.74 17.0682C261.399 16.3939 261.229 15.6004 261.229 14.6875C261.229 13.7898 261.399 13.0019 261.74 12.3239C262.085 11.642 262.566 11.1117 263.183 10.733C263.801 10.3504 264.526 10.1591 265.359 10.1591C265.897 10.1591 266.405 10.2462 266.882 10.4205C267.363 10.5909 267.787 10.8561 268.155 11.2159C268.526 11.5758 268.818 12.0341 269.03 12.5909C269.242 13.1439 269.348 13.803 269.348 14.5682V15.1989H262.195V13.8125H267.376C267.373 13.4186 267.287 13.0682 267.121 12.7614C266.954 12.4508 266.721 12.2064 266.422 12.0284C266.126 11.8504 265.782 11.7614 265.388 11.7614C264.967 11.7614 264.598 11.8636 264.28 12.0682C263.962 12.2689 263.714 12.5341 263.536 12.8636C263.361 13.1894 263.272 13.5473 263.268 13.9375V15.1477C263.268 15.6553 263.361 16.0909 263.547 16.4545C263.732 16.8144 263.992 17.0909 264.325 17.2841C264.659 17.4735 265.049 17.5682 265.496 17.5682C265.795 17.5682 266.066 17.5265 266.308 17.4432C266.551 17.3561 266.761 17.2292 266.939 17.0625C267.117 16.8958 267.251 16.6894 267.342 16.4432L269.263 16.6591C269.142 17.1667 268.911 17.6098 268.57 17.9886C268.232 18.3636 267.801 18.6553 267.274 18.8636C266.748 19.0682 266.145 19.1705 265.467 19.1705ZM273.145 13.8864V19H271.088V10.2727H273.054V11.7557H273.156C273.357 11.267 273.677 10.8788 274.116 10.5909C274.56 10.303 275.107 10.1591 275.759 10.1591C276.361 10.1591 276.885 10.2879 277.332 10.5455C277.783 10.803 278.132 11.1761 278.378 11.6648C278.628 12.1534 278.751 12.7462 278.747 13.4432V19H276.69V13.7614C276.69 13.178 276.539 12.7216 276.236 12.392C275.937 12.0625 275.522 11.8977 274.991 11.8977C274.632 11.8977 274.312 11.9773 274.031 12.1364C273.755 12.2917 273.537 12.517 273.378 12.8125C273.223 13.108 273.145 13.4659 273.145 13.8864ZM284.077 19.1534C283.391 19.1534 282.777 18.9773 282.236 18.625C281.694 18.2727 281.266 17.7614 280.952 17.0909C280.637 16.4205 280.48 15.6061 280.48 14.6477C280.48 13.678 280.639 12.8598 280.957 12.1932C281.279 11.5227 281.713 11.017 282.259 10.6761C282.804 10.3314 283.412 10.1591 284.082 10.1591C284.594 10.1591 285.014 10.2462 285.344 10.4205C285.673 10.5909 285.935 10.7973 286.128 11.0398C286.321 11.2784 286.471 11.5038 286.577 11.7159H286.662V7.36364H288.724V19H286.702V17.625H286.577C286.471 17.8371 286.317 18.0625 286.116 18.3011C285.916 18.536 285.651 18.7367 285.321 18.9034C284.991 19.0701 284.577 19.1534 284.077 19.1534ZM284.651 17.4659C285.086 17.4659 285.457 17.3485 285.764 17.1136C286.071 16.875 286.304 16.5436 286.463 16.1193C286.622 15.6951 286.702 15.2008 286.702 14.6364C286.702 14.072 286.622 13.5814 286.463 13.1648C286.308 12.7481 286.077 12.4242 285.77 12.1932C285.467 11.9621 285.094 11.8466 284.651 11.8466C284.192 11.8466 283.81 11.9659 283.503 12.2045C283.196 12.4432 282.965 12.7727 282.81 13.1932C282.654 13.6136 282.577 14.0947 282.577 14.6364C282.577 15.1818 282.654 15.6686 282.81 16.0966C282.969 16.5208 283.202 16.8561 283.509 17.1023C283.819 17.3447 284.2 17.4659 284.651 17.4659ZM305.374 13.1818C305.374 14.4356 305.139 15.5095 304.669 16.4034C304.203 17.2936 303.567 17.9754 302.76 18.4489C301.957 18.9223 301.046 19.1591 300.027 19.1591C299.008 19.1591 298.095 18.9223 297.288 18.4489C296.485 17.9716 295.849 17.2879 295.379 16.3977C294.913 15.5038 294.68 14.4318 294.68 13.1818C294.68 11.928 294.913 10.8561 295.379 9.96591C295.849 9.07197 296.485 8.38826 297.288 7.91477C298.095 7.44129 299.008 7.20455 300.027 7.20455C301.046 7.20455 301.957 7.44129 302.76 7.91477C303.567 8.38826 304.203 9.07197 304.669 9.96591C305.139 10.8561 305.374 11.928 305.374 13.1818ZM303.254 13.1818C303.254 12.2992 303.116 11.5549 302.839 10.9489C302.567 10.339 302.188 9.87879 301.703 9.56818C301.218 9.25379 300.66 9.09659 300.027 9.09659C299.394 9.09659 298.836 9.25379 298.351 9.56818C297.866 9.87879 297.485 10.339 297.209 10.9489C296.936 11.5549 296.8 12.2992 296.8 13.1818C296.8 14.0644 296.936 14.8106 297.209 15.4205C297.485 16.0265 297.866 16.4867 298.351 16.8011C298.836 17.1117 299.394 17.267 300.027 17.267C300.66 17.267 301.218 17.1117 301.703 16.8011C302.188 16.4867 302.567 16.0265 302.839 15.4205C303.116 14.8106 303.254 14.0644 303.254 13.1818ZM306.339 9.13068V7.36364H315.624V9.13068H312.027V19H309.936V9.13068H306.339ZM317.413 19V7.36364H321.777C322.671 7.36364 323.421 7.5303 324.027 7.86364C324.637 8.19697 325.097 8.6553 325.408 9.23864C325.722 9.81818 325.879 10.4773 325.879 11.2159C325.879 11.9621 325.722 12.625 325.408 13.2045C325.093 13.7841 324.629 14.2405 324.016 14.5739C323.402 14.9034 322.646 15.0682 321.749 15.0682H318.857V13.3352H321.464C321.987 13.3352 322.415 13.2443 322.749 13.0625C323.082 12.8807 323.328 12.6307 323.487 12.3125C323.65 11.9943 323.732 11.6288 323.732 11.2159C323.732 10.803 323.65 10.4394 323.487 10.125C323.328 9.81061 323.08 9.56629 322.743 9.39205C322.41 9.21402 321.98 9.125 321.453 9.125H319.521V19H317.413Z" fill="#3A2F7E"/>
</svg>
