<svg width="68" height="73" viewBox="0 0 68 73" fill="none" xmlns="http://www.w3.org/2000/svg">
<path d="M39.5285 5.06491L34.6066 11.7849L31.7569 15.674L29.8736 18.2458L22.0144 28.9722L21.6969 29.4058C19.2167 32.6513 15.2968 34.7458 10.8868 34.7458C6.95306 34.7458 3.40809 33.0795 0.927979 30.4149C3.13982 21.3195 9.04172 13.664 16.9666 9.10673C17.0295 9.07127 17.0925 9.03309 17.1582 8.99764C19.8135 7.49491 22.6933 6.33582 25.7318 5.58855C25.8194 5.56673 25.9098 5.54491 25.9974 5.52582C28.5322 4.92309 31.1766 4.604 33.8976 4.604C35.8165 4.604 37.6971 4.76218 39.5285 5.06764V5.06491Z" fill="#382F7E"/>
<path d="M67.7295 35.8722L60.6478 30.7231L54.1628 26.0077L49.4298 32.4686L28.6801 60.7886L23.9443 67.2495L21.9077 70.0286C16.7421 68.084 12.1761 64.9177 8.56816 60.8868C6.68207 58.7786 5.05604 56.4359 3.74481 53.905C3.39442 53.2313 3.06593 52.5413 2.75933 51.8431C1.15794 48.1668 0.194363 44.1522 0.00548021 39.9359C0.00548021 39.8895 0 39.8431 0 39.794C3.19458 41.654 6.91201 42.7231 10.8813 42.7231C11.2399 42.7231 11.5985 42.715 11.9544 42.6959C12.083 42.6904 12.2117 42.6822 12.3403 42.674C12.4197 42.6686 12.4991 42.6631 12.5785 42.6577C12.6825 42.6495 12.7838 42.6413 12.8878 42.6304C12.9918 42.6222 13.0931 42.6113 13.1972 42.6004C13.2957 42.5895 13.3915 42.5786 13.4873 42.5677C13.5065 42.5677 13.5284 42.5622 13.5475 42.5595C13.7392 42.535 13.928 42.5104 14.1169 42.4831C14.3031 42.4531 14.4892 42.4259 14.6754 42.3931C14.7931 42.3713 14.9108 42.3495 15.0258 42.3277C15.1051 42.3113 15.1845 42.2977 15.2639 42.2786C15.294 42.2731 15.3269 42.2649 15.357 42.2595C15.5431 42.2186 15.7293 42.1777 15.9154 42.134C16.0085 42.1122 16.1016 42.0904 16.1946 42.0659C16.3096 42.0359 16.4219 42.0086 16.5341 41.9786C16.6217 41.9568 16.7093 41.9322 16.7941 41.905C16.8899 41.8777 16.9858 41.8504 17.0843 41.8204C17.1774 41.7931 17.2705 41.7631 17.3635 41.7359C17.4621 41.7059 17.5606 41.6731 17.6592 41.6404C17.755 41.6104 17.8508 41.5777 17.9439 41.545C18.0424 41.5122 18.1382 41.4768 18.2368 41.4413C18.3271 41.4086 18.4174 41.3759 18.5078 41.3404C18.6008 41.305 18.6939 41.2695 18.787 41.234C18.9923 41.155 19.1976 41.0704 19.4029 40.9831C19.4741 40.9531 19.5425 40.9231 19.611 40.8931C19.7971 40.8113 19.9778 40.7295 20.1612 40.6422C20.2488 40.6013 20.3364 40.5577 20.424 40.5168C20.7771 40.3422 21.1275 40.1595 21.4724 39.9659C21.5573 39.9195 21.6394 39.8704 21.7242 39.8213C21.9925 39.6659 22.2553 39.505 22.5181 39.3386C22.592 39.2922 22.6632 39.2459 22.7344 39.1995C22.8247 39.1395 22.915 39.0822 23.0054 39.0195C23.0793 38.9704 23.1532 38.9213 23.2244 38.8695C23.3092 38.8095 23.3941 38.7522 23.4789 38.6922C23.6158 38.594 23.7499 38.4959 23.8841 38.395C24.3713 38.0295 24.8422 37.6422 25.2966 37.2359C25.3705 37.1704 25.4417 37.105 25.5156 37.0395C25.5868 36.974 25.6579 36.9086 25.7291 36.8404C25.8003 36.775 25.8687 36.7095 25.9371 36.6413C26.0083 36.5704 26.0795 36.5022 26.1507 36.4313C26.2109 36.3713 26.2739 36.3086 26.3341 36.2459C26.3423 36.2377 26.3478 36.2322 26.356 36.2213C26.4244 36.1504 26.4901 36.0822 26.5586 36.0113C26.627 35.9404 26.6927 35.8695 26.7584 35.7986C26.8213 35.7304 26.887 35.6622 26.95 35.5913C27.0184 35.515 27.0841 35.4386 27.1526 35.3622C27.273 35.2259 27.3935 35.084 27.5112 34.945C27.5823 34.8604 27.6508 34.7759 27.7192 34.6913C27.7822 34.6149 27.8424 34.5386 27.9026 34.4622C27.9629 34.3859 28.0231 34.3068 28.0833 34.2304C28.1435 34.154 28.201 34.075 28.2585 33.9959C28.2667 33.9822 28.2777 33.9713 28.2859 33.9604L28.4337 33.7559L36.3585 22.9586H36.364L41.097 16.5004L47.686 7.50586C52.7147 9.73677 57.1001 13.1513 60.4808 17.3922C62.282 19.6504 63.8013 22.1431 64.9811 24.8186C66.4894 28.244 67.4475 31.9668 67.735 35.8722H67.7295Z" fill="#382F7E"/>
<path d="M67.1108 45.3223C64.5075 57.7886 55.0086 67.7377 42.7695 71.0323C39.9418 71.7932 36.9689 72.1995 33.9003 72.1995C32.7642 72.1995 31.6392 72.1423 30.5305 72.0359L30.4347 71.965L35.1704 65.5041L55.9202 37.1841L67.1135 45.325L67.1108 45.3223Z" fill="#382F7E"/>
</svg>
