<svg width="162" height="35" viewBox="0 0 162 35" fill="none" xmlns="http://www.w3.org/2000/svg">
<path d="M6.10352e-05 28.9744H2.77582C7.57453 28.9744 8.23425 25.7862 8.23425 20.0671V8.15983H0.470899V3.42529H13.3177V21.3817C13.3177 29.0698 10.8239 33.5698 2.77582 33.5698H6.10352e-05V28.9744Z" fill="#382F7E"/>
<path d="M50.8697 33.0982H46.071V0H50.8697V13.5954C52.7531 11.2036 55.8108 10.0336 59.0108 10.0336C65.0824 10.0336 69.9277 13.9718 69.9277 21.8482C69.9277 29.7245 65.0797 33.57 59.0108 33.57C55.7177 33.57 52.7531 32.3973 50.8697 30.0545V33.1009V33.0982ZM65.0332 21.8482C65.0332 16.41 61.74 14.4409 57.7379 14.4409C53.2211 14.4409 50.867 17.6291 50.867 21.8018C50.867 25.9745 53.0323 29.1627 57.7379 29.1627C61.7373 29.1627 65.0332 27.1936 65.0332 21.8482Z" fill="#382F7E"/>
<path d="M78.5233 2.06201H83.3713V5.34291C83.3713 7.87382 83.2782 9.79656 81.4414 10.5002H91.2277V14.6729H83.2755V26.3947C83.2755 28.2711 84.1214 28.7866 85.5804 28.7866H91.4166V33.1475H84.688C81.0171 33.1475 78.5233 31.6475 78.5233 26.5366V14.6756H74.0531V10.5029H74.899C77.6282 10.5029 78.5233 9.00291 78.5233 5.90746V2.06201Z" fill="#382F7E"/>
<path d="M101.534 14.7682C102.24 12.2373 104.592 10.4536 107.181 10.4536H109.486V15.33H107.699C103.888 15.33 101.487 18.4718 101.487 22.08V33.0981H96.686V15.9872C96.686 15.0954 96.2617 14.6754 95.4624 14.6754H93.9103V10.5027H97.2499C100.075 10.5027 101.531 11.7682 101.531 14.4872V14.7682H101.534Z" fill="#382F7E"/>
<path d="M111.747 21.8482C111.747 14.9101 115.747 10.0337 123.277 10.0337C130.808 10.0337 134.712 14.8146 134.712 21.6601V23.0673H116.688C117.159 26.7246 119.136 29.3482 123.606 29.3482C127.512 29.3482 129.16 27.7064 129.582 25.7864H134.476C133.77 30.521 130.053 33.6164 123.606 33.6164C115.982 33.6164 111.747 28.8355 111.747 21.8482ZM129.486 19.2219C128.687 16.2682 127.274 14.2064 123.275 14.2064C119.275 14.2064 117.72 16.2682 116.968 19.2219H129.486Z" fill="#382F7E"/>
<path d="M138.144 21.8482C138.144 14.9101 142.144 10.0337 149.674 10.0337C157.205 10.0337 161.109 14.8146 161.109 21.6601V23.0673H143.085C143.556 26.7246 145.533 29.3482 150.003 29.3482C153.909 29.3482 155.557 27.7064 155.979 25.7864H160.873C160.167 30.521 156.45 33.6164 150.003 33.6164C142.379 33.6164 138.144 28.8355 138.144 21.8482ZM155.886 19.2219C155.086 16.2682 153.674 14.2064 149.674 14.2064C145.675 14.2064 144.12 16.2682 143.367 19.2219H155.886Z" fill="#382F7E"/>
<path d="M29.4767 9.38184C22.5921 9.38184 17.0132 14.9427 17.0132 21.7991C17.0132 28.6555 22.5948 34.2164 29.4767 34.2164C36.3586 34.2164 41.9402 28.6555 41.9402 21.7991C41.9402 14.9427 36.3586 9.38184 29.4767 9.38184ZM29.4767 29.2964C25.3213 29.2964 21.9542 25.9391 21.9542 21.8018C21.9542 17.6646 25.324 14.3073 29.4767 14.3073C33.6294 14.3073 36.9992 17.6646 36.9992 21.8018C36.9992 25.9391 33.6294 29.2964 29.4767 29.2964Z" fill="#382F7E"/>
</svg>
