<svg width="327" height="56" viewBox="0 0 327 56" fill="none" xmlns="http://www.w3.org/2000/svg">
<rect width="327" height="56" rx="10" fill="#3A2F7E"/>
<path d="M136.788 26.1662H134.793C134.717 25.7401 134.574 25.3651 134.365 25.0412C134.156 24.7173 133.901 24.4425 133.598 24.2166C133.295 23.9908 132.957 23.8203 132.582 23.7053C132.211 23.5902 131.817 23.5327 131.399 23.5327C130.645 23.5327 129.969 23.7223 129.373 24.1016C128.781 24.4808 128.312 25.0369 127.967 25.7699C127.626 26.5028 127.455 27.3977 127.455 28.4545C127.455 29.5199 127.626 30.419 127.967 31.152C128.312 31.8849 128.783 32.4389 129.379 32.8139C129.976 33.1889 130.647 33.3764 131.393 33.3764C131.806 33.3764 132.198 33.321 132.569 33.2102C132.944 33.0952 133.283 32.9268 133.585 32.7053C133.888 32.4837 134.143 32.2131 134.352 31.8935C134.565 31.5696 134.712 31.1989 134.793 30.7812L136.788 30.7876C136.681 31.4311 136.474 32.0234 136.168 32.5646C135.865 33.1016 135.475 33.5661 134.998 33.9581C134.525 34.3459 133.984 34.6463 133.374 34.8594C132.765 35.0724 132.1 35.179 131.38 35.179C130.246 35.179 129.237 34.9105 128.35 34.3736C127.464 33.8324 126.765 33.0589 126.254 32.0533C125.746 31.0476 125.493 29.848 125.493 28.4545C125.493 27.0568 125.749 25.8572 126.26 24.8558C126.771 23.8501 127.47 23.0788 128.357 22.5419C129.243 22.0007 130.251 21.7301 131.38 21.7301C132.075 21.7301 132.722 21.8303 133.323 22.0305C133.928 22.2266 134.472 22.5163 134.953 22.8999C135.435 23.2791 135.833 23.7436 136.148 24.2933C136.464 24.8388 136.677 25.4631 136.788 26.1662ZM143.133 35.1982C142.213 35.1982 141.41 34.9872 140.724 34.5653C140.037 34.1435 139.505 33.5533 139.126 32.7947C138.746 32.0362 138.557 31.1499 138.557 30.1357C138.557 29.1172 138.746 28.2266 139.126 27.4638C139.505 26.701 140.037 26.1087 140.724 25.6868C141.41 25.2649 142.213 25.054 143.133 25.054C144.054 25.054 144.857 25.2649 145.543 25.6868C146.229 26.1087 146.762 26.701 147.141 27.4638C147.52 28.2266 147.71 29.1172 147.71 30.1357C147.71 31.1499 147.52 32.0362 147.141 32.7947C146.762 33.5533 146.229 34.1435 145.543 34.5653C144.857 34.9872 144.054 35.1982 143.133 35.1982ZM143.14 33.5938C143.736 33.5938 144.231 33.4361 144.623 33.1207C145.015 32.8054 145.305 32.3857 145.492 31.8615C145.684 31.3374 145.78 30.7599 145.78 30.1293C145.78 29.5028 145.684 28.9276 145.492 28.4034C145.305 27.875 145.015 27.451 144.623 27.1314C144.231 26.8118 143.736 26.652 143.14 26.652C142.539 26.652 142.04 26.8118 141.644 27.1314C141.252 27.451 140.96 27.875 140.768 28.4034C140.581 28.9276 140.487 29.5028 140.487 30.1293C140.487 30.7599 140.581 31.3374 140.768 31.8615C140.96 32.3857 141.252 32.8054 141.644 33.1207C142.04 33.4361 142.539 33.5938 143.14 33.5938ZM151.755 29.1705V35H149.843V25.1818H151.678V26.7798H151.799C152.025 26.2599 152.379 25.8423 152.86 25.527C153.346 25.2116 153.958 25.054 154.695 25.054C155.364 25.054 155.95 25.1946 156.453 25.4759C156.956 25.7528 157.346 26.1662 157.623 26.7159C157.9 27.2656 158.038 27.9453 158.038 28.755V35H156.127V28.9851C156.127 28.2734 155.941 27.7173 155.571 27.3168C155.2 26.9119 154.691 26.7095 154.043 26.7095C153.6 26.7095 153.206 26.8054 152.86 26.9972C152.52 27.1889 152.249 27.4702 152.049 27.8409C151.853 28.2074 151.755 28.6506 151.755 29.1705ZM165.184 25.1818V26.7159H159.821V25.1818H165.184ZM161.26 22.8295H163.171V32.1172C163.171 32.4879 163.226 32.767 163.337 32.9545C163.448 33.1378 163.591 33.2635 163.765 33.3317C163.944 33.3956 164.138 33.4276 164.347 33.4276C164.5 33.4276 164.635 33.4169 164.75 33.3956C164.865 33.3743 164.954 33.3572 165.018 33.3445L165.363 34.9233C165.252 34.9659 165.095 35.0085 164.89 35.0511C164.686 35.098 164.43 35.1236 164.123 35.1278C163.62 35.1364 163.152 35.0469 162.717 34.8594C162.282 34.6719 161.931 34.3821 161.662 33.9901C161.394 33.598 161.26 33.1058 161.26 32.5135V22.8295ZM167.298 35V25.1818H169.21V35H167.298ZM168.264 23.6669C167.931 23.6669 167.646 23.5561 167.407 23.3345C167.173 23.1087 167.056 22.8402 167.056 22.5291C167.056 22.2138 167.173 21.9453 167.407 21.7237C167.646 21.4979 167.931 21.3849 168.264 21.3849C168.596 21.3849 168.879 21.4979 169.114 21.7237C169.352 21.9453 169.472 22.2138 169.472 22.5291C169.472 22.8402 169.352 23.1087 169.114 23.3345C168.879 23.5561 168.596 23.6669 168.264 23.6669ZM173.692 29.1705V35H171.781V25.1818H173.615V26.7798H173.737C173.963 26.2599 174.316 25.8423 174.798 25.527C175.284 25.2116 175.895 25.054 176.632 25.054C177.301 25.054 177.887 25.1946 178.39 25.4759C178.893 25.7528 179.283 26.1662 179.56 26.7159C179.837 27.2656 179.975 27.9453 179.975 28.755V35H178.064V28.9851C178.064 28.2734 177.879 27.7173 177.508 27.3168C177.137 26.9119 176.628 26.7095 175.98 26.7095C175.537 26.7095 175.143 26.8054 174.798 26.9972C174.457 27.1889 174.186 27.4702 173.986 27.8409C173.79 28.2074 173.692 28.6506 173.692 29.1705ZM188.758 30.9283V25.1818H190.676V35H188.797V33.2997H188.694C188.468 33.8239 188.106 34.2607 187.608 34.6101C187.113 34.9553 186.498 35.1278 185.76 35.1278C185.13 35.1278 184.571 34.9893 184.086 34.7124C183.604 34.4311 183.225 34.0156 182.948 33.4659C182.675 32.9162 182.539 32.2365 182.539 31.4268V25.1818H184.45V31.1967C184.45 31.8658 184.635 32.3984 185.006 32.7947C185.377 33.1911 185.858 33.3892 186.451 33.3892C186.809 33.3892 187.164 33.2997 187.518 33.1207C187.876 32.9418 188.172 32.6712 188.407 32.3089C188.645 31.9467 188.762 31.4865 188.758 30.9283ZM197.475 35.1982C196.508 35.1982 195.675 34.9915 194.976 34.5781C194.281 34.1605 193.744 33.5746 193.365 32.8203C192.99 32.0618 192.803 31.1733 192.803 30.1548C192.803 29.1491 192.99 28.2628 193.365 27.4957C193.744 26.7287 194.273 26.13 194.95 25.6996C195.632 25.2692 196.429 25.054 197.341 25.054C197.895 25.054 198.432 25.1456 198.952 25.3288C199.472 25.5121 199.938 25.7997 200.352 26.1918C200.765 26.5838 201.091 27.093 201.33 27.7195C201.568 28.3416 201.688 29.098 201.688 29.9886V30.6662H193.883V29.2344H199.815C199.815 28.7315 199.713 28.2862 199.508 27.8984C199.303 27.5064 199.016 27.1974 198.645 26.9716C198.279 26.7457 197.848 26.6328 197.354 26.6328C196.817 26.6328 196.348 26.7649 195.948 27.0291C195.551 27.2891 195.244 27.63 195.027 28.0518C194.814 28.4695 194.708 28.9233 194.708 29.4134V30.532C194.708 31.1882 194.823 31.7464 195.053 32.2067C195.287 32.6669 195.613 33.0185 196.031 33.2614C196.448 33.5 196.936 33.6193 197.494 33.6193C197.857 33.6193 198.187 33.5682 198.485 33.4659C198.784 33.3594 199.041 33.2017 199.259 32.9929C199.476 32.7841 199.642 32.5263 199.757 32.2195L201.566 32.5455C201.421 33.0781 201.161 33.5447 200.786 33.9453C200.416 34.3416 199.949 34.6506 199.387 34.8722C198.828 35.0895 198.191 35.1982 197.475 35.1982Z" fill="white"/>
</svg>
