<svg width="147" height="46" viewBox="0 0 147 46" fill="none" xmlns="http://www.w3.org/2000/svg">
<path d="M1.14773 16V4.36364H8.71591V6.13068H3.25568V9.28977H8.32386V11.0568H3.25568V14.233H8.76136V16H1.14773ZM12.8324 10.8864V16H10.7756V7.27273H12.7415V8.75568H12.8438C13.0445 8.26705 13.3646 7.87879 13.804 7.59091C14.2472 7.30303 14.7945 7.15909 15.446 7.15909C16.0483 7.15909 16.5729 7.28788 17.0199 7.54545C17.4706 7.80303 17.8191 8.17614 18.0653 8.66477C18.3153 9.15341 18.4384 9.74621 18.4347 10.4432V16H16.3778V10.7614C16.3778 10.178 16.2263 9.72159 15.9233 9.39205C15.6241 9.0625 15.2093 8.89773 14.679 8.89773C14.3191 8.89773 13.9991 8.97727 13.7188 9.13636C13.4422 9.29167 13.2244 9.51705 13.0653 9.8125C12.91 10.108 12.8324 10.4659 12.8324 10.8864ZM24.321 19.4545C23.5824 19.4545 22.9479 19.3542 22.4176 19.1534C21.8873 18.9564 21.4612 18.6913 21.1392 18.358C20.8172 18.0246 20.5938 17.6553 20.4688 17.25L22.321 16.8011C22.4044 16.9716 22.5256 17.1402 22.6847 17.3068C22.8438 17.4773 23.0578 17.6174 23.3267 17.7273C23.5994 17.8409 23.9422 17.8977 24.3551 17.8977C24.9384 17.8977 25.4214 17.7557 25.804 17.4716C26.1866 17.1913 26.3778 16.7292 26.3778 16.0852V14.4318H26.2756C26.1695 14.6439 26.0142 14.8617 25.8097 15.0852C25.6089 15.3087 25.3419 15.4962 25.0085 15.6477C24.679 15.7992 24.2642 15.875 23.7642 15.875C23.0938 15.875 22.4858 15.7178 21.9403 15.4034C21.3987 15.0852 20.9669 14.6117 20.6449 13.983C20.3267 13.3504 20.1676 12.5587 20.1676 11.608C20.1676 10.6496 20.3267 9.84091 20.6449 9.18182C20.9669 8.51894 21.4006 8.01705 21.946 7.67614C22.4915 7.33144 23.0994 7.15909 23.7699 7.15909C24.2813 7.15909 24.7017 7.24621 25.0312 7.42045C25.3646 7.59091 25.6297 7.79735 25.8267 8.03977C26.0237 8.27841 26.1733 8.50379 26.2756 8.71591H26.3892V7.27273H28.4176V16.142C28.4176 16.8883 28.2396 17.5057 27.8835 17.9943C27.5275 18.483 27.0407 18.8485 26.4233 19.0909C25.8059 19.3333 25.1051 19.4545 24.321 19.4545ZM24.3381 14.2614C24.7737 14.2614 25.1449 14.1553 25.4517 13.9432C25.7585 13.7311 25.9915 13.4261 26.1506 13.0284C26.3097 12.6307 26.3892 12.1534 26.3892 11.5966C26.3892 11.0473 26.3097 10.5663 26.1506 10.1534C25.9953 9.74053 25.7642 9.42045 25.4574 9.19318C25.1544 8.96212 24.7813 8.84659 24.3381 8.84659C23.8797 8.84659 23.4972 8.96591 23.1903 9.20455C22.8835 9.44318 22.6525 9.77083 22.4972 10.1875C22.3419 10.6004 22.2642 11.0701 22.2642 11.5966C22.2642 12.1307 22.3419 12.5985 22.4972 13C22.6563 13.3977 22.8892 13.7083 23.196 13.9318C23.5066 14.1515 23.8873 14.2614 24.3381 14.2614ZM32.5824 4.36364V16H30.5256V4.36364H32.5824ZM34.6974 16V7.27273H36.7543V16H34.6974ZM35.7315 6.03409C35.4058 6.03409 35.1255 5.92614 34.8906 5.71023C34.6558 5.49053 34.5384 5.22727 34.5384 4.92045C34.5384 4.60985 34.6558 4.34659 34.8906 4.13068C35.1255 3.91098 35.4058 3.80114 35.7315 3.80114C36.0611 3.80114 36.3414 3.91098 36.5724 4.13068C36.8073 4.34659 36.9247 4.60985 36.9247 4.92045C36.9247 5.22727 36.8073 5.49053 36.5724 5.71023C36.3414 5.92614 36.0611 6.03409 35.7315 6.03409ZM45.767 9.57955L43.892 9.78409C43.839 9.5947 43.7462 9.41667 43.6136 9.25C43.4848 9.08333 43.3106 8.94886 43.0909 8.84659C42.8712 8.74432 42.6023 8.69318 42.2841 8.69318C41.8561 8.69318 41.4962 8.78598 41.2045 8.97159C40.9167 9.1572 40.7746 9.39773 40.7784 9.69318C40.7746 9.94697 40.8674 10.1534 41.0568 10.3125C41.25 10.4716 41.5682 10.6023 42.0114 10.7045L43.5 11.0227C44.3258 11.2008 44.9394 11.483 45.3409 11.8693C45.7462 12.2557 45.9508 12.7614 45.9545 13.3864C45.9508 13.9356 45.7898 14.4205 45.4716 14.8409C45.1572 15.2576 44.7197 15.5833 44.1591 15.8182C43.5985 16.053 42.9545 16.1705 42.2273 16.1705C41.1591 16.1705 40.2992 15.947 39.6477 15.5C38.9962 15.0492 38.608 14.4223 38.483 13.6193L40.4886 13.4261C40.5795 13.8201 40.7727 14.1174 41.0682 14.3182C41.3636 14.5189 41.7481 14.6193 42.2216 14.6193C42.7102 14.6193 43.1023 14.5189 43.3977 14.3182C43.697 14.1174 43.8466 13.8693 43.8466 13.5739C43.8466 13.3239 43.75 13.1174 43.5568 12.9545C43.3674 12.7917 43.072 12.6667 42.6705 12.5795L41.1818 12.267C40.3447 12.0928 39.7254 11.7992 39.3239 11.3864C38.9223 10.9697 38.7235 10.4432 38.7273 9.80682C38.7235 9.26894 38.8693 8.80303 39.1648 8.40909C39.464 8.01136 39.8788 7.70455 40.4091 7.48864C40.9432 7.26894 41.5587 7.15909 42.2557 7.15909C43.2784 7.15909 44.0833 7.37689 44.6705 7.8125C45.2614 8.24811 45.6269 8.83712 45.767 9.57955ZM49.7074 10.8864V16H47.6506V4.36364H49.6619V8.75568H49.7642C49.9688 8.26326 50.285 7.875 50.7131 7.59091C51.1449 7.30303 51.6941 7.15909 52.3608 7.15909C52.9669 7.15909 53.4953 7.28598 53.946 7.53977C54.3968 7.79356 54.7453 8.16477 54.9915 8.65341C55.2415 9.14205 55.3665 9.73864 55.3665 10.4432V16H53.3097V10.7614C53.3097 10.1742 53.1581 9.7178 52.8551 9.39205C52.5559 9.0625 52.1354 8.89773 51.5938 8.89773C51.2301 8.89773 50.9044 8.97727 50.6165 9.13636C50.3324 9.29167 50.1089 9.51705 49.946 9.8125C49.7869 10.108 49.7074 10.4659 49.7074 10.8864Z" fill="#3A2F7E"/>
<path d="M1.40909 42V30.3636H2.81818V35.5455H9.02273V30.3636H10.4318V42H9.02273V36.7955H2.81818V42H1.40909ZM16.7301 42.1818C15.8892 42.1818 15.1638 41.9962 14.554 41.625C13.9479 41.25 13.4801 40.7273 13.1506 40.0568C12.8248 39.3826 12.6619 38.5985 12.6619 37.7045C12.6619 36.8106 12.8248 36.0227 13.1506 35.3409C13.4801 34.6553 13.9384 34.1212 14.5256 33.7386C15.1165 33.3523 15.8059 33.1591 16.5938 33.1591C17.0483 33.1591 17.4972 33.2348 17.9403 33.3864C18.3835 33.5379 18.7869 33.7841 19.1506 34.125C19.5142 34.4621 19.804 34.9091 20.0199 35.4659C20.2358 36.0227 20.3438 36.7083 20.3438 37.5227V38.0909H13.6165V36.9318H18.9801C18.9801 36.4394 18.8816 36 18.6847 35.6136C18.4915 35.2273 18.215 34.9223 17.8551 34.6989C17.4991 34.4754 17.0786 34.3636 16.5938 34.3636C16.0597 34.3636 15.5975 34.4962 15.2074 34.7614C14.821 35.0227 14.5237 35.3636 14.3153 35.7841C14.107 36.2045 14.0028 36.6553 14.0028 37.1364V37.9091C14.0028 38.5682 14.1165 39.1269 14.3438 39.5852C14.5748 40.0398 14.8949 40.3864 15.304 40.625C15.7131 40.8598 16.1884 40.9773 16.7301 40.9773C17.0824 40.9773 17.4006 40.928 17.6847 40.8295C17.9725 40.7273 18.2206 40.5758 18.429 40.375C18.6373 40.1705 18.7983 39.9167 18.9119 39.6136L20.2074 39.9773C20.071 40.4167 19.8419 40.803 19.5199 41.1364C19.1979 41.4659 18.8002 41.7235 18.3267 41.9091C17.8532 42.0909 17.321 42.1818 16.7301 42.1818ZM23.7244 30.3636V42H22.3835V30.3636H23.7244ZM27.5213 30.3636V42H26.1804V30.3636H27.5213ZM33.5227 42.1818C32.7348 42.1818 32.0436 41.9943 31.4489 41.6193C30.858 41.2443 30.3958 40.7197 30.0625 40.0455C29.733 39.3712 29.5682 38.5833 29.5682 37.6818C29.5682 36.7727 29.733 35.9792 30.0625 35.3011C30.3958 34.6231 30.858 34.0966 31.4489 33.7216C32.0436 33.3466 32.7348 33.1591 33.5227 33.1591C34.3106 33.1591 35 33.3466 35.5909 33.7216C36.1856 34.0966 36.6477 34.6231 36.9773 35.3011C37.3106 35.9792 37.4773 36.7727 37.4773 37.6818C37.4773 38.5833 37.3106 39.3712 36.9773 40.0455C36.6477 40.7197 36.1856 41.2443 35.5909 41.6193C35 41.9943 34.3106 42.1818 33.5227 42.1818ZM33.5227 40.9773C34.1212 40.9773 34.6136 40.8239 35 40.517C35.3864 40.2102 35.6723 39.8068 35.858 39.3068C36.0436 38.8068 36.1364 38.2652 36.1364 37.6818C36.1364 37.0985 36.0436 36.5549 35.858 36.0511C35.6723 35.5473 35.3864 35.1402 35 34.8295C34.6136 34.5189 34.1212 34.3636 33.5227 34.3636C32.9242 34.3636 32.4318 34.5189 32.0455 34.8295C31.6591 35.1402 31.3731 35.5473 31.1875 36.0511C31.0019 36.5549 30.9091 37.0985 30.9091 37.6818C30.9091 38.2652 31.0019 38.8068 31.1875 39.3068C31.3731 39.8068 31.6591 40.2102 32.0455 40.517C32.4318 40.8239 32.9242 40.9773 33.5227 40.9773ZM41.5241 40.4091L41.4332 41.0227C41.3688 41.4545 41.2704 41.9167 41.1378 42.4091C41.009 42.9015 40.8745 43.3655 40.7344 43.8011C40.5942 44.2367 40.4787 44.5833 40.3878 44.8409H39.3651C39.4143 44.5985 39.4787 44.2784 39.5582 43.8807C39.6378 43.483 39.7173 43.0379 39.7969 42.5455C39.8802 42.0568 39.9484 41.5568 40.0014 41.0455L40.0696 40.4091H41.5241ZM49.8494 36.75V42H48.5085V30.3636H49.8494V34.6364H49.9631C50.1676 34.1856 50.4744 33.8277 50.8835 33.5625C51.2964 33.2936 51.8456 33.1591 52.5312 33.1591C53.1259 33.1591 53.6468 33.2784 54.0938 33.517C54.5407 33.7519 54.8873 34.1136 55.1335 34.6023C55.3835 35.0871 55.5085 35.7045 55.5085 36.4545V42H54.1676V36.5455C54.1676 35.8523 53.9877 35.3163 53.6278 34.9375C53.2718 34.5549 52.7775 34.3636 52.1449 34.3636C51.7055 34.3636 51.3116 34.4564 50.9631 34.642C50.6184 34.8277 50.3456 35.0985 50.1449 35.4545C49.9479 35.8106 49.8494 36.2424 49.8494 36.75ZM61.5071 42.1818C60.7192 42.1818 60.0279 41.9943 59.4332 41.6193C58.8423 41.2443 58.3802 40.7197 58.0469 40.0455C57.7173 39.3712 57.5526 38.5833 57.5526 37.6818C57.5526 36.7727 57.7173 35.9792 58.0469 35.3011C58.3802 34.6231 58.8423 34.0966 59.4332 33.7216C60.0279 33.3466 60.7192 33.1591 61.5071 33.1591C62.295 33.1591 62.9844 33.3466 63.5753 33.7216C64.17 34.0966 64.6321 34.6231 64.9616 35.3011C65.295 35.9792 65.4616 36.7727 65.4616 37.6818C65.4616 38.5833 65.295 39.3712 64.9616 40.0455C64.6321 40.7197 64.17 41.2443 63.5753 41.6193C62.9844 41.9943 62.295 42.1818 61.5071 42.1818ZM61.5071 40.9773C62.1056 40.9773 62.598 40.8239 62.9844 40.517C63.3707 40.2102 63.6567 39.8068 63.8423 39.3068C64.0279 38.8068 64.1207 38.2652 64.1207 37.6818C64.1207 37.0985 64.0279 36.5549 63.8423 36.0511C63.6567 35.5473 63.3707 35.1402 62.9844 34.8295C62.598 34.5189 62.1056 34.3636 61.5071 34.3636C60.9086 34.3636 60.4162 34.5189 60.0298 34.8295C59.6435 35.1402 59.3575 35.5473 59.1719 36.0511C58.9863 36.5549 58.8935 37.0985 58.8935 37.6818C58.8935 38.2652 58.9863 38.8068 59.1719 39.3068C59.3575 39.8068 59.6435 40.2102 60.0298 40.517C60.4162 40.8239 60.9086 40.9773 61.5071 40.9773ZM69.1889 42L66.5298 33.2727H67.9389L69.8253 39.9545H69.9162L71.7798 33.2727H73.2116L75.0526 39.9318H75.1435L77.0298 33.2727H78.4389L75.7798 42H74.4616L72.5526 35.2955H72.4162L70.5071 42H69.1889ZM87.2798 42.2045C86.7268 42.2045 86.2249 42.1004 85.7741 41.892C85.3234 41.6799 84.9654 41.375 84.7003 40.9773C84.4351 40.5758 84.3026 40.0909 84.3026 39.5227C84.3026 39.0227 84.401 38.6174 84.598 38.3068C84.795 37.9924 85.0582 37.7462 85.3878 37.5682C85.7173 37.3902 86.081 37.2576 86.4787 37.1705C86.8802 37.0795 87.2836 37.0076 87.6889 36.9545C88.2192 36.8864 88.6491 36.8352 88.9787 36.8011C89.312 36.7633 89.5545 36.7008 89.706 36.6136C89.8613 36.5265 89.9389 36.375 89.9389 36.1591V36.1136C89.9389 35.553 89.7855 35.1174 89.4787 34.8068C89.1757 34.4962 88.7154 34.3409 88.098 34.3409C87.4579 34.3409 86.956 34.4811 86.5923 34.7614C86.2287 35.0417 85.973 35.3409 85.8253 35.6591L84.5526 35.2045C84.7798 34.6742 85.0829 34.2614 85.4616 33.9659C85.8442 33.6667 86.2609 33.4583 86.7116 33.3409C87.1662 33.2197 87.6132 33.1591 88.0526 33.1591C88.3329 33.1591 88.6548 33.1932 89.0185 33.2614C89.3859 33.3258 89.7401 33.4602 90.081 33.6648C90.4257 33.8693 90.7116 34.178 90.9389 34.5909C91.1662 35.0038 91.2798 35.5568 91.2798 36.25V42H89.9389V40.8182H89.8707C89.7798 41.0076 89.6283 41.2102 89.4162 41.4261C89.2041 41.642 88.9219 41.8258 88.5696 41.9773C88.2173 42.1288 87.7874 42.2045 87.2798 42.2045ZM87.4844 41C88.0147 41 88.4616 40.8958 88.8253 40.6875C89.1927 40.4792 89.4692 40.2102 89.6548 39.8807C89.8442 39.5511 89.9389 39.2045 89.9389 38.8409V37.6136C89.8821 37.6818 89.7571 37.7443 89.5639 37.8011C89.3745 37.8542 89.1548 37.9015 88.9048 37.9432C88.6586 37.9811 88.4181 38.0152 88.1832 38.0455C87.9522 38.072 87.7647 38.0947 87.6207 38.1136C87.2723 38.1591 86.9465 38.233 86.6435 38.3352C86.3442 38.4337 86.1018 38.5833 85.9162 38.7841C85.7344 38.9811 85.6435 39.25 85.6435 39.5909C85.6435 40.0568 85.8158 40.4091 86.1605 40.6477C86.509 40.8826 86.9503 41 87.4844 41ZM93.7273 42V33.2727H95.0227V34.5909H95.1136C95.2727 34.1591 95.5606 33.8087 95.9773 33.5398C96.3939 33.2708 96.8636 33.1364 97.3864 33.1364C97.4848 33.1364 97.608 33.1383 97.7557 33.142C97.9034 33.1458 98.0152 33.1515 98.0909 33.1591V34.5227C98.0455 34.5114 97.9413 34.4943 97.7784 34.4716C97.6193 34.4451 97.4508 34.4318 97.2727 34.4318C96.8485 34.4318 96.4697 34.5208 96.1364 34.6989C95.8068 34.8731 95.5455 35.1155 95.3523 35.4261C95.1629 35.733 95.0682 36.0833 95.0682 36.4773V42H93.7273ZM103.074 42.1818C102.233 42.1818 101.508 41.9962 100.898 41.625C100.292 41.25 99.8239 40.7273 99.4943 40.0568C99.1686 39.3826 99.0057 38.5985 99.0057 37.7045C99.0057 36.8106 99.1686 36.0227 99.4943 35.3409C99.8239 34.6553 100.282 34.1212 100.869 33.7386C101.46 33.3523 102.15 33.1591 102.938 33.1591C103.392 33.1591 103.841 33.2348 104.284 33.3864C104.727 33.5379 105.131 33.7841 105.494 34.125C105.858 34.4621 106.148 34.9091 106.364 35.4659C106.58 36.0227 106.688 36.7083 106.688 37.5227V38.0909H99.9602V36.9318H105.324C105.324 36.4394 105.225 36 105.028 35.6136C104.835 35.2273 104.559 34.9223 104.199 34.6989C103.843 34.4754 103.422 34.3636 102.938 34.3636C102.403 34.3636 101.941 34.4962 101.551 34.7614C101.165 35.0227 100.867 35.3636 100.659 35.7841C100.451 36.2045 100.347 36.6553 100.347 37.1364V37.9091C100.347 38.5682 100.46 39.1269 100.688 39.5852C100.919 40.0398 101.239 40.3864 101.648 40.625C102.057 40.8598 102.532 40.9773 103.074 40.9773C103.426 40.9773 103.744 40.928 104.028 40.8295C104.316 40.7273 104.564 40.5758 104.773 40.375C104.981 40.1705 105.142 39.9167 105.256 39.6136L106.551 39.9773C106.415 40.4167 106.186 40.803 105.864 41.1364C105.542 41.4659 105.144 41.7235 104.67 41.9091C104.197 42.0909 103.665 42.1818 103.074 42.1818ZM114.091 45.2727C113.864 45.2727 113.661 45.2538 113.483 45.2159C113.305 45.1818 113.182 45.1477 113.114 45.1136L113.455 43.9318C113.78 44.0152 114.068 44.0455 114.318 44.0227C114.568 44 114.79 43.8883 114.983 43.6875C115.18 43.4905 115.36 43.1705 115.523 42.7273L115.773 42.0455L112.545 33.2727H114L116.409 40.2273H116.5L118.909 33.2727H120.364L116.659 43.2727C116.492 43.7235 116.286 44.0966 116.04 44.392C115.794 44.6913 115.508 44.9129 115.182 45.0568C114.86 45.2008 114.496 45.2727 114.091 45.2727ZM125.366 42.1818C124.579 42.1818 123.887 41.9943 123.293 41.6193C122.702 41.2443 122.24 40.7197 121.906 40.0455C121.577 39.3712 121.412 38.5833 121.412 37.6818C121.412 36.7727 121.577 35.9792 121.906 35.3011C122.24 34.6231 122.702 34.0966 123.293 33.7216C123.887 33.3466 124.579 33.1591 125.366 33.1591C126.154 33.1591 126.844 33.3466 127.435 33.7216C128.029 34.0966 128.491 34.6231 128.821 35.3011C129.154 35.9792 129.321 36.7727 129.321 37.6818C129.321 38.5833 129.154 39.3712 128.821 40.0455C128.491 40.7197 128.029 41.2443 127.435 41.6193C126.844 41.9943 126.154 42.1818 125.366 42.1818ZM125.366 40.9773C125.965 40.9773 126.457 40.8239 126.844 40.517C127.23 40.2102 127.516 39.8068 127.702 39.3068C127.887 38.8068 127.98 38.2652 127.98 37.6818C127.98 37.0985 127.887 36.5549 127.702 36.0511C127.516 35.5473 127.23 35.1402 126.844 34.8295C126.457 34.5189 125.965 34.3636 125.366 34.3636C124.768 34.3636 124.276 34.5189 123.889 34.8295C123.503 35.1402 123.217 35.5473 123.031 36.0511C122.846 36.5549 122.753 37.0985 122.753 37.6818C122.753 38.2652 122.846 38.8068 123.031 39.3068C123.217 39.8068 123.503 40.2102 123.889 40.517C124.276 40.8239 124.768 40.9773 125.366 40.9773ZM136.868 38.4318V33.2727H138.209V42H136.868V40.5227H136.777C136.572 40.9659 136.254 41.3428 135.822 41.6534C135.391 41.9602 134.845 42.1136 134.186 42.1136C133.641 42.1136 133.156 41.9943 132.732 41.7557C132.307 41.5133 131.974 41.1496 131.732 40.6648C131.489 40.1761 131.368 39.5606 131.368 38.8182V33.2727H132.709V38.7273C132.709 39.3636 132.887 39.8712 133.243 40.25C133.603 40.6288 134.061 40.8182 134.618 40.8182C134.951 40.8182 135.29 40.733 135.635 40.5625C135.983 40.392 136.275 40.1307 136.51 39.7784C136.749 39.4261 136.868 38.9773 136.868 38.4318ZM142.415 38.7273V38.6591C142.422 37.9356 142.498 37.3598 142.642 36.9318C142.786 36.5038 142.991 36.1572 143.256 35.892C143.521 35.6269 143.839 35.3826 144.21 35.1591C144.434 35.0227 144.634 34.8617 144.812 34.6761C144.991 34.4867 145.131 34.2689 145.233 34.0227C145.339 33.7765 145.392 33.5038 145.392 33.2045C145.392 32.8333 145.305 32.5114 145.131 32.2386C144.956 31.9659 144.723 31.7557 144.432 31.608C144.14 31.4602 143.816 31.3864 143.46 31.3864C143.15 31.3864 142.85 31.4508 142.562 31.5795C142.275 31.7083 142.034 31.911 141.841 32.1875C141.648 32.464 141.536 32.8258 141.506 33.2727H140.074C140.104 32.6288 140.271 32.0777 140.574 31.6193C140.881 31.161 141.284 30.8106 141.784 30.5682C142.288 30.3258 142.847 30.2045 143.46 30.2045C144.127 30.2045 144.706 30.3371 145.199 30.6023C145.695 30.8674 146.078 31.2311 146.347 31.6932C146.619 32.1553 146.756 32.6818 146.756 33.2727C146.756 33.6894 146.691 34.0663 146.562 34.4034C146.438 34.7405 146.256 35.0417 146.017 35.3068C145.782 35.572 145.498 35.8068 145.165 36.0114C144.831 36.2197 144.564 36.4394 144.364 36.6705C144.163 36.8977 144.017 37.1686 143.926 37.483C143.835 37.7973 143.786 38.1894 143.778 38.6591V38.7273H142.415ZM143.142 42.0909C142.862 42.0909 142.621 41.9905 142.42 41.7898C142.22 41.589 142.119 41.3485 142.119 41.0682C142.119 40.7879 142.22 40.5473 142.42 40.3466C142.621 40.1458 142.862 40.0455 143.142 40.0455C143.422 40.0455 143.663 40.1458 143.864 40.3466C144.064 40.5473 144.165 40.7879 144.165 41.0682C144.165 41.2538 144.117 41.4242 144.023 41.5795C143.932 41.7348 143.809 41.8598 143.653 41.9545C143.502 42.0455 143.331 42.0909 143.142 42.0909Z" fill="black" fill-opacity="0.7"/>
</svg>
