<svg width="375" height="60" viewBox="0 0 375 60" fill="none" xmlns="http://www.w3.org/2000/svg">
<mask id="mask0_131_13604" style="mask-type:alpha" maskUnits="userSpaceOnUse" x="21" y="20" width="20" height="20">
<rect x="21" y="20" width="20" height="20" fill="#D9D9D9"/>
</mask>
<g mask="url(#mask0_131_13604)">
<path d="M27.5209 30.8335L32.1875 35.5002L31 36.6668L24.3334 30.0002L31 23.3335L32.1875 24.5002L27.5209 29.1668H37.6667V30.8335H27.5209Z" fill="#1C1B1F"/>
</g>
<path d="M72.0889 33.464C71.7849 34.568 71.2969 35.48 70.6249 36.2C69.9529 36.904 69.1529 37.424 68.2249 37.76C67.2969 38.08 66.2729 38.24 65.1529 38.24C63.5529 38.24 62.1689 37.92 61.0009 37.28C59.8329 36.624 58.9369 35.688 58.3129 34.472C57.6889 33.256 57.3769 31.792 57.3769 30.08C57.3769 28.368 57.6889 26.904 58.3129 25.688C58.9369 24.472 59.8329 23.544 61.0009 22.904C62.1689 22.248 63.5449 21.92 65.1289 21.92C66.2329 21.92 67.2489 22.08 68.1769 22.4C69.1049 22.704 69.8889 23.176 70.5289 23.816C71.1689 24.456 71.6249 25.28 71.8969 26.288L68.2729 27.752C68.0489 26.76 67.6809 26.08 67.1689 25.712C66.6729 25.344 66.0409 25.16 65.2729 25.16C64.5209 25.16 63.8649 25.344 63.3049 25.712C62.7609 26.08 62.3369 26.632 62.0329 27.368C61.7449 28.088 61.6009 28.992 61.6009 30.08C61.6009 31.152 61.7369 32.056 62.0089 32.792C62.2809 33.528 62.6889 34.08 63.2329 34.448C63.7929 34.816 64.4809 35 65.2969 35C66.0649 35 66.7129 34.792 67.2409 34.376C67.7849 33.944 68.1529 33.288 68.3449 32.408L72.0889 33.464ZM74.0968 38V20.912H78.1768V28.184C78.5288 27.384 79.0328 26.784 79.6888 26.384C80.3448 25.968 81.1048 25.76 81.9688 25.76C82.8008 25.76 83.5208 25.92 84.1288 26.24C84.7528 26.56 85.2408 27.032 85.5928 27.656C85.9448 28.28 86.1208 29.064 86.1208 30.008V38H82.0408V31.136C82.0408 30.272 81.8808 29.68 81.5608 29.36C81.2568 29.024 80.8488 28.856 80.3368 28.856C79.9528 28.856 79.5928 28.952 79.2568 29.144C78.9208 29.336 78.6568 29.64 78.4648 30.056C78.2728 30.472 78.1768 31.016 78.1768 31.688V38H74.0968ZM94.6916 25.76C95.9556 25.76 97.0596 26.008 98.0036 26.504C98.9636 26.984 99.7076 27.696 100.236 28.64C100.78 29.568 101.052 30.688 101.052 32C101.052 33.312 100.78 34.44 100.236 35.384C99.7076 36.312 98.9636 37.024 98.0036 37.52C97.0596 38 95.9556 38.24 94.6916 38.24C93.4596 38.24 92.3636 38 91.4036 37.52C90.4436 37.024 89.6916 36.312 89.1476 35.384C88.6196 34.44 88.3556 33.312 88.3556 32C88.3556 30.688 88.6196 29.568 89.1476 28.64C89.6916 27.696 90.4436 26.984 91.4036 26.504C92.3636 26.008 93.4596 25.76 94.6916 25.76ZM94.6916 28.664C94.2276 28.664 93.8276 28.776 93.4916 29C93.1556 29.224 92.8996 29.584 92.7236 30.08C92.5476 30.576 92.4596 31.216 92.4596 32C92.4596 32.784 92.5476 33.424 92.7236 33.92C92.8996 34.4 93.1556 34.76 93.4916 35C93.8276 35.224 94.2276 35.336 94.6916 35.336C95.1716 35.336 95.5796 35.224 95.9156 35C96.2516 34.76 96.5076 34.4 96.6836 33.92C96.8596 33.424 96.9476 32.784 96.9476 32C96.9476 31.216 96.8596 30.576 96.6836 30.08C96.5076 29.584 96.2516 29.224 95.9156 29C95.5796 28.776 95.1716 28.664 94.6916 28.664ZM109.059 25.76C110.323 25.76 111.427 26.008 112.371 26.504C113.331 26.984 114.075 27.696 114.603 28.64C115.147 29.568 115.419 30.688 115.419 32C115.419 33.312 115.147 34.44 114.603 35.384C114.075 36.312 113.331 37.024 112.371 37.52C111.427 38 110.323 38.24 109.059 38.24C107.827 38.24 106.731 38 105.771 37.52C104.811 37.024 104.059 36.312 103.515 35.384C102.987 34.44 102.723 33.312 102.723 32C102.723 30.688 102.987 29.568 103.515 28.64C104.059 27.696 104.811 26.984 105.771 26.504C106.731 26.008 107.827 25.76 109.059 25.76ZM109.059 28.664C108.595 28.664 108.195 28.776 107.859 29C107.523 29.224 107.267 29.584 107.091 30.08C106.915 30.576 106.827 31.216 106.827 32C106.827 32.784 106.915 33.424 107.091 33.92C107.267 34.4 107.523 34.76 107.859 35C108.195 35.224 108.595 35.336 109.059 35.336C109.539 35.336 109.947 35.224 110.283 35C110.619 34.76 110.875 34.4 111.051 33.92C111.227 33.424 111.315 32.784 111.315 32C111.315 31.216 111.227 30.576 111.051 30.08C110.875 29.584 110.619 29.224 110.283 29C109.947 28.776 109.539 28.664 109.059 28.664ZM122.754 38.24C121.554 38.24 120.434 38.048 119.394 37.664C118.37 37.264 117.522 36.696 116.85 35.96L118.77 33.704C119.17 34.216 119.698 34.648 120.354 35C121.026 35.336 121.77 35.504 122.586 35.504C123.082 35.504 123.49 35.432 123.81 35.288C124.13 35.144 124.29 34.92 124.29 34.616C124.29 34.392 124.21 34.216 124.05 34.088C123.89 33.944 123.57 33.824 123.09 33.728L121.41 33.392C119.906 33.088 118.834 32.64 118.194 32.048C117.57 31.44 117.258 30.648 117.258 29.672C117.258 29.016 117.458 28.392 117.858 27.8C118.258 27.192 118.874 26.704 119.706 26.336C120.538 25.952 121.602 25.76 122.898 25.76C124.114 25.76 125.186 25.936 126.114 26.288C127.042 26.64 127.778 27.152 128.322 27.824L126.378 30.032C125.994 29.552 125.498 29.176 124.89 28.904C124.282 28.632 123.674 28.496 123.066 28.496C122.682 28.496 122.354 28.536 122.082 28.616C121.826 28.68 121.634 28.776 121.506 28.904C121.378 29.032 121.314 29.192 121.314 29.384C121.314 29.592 121.41 29.776 121.602 29.936C121.81 30.08 122.186 30.208 122.73 30.32L124.914 30.752C126.146 30.976 127.034 31.384 127.578 31.976C128.122 32.568 128.394 33.28 128.394 34.112C128.394 34.896 128.186 35.6 127.77 36.224C127.354 36.848 126.73 37.344 125.898 37.712C125.066 38.064 124.018 38.24 122.754 38.24ZM136.297 38.24C134.969 38.24 133.817 37.992 132.841 37.496C131.881 37 131.137 36.288 130.609 35.36C130.081 34.432 129.817 33.312 129.817 32C129.817 30.688 130.081 29.568 130.609 28.64C131.137 27.712 131.873 27 132.817 26.504C133.777 26.008 134.873 25.76 136.105 25.76C137.369 25.76 138.441 26.008 139.321 26.504C140.217 26.984 140.897 27.656 141.361 28.52C141.825 29.368 142.057 30.344 142.057 31.448C142.057 31.736 142.049 32.024 142.033 32.312C142.017 32.6 141.993 32.84 141.961 33.032H132.457V30.848H140.161L138.217 31.592C138.217 30.632 138.041 29.896 137.689 29.384C137.353 28.872 136.825 28.616 136.105 28.616C135.593 28.616 135.153 28.736 134.785 28.976C134.433 29.216 134.161 29.592 133.969 30.104C133.793 30.616 133.705 31.272 133.705 32.072C133.705 32.856 133.809 33.496 134.017 33.992C134.225 34.472 134.521 34.824 134.905 35.048C135.289 35.256 135.753 35.36 136.297 35.36C136.905 35.36 137.385 35.24 137.737 35C138.105 34.76 138.377 34.424 138.553 33.992L141.817 35.072C141.593 35.76 141.201 36.344 140.641 36.824C140.097 37.288 139.441 37.64 138.673 37.88C137.921 38.12 137.129 38.24 136.297 38.24ZM163.02 26L158.652 38C158.204 39.264 157.716 40.272 157.188 41.024C156.66 41.776 156.036 42.32 155.316 42.656C154.596 42.992 153.732 43.16 152.724 43.16C152.052 43.16 151.436 43.088 150.876 42.944C150.316 42.8 149.828 42.6 149.412 42.344L150.228 39.584C150.516 39.792 150.82 39.936 151.14 40.016C151.46 40.112 151.868 40.16 152.364 40.16C152.828 40.16 153.204 40.08 153.492 39.92C153.796 39.76 154.036 39.456 154.212 39.008L154.524 38.264L153.132 35L149.532 26H154.02L155.868 32.84L156.444 35.384L157.116 32.744L158.964 26H163.02ZM169.973 25.76C171.237 25.76 172.341 26.008 173.285 26.504C174.245 26.984 174.989 27.696 175.517 28.64C176.061 29.568 176.333 30.688 176.333 32C176.333 33.312 176.061 34.44 175.517 35.384C174.989 36.312 174.245 37.024 173.285 37.52C172.341 38 171.237 38.24 169.973 38.24C168.741 38.24 167.645 38 166.685 37.52C165.725 37.024 164.973 36.312 164.429 35.384C163.901 34.44 163.637 33.312 163.637 32C163.637 30.688 163.901 29.568 164.429 28.64C164.973 27.696 165.725 26.984 166.685 26.504C167.645 26.008 168.741 25.76 169.973 25.76ZM169.973 28.664C169.509 28.664 169.109 28.776 168.773 29C168.437 29.224 168.181 29.584 168.005 30.08C167.829 30.576 167.741 31.216 167.741 32C167.741 32.784 167.829 33.424 168.005 33.92C168.181 34.4 168.437 34.76 168.773 35C169.109 35.224 169.509 35.336 169.973 35.336C170.453 35.336 170.861 35.224 171.197 35C171.533 34.76 171.789 34.4 171.965 33.92C172.141 33.424 172.229 32.784 172.229 32C172.229 31.216 172.141 30.576 171.965 30.08C171.789 29.584 171.533 29.224 171.197 29C170.861 28.776 170.453 28.664 169.973 28.664ZM182.684 38.24C181.868 38.24 181.148 38.104 180.524 37.832C179.916 37.544 179.436 37.088 179.084 36.464C178.732 35.84 178.556 35.024 178.556 34.016V26H182.636V33.056C182.636 33.824 182.788 34.36 183.092 34.664C183.396 34.968 183.828 35.12 184.388 35.12C184.676 35.12 184.948 35.072 185.204 34.976C185.46 34.864 185.684 34.704 185.876 34.496C186.068 34.272 186.212 33.992 186.308 33.656C186.42 33.304 186.476 32.896 186.476 32.432V26H190.556V38H186.908L186.788 35.744C186.404 36.592 185.868 37.224 185.18 37.64C184.492 38.04 183.66 38.24 182.684 38.24ZM193.487 38V26H197.087L197.255 28.592C197.559 27.696 198.007 27 198.599 26.504C199.207 26.008 199.975 25.76 200.903 25.76C201.207 25.76 201.463 25.784 201.671 25.832C201.895 25.88 202.071 25.944 202.199 26.024L201.791 29.384C201.631 29.32 201.423 29.272 201.167 29.24C200.927 29.192 200.631 29.168 200.279 29.168C199.799 29.168 199.351 29.272 198.935 29.48C198.519 29.688 198.183 30 197.927 30.416C197.687 30.816 197.567 31.328 197.567 31.952V38H193.487ZM214.708 34.808H222.652V38H210.58V22.16H214.708V34.808ZM231.426 30.392C231.426 29.832 231.266 29.392 230.946 29.072C230.642 28.736 230.226 28.568 229.698 28.568C229.17 28.568 228.714 28.704 228.33 28.976C227.962 29.232 227.706 29.696 227.562 30.368L224.106 29.552C224.33 28.4 224.922 27.48 225.882 26.792C226.842 26.104 228.194 25.76 229.938 25.76C231.106 25.76 232.098 25.936 232.914 26.288C233.746 26.624 234.378 27.136 234.81 27.824C235.258 28.496 235.482 29.328 235.482 30.32V34.712C235.482 35.336 235.762 35.648 236.322 35.648C236.61 35.648 236.842 35.616 237.018 35.552L236.778 37.88C236.298 38.104 235.714 38.216 235.026 38.216C234.402 38.216 233.85 38.12 233.37 37.928C232.89 37.72 232.514 37.416 232.242 37.016C231.97 36.6 231.834 36.08 231.834 35.456V35.312L232.29 35.144C232.29 35.832 232.082 36.408 231.666 36.872C231.266 37.336 230.738 37.68 230.082 37.904C229.442 38.128 228.77 38.24 228.066 38.24C227.25 38.24 226.538 38.112 225.93 37.856C225.322 37.6 224.85 37.232 224.514 36.752C224.194 36.256 224.034 35.648 224.034 34.928C224.034 34.064 224.29 33.352 224.802 32.792C225.33 32.216 226.154 31.816 227.274 31.592L231.81 30.656L231.786 32.816L229.482 33.296C229.002 33.392 228.642 33.536 228.402 33.728C228.178 33.904 228.066 34.176 228.066 34.544C228.066 34.896 228.194 35.16 228.45 35.336C228.706 35.512 229.01 35.6 229.362 35.6C229.634 35.6 229.89 35.56 230.13 35.48C230.386 35.4 230.61 35.28 230.802 35.12C230.994 34.944 231.146 34.728 231.258 34.472C231.37 34.216 231.426 33.912 231.426 33.56V30.392ZM238.628 38V26H242.276L242.492 30.128L242.036 29.672C242.196 28.808 242.476 28.088 242.876 27.512C243.292 26.936 243.804 26.504 244.412 26.216C245.036 25.912 245.732 25.76 246.5 25.76C247.332 25.76 248.052 25.92 248.66 26.24C249.284 26.56 249.772 27.032 250.124 27.656C250.476 28.28 250.652 29.064 250.652 30.008V38H246.572V31.088C246.572 30.256 246.412 29.68 246.092 29.36C245.772 29.04 245.364 28.88 244.868 28.88C244.484 28.88 244.124 28.976 243.788 29.168C243.452 29.344 243.188 29.632 242.996 30.032C242.804 30.432 242.708 30.968 242.708 31.64V38H238.628ZM265.127 22.784L265.463 25.52C265.367 25.488 265.271 25.472 265.175 25.472C265.079 25.456 264.983 25.448 264.887 25.448C264.183 25.448 263.655 25.624 263.303 25.976C262.967 26.312 262.799 26.736 262.799 27.248L261.359 26.72C261.359 26.064 261.479 25.432 261.719 24.824C261.959 24.216 262.327 23.72 262.823 23.336C263.335 22.952 263.975 22.76 264.743 22.76C264.791 22.76 264.847 22.76 264.911 22.76C264.991 22.76 265.063 22.768 265.127 22.784ZM260.999 35.336C262.391 35.336 263.455 35.632 264.191 36.224C264.943 36.8 265.319 37.632 265.319 38.72C265.319 39.712 265.047 40.536 264.503 41.192C263.959 41.848 263.191 42.336 262.199 42.656C261.223 42.992 260.063 43.16 258.719 43.16C256.543 43.16 254.975 42.888 254.015 42.344C253.055 41.8 252.575 41.064 252.575 40.136C252.575 39.464 252.847 38.92 253.391 38.504C253.935 38.088 254.839 37.864 256.103 37.832L256.007 38.216C255.031 38.088 254.303 37.8 253.823 37.352C253.343 36.904 253.103 36.296 253.103 35.528C253.103 34.76 253.407 34.136 254.015 33.656C254.623 33.176 255.431 32.912 256.439 32.864L257.927 33.56H257.543C256.919 33.592 256.479 33.696 256.223 33.872C255.967 34.048 255.839 34.264 255.839 34.52C255.839 34.792 255.951 35 256.175 35.144C256.399 35.272 256.735 35.336 257.183 35.336H260.999ZM258.743 40.52C259.511 40.52 260.143 40.464 260.639 40.352C261.151 40.256 261.535 40.112 261.791 39.92C262.047 39.744 262.175 39.536 262.175 39.296C262.175 39.056 262.087 38.864 261.911 38.72C261.735 38.592 261.415 38.528 260.951 38.528H256.655C256.351 38.528 256.103 38.608 255.911 38.768C255.735 38.928 255.647 39.128 255.647 39.368C255.647 39.736 255.919 40.016 256.463 40.208C257.007 40.416 257.767 40.52 258.743 40.52ZM258.887 25.76C260.103 25.76 261.143 25.92 262.007 26.24C262.871 26.56 263.527 27.024 263.975 27.632C264.439 28.224 264.671 28.96 264.671 29.84C264.671 30.704 264.439 31.44 263.975 32.048C263.527 32.656 262.871 33.12 262.007 33.44C261.143 33.744 260.103 33.896 258.887 33.896C256.983 33.896 255.535 33.544 254.543 32.84C253.567 32.136 253.079 31.136 253.079 29.84C253.079 28.96 253.303 28.224 253.751 27.632C254.215 27.024 254.879 26.56 255.743 26.24C256.607 25.92 257.655 25.76 258.887 25.76ZM258.887 28.088C258.359 28.088 257.927 28.24 257.591 28.544C257.271 28.848 257.111 29.28 257.111 29.84C257.111 30.384 257.271 30.808 257.591 31.112C257.927 31.416 258.359 31.568 258.887 31.568C259.399 31.568 259.823 31.416 260.159 31.112C260.495 30.808 260.663 30.384 260.663 29.84C260.663 29.28 260.495 28.848 260.159 28.544C259.823 28.24 259.399 28.088 258.887 28.088ZM270.997 38.24C270.181 38.24 269.461 38.104 268.837 37.832C268.229 37.544 267.749 37.088 267.397 36.464C267.045 35.84 266.869 35.024 266.869 34.016V26H270.949V33.056C270.949 33.824 271.101 34.36 271.405 34.664C271.709 34.968 272.141 35.12 272.701 35.12C272.989 35.12 273.261 35.072 273.517 34.976C273.773 34.864 273.997 34.704 274.189 34.496C274.381 34.272 274.525 33.992 274.621 33.656C274.733 33.304 274.789 32.896 274.789 32.432V26H278.869V38H275.221L275.101 35.744C274.717 36.592 274.181 37.224 273.493 37.64C272.805 38.04 271.973 38.24 270.997 38.24ZM288.496 30.392C288.496 29.832 288.336 29.392 288.016 29.072C287.712 28.736 287.296 28.568 286.768 28.568C286.24 28.568 285.784 28.704 285.4 28.976C285.032 29.232 284.776 29.696 284.632 30.368L281.176 29.552C281.4 28.4 281.992 27.48 282.952 26.792C283.912 26.104 285.264 25.76 287.008 25.76C288.176 25.76 289.168 25.936 289.984 26.288C290.816 26.624 291.448 27.136 291.88 27.824C292.328 28.496 292.552 29.328 292.552 30.32V34.712C292.552 35.336 292.832 35.648 293.392 35.648C293.68 35.648 293.912 35.616 294.088 35.552L293.848 37.88C293.368 38.104 292.784 38.216 292.096 38.216C291.472 38.216 290.92 38.12 290.44 37.928C289.96 37.72 289.584 37.416 289.312 37.016C289.04 36.6 288.904 36.08 288.904 35.456V35.312L289.36 35.144C289.36 35.832 289.152 36.408 288.736 36.872C288.336 37.336 287.808 37.68 287.152 37.904C286.512 38.128 285.84 38.24 285.136 38.24C284.32 38.24 283.608 38.112 283 37.856C282.392 37.6 281.92 37.232 281.584 36.752C281.264 36.256 281.104 35.648 281.104 34.928C281.104 34.064 281.36 33.352 281.872 32.792C282.4 32.216 283.224 31.816 284.344 31.592L288.88 30.656L288.856 32.816L286.552 33.296C286.072 33.392 285.712 33.536 285.472 33.728C285.248 33.904 285.136 34.176 285.136 34.544C285.136 34.896 285.264 35.16 285.52 35.336C285.776 35.512 286.08 35.6 286.432 35.6C286.704 35.6 286.96 35.56 287.2 35.48C287.456 35.4 287.68 35.28 287.872 35.12C288.064 34.944 288.216 34.728 288.328 34.472C288.44 34.216 288.496 33.912 288.496 33.56V30.392ZM307.455 22.784L307.791 25.52C307.695 25.488 307.599 25.472 307.503 25.472C307.407 25.456 307.311 25.448 307.215 25.448C306.511 25.448 305.983 25.624 305.631 25.976C305.295 26.312 305.127 26.736 305.127 27.248L303.687 26.72C303.687 26.064 303.807 25.432 304.047 24.824C304.287 24.216 304.655 23.72 305.151 23.336C305.663 22.952 306.303 22.76 307.071 22.76C307.119 22.76 307.175 22.76 307.239 22.76C307.319 22.76 307.391 22.768 307.455 22.784ZM303.327 35.336C304.719 35.336 305.783 35.632 306.519 36.224C307.271 36.8 307.647 37.632 307.647 38.72C307.647 39.712 307.375 40.536 306.831 41.192C306.287 41.848 305.519 42.336 304.527 42.656C303.551 42.992 302.391 43.16 301.047 43.16C298.871 43.16 297.303 42.888 296.343 42.344C295.383 41.8 294.903 41.064 294.903 40.136C294.903 39.464 295.175 38.92 295.719 38.504C296.263 38.088 297.167 37.864 298.431 37.832L298.335 38.216C297.359 38.088 296.631 37.8 296.151 37.352C295.671 36.904 295.431 36.296 295.431 35.528C295.431 34.76 295.735 34.136 296.343 33.656C296.951 33.176 297.759 32.912 298.767 32.864L300.255 33.56H299.871C299.247 33.592 298.807 33.696 298.551 33.872C298.295 34.048 298.167 34.264 298.167 34.52C298.167 34.792 298.279 35 298.503 35.144C298.727 35.272 299.063 35.336 299.511 35.336H303.327ZM301.071 40.52C301.839 40.52 302.471 40.464 302.967 40.352C303.479 40.256 303.863 40.112 304.119 39.92C304.375 39.744 304.503 39.536 304.503 39.296C304.503 39.056 304.415 38.864 304.239 38.72C304.063 38.592 303.743 38.528 303.279 38.528H298.983C298.679 38.528 298.431 38.608 298.239 38.768C298.063 38.928 297.975 39.128 297.975 39.368C297.975 39.736 298.247 40.016 298.791 40.208C299.335 40.416 300.095 40.52 301.071 40.52ZM301.215 25.76C302.431 25.76 303.471 25.92 304.335 26.24C305.199 26.56 305.855 27.024 306.303 27.632C306.767 28.224 306.999 28.96 306.999 29.84C306.999 30.704 306.767 31.44 306.303 32.048C305.855 32.656 305.199 33.12 304.335 33.44C303.471 33.744 302.431 33.896 301.215 33.896C299.311 33.896 297.863 33.544 296.871 32.84C295.895 32.136 295.407 31.136 295.407 29.84C295.407 28.96 295.631 28.224 296.079 27.632C296.543 27.024 297.207 26.56 298.071 26.24C298.935 25.92 299.983 25.76 301.215 25.76ZM301.215 28.088C300.687 28.088 300.255 28.24 299.919 28.544C299.599 28.848 299.439 29.28 299.439 29.84C299.439 30.384 299.599 30.808 299.919 31.112C300.255 31.416 300.687 31.568 301.215 31.568C301.727 31.568 302.151 31.416 302.487 31.112C302.823 30.808 302.991 30.384 302.991 29.84C302.991 29.28 302.823 28.848 302.487 28.544C302.151 28.24 301.727 28.088 301.215 28.088ZM315.125 38.24C313.797 38.24 312.645 37.992 311.669 37.496C310.709 37 309.965 36.288 309.437 35.36C308.909 34.432 308.645 33.312 308.645 32C308.645 30.688 308.909 29.568 309.437 28.64C309.965 27.712 310.701 27 311.645 26.504C312.605 26.008 313.701 25.76 314.933 25.76C316.197 25.76 317.269 26.008 318.149 26.504C319.045 26.984 319.725 27.656 320.189 28.52C320.653 29.368 320.885 30.344 320.885 31.448C320.885 31.736 320.877 32.024 320.861 32.312C320.845 32.6 320.821 32.84 320.789 33.032H311.285V30.848H318.989L317.045 31.592C317.045 30.632 316.869 29.896 316.517 29.384C316.181 28.872 315.653 28.616 314.933 28.616C314.421 28.616 313.981 28.736 313.613 28.976C313.261 29.216 312.989 29.592 312.797 30.104C312.621 30.616 312.533 31.272 312.533 32.072C312.533 32.856 312.637 33.496 312.845 33.992C313.053 34.472 313.349 34.824 313.733 35.048C314.117 35.256 314.581 35.36 315.125 35.36C315.733 35.36 316.213 35.24 316.565 35C316.933 34.76 317.205 34.424 317.381 33.992L320.645 35.072C320.421 35.76 320.029 36.344 319.469 36.824C318.925 37.288 318.269 37.64 317.501 37.88C316.749 38.12 315.957 38.24 315.125 38.24Z" fill="black"/>
</svg>
